<svg width="704" height="566" viewBox="0 0 704 566" fill="none" xmlns="http://www.w3.org/2000/svg">
<g clip-path="url(#clip0)">
<path d="M356.181 566C548.276 566 704 553.86 704 538.884C704 523.908 548.276 511.768 356.181 511.768C164.085 511.768 8.36105 523.908 8.36105 538.884C8.36105 553.86 164.085 566 356.181 566Z" fill="#222831" fill-opacity="0.65"/>
<g filter="url(#filter0_d)">
<path d="M651.634 488.509L654.894 512.366L632.074 514.534L635.334 485.256L651.634 488.509Z" fill="#FFB8B8"/>
</g>
<g filter="url(#filter1_d)">
<path d="M544.054 161.029C544.054 161.029 546.228 190.307 546.228 191.392C546.228 192.476 531.015 267.298 531.015 267.298C531.015 267.298 509.281 308.504 531.015 307.419C552.748 306.335 546.228 268.382 546.228 268.382L569.048 205.488L559.268 161.029L544.054 161.029Z" fill="#FFB8B8"/>
</g>
<g filter="url(#filter2_d)">
<path d="M579.915 488.509L576.655 512.366L599.474 514.534L596.214 485.256L579.915 488.509Z" fill="#FFB8B8"/>
</g>
<path d="M554.921 265.129L549.488 272.719C549.488 272.719 546.228 305.251 549.488 316.094C552.748 326.938 559.268 376.819 559.268 380.072C559.268 383.325 560.354 385.494 559.268 386.578C558.181 387.663 554.921 387.663 557.094 389.832C559.268 392 559.268 398.507 559.268 398.507V403.928L573.394 484.172C573.394 484.172 564.701 493.931 571.221 493.931C577.741 493.931 601.647 493.931 600.561 483.087L598.387 482.003C598.387 482.003 595.127 410.435 596.214 407.181C597.301 403.928 596.214 397.422 596.214 397.422C596.214 397.422 594.041 394.169 596.214 393.085C598.387 392 598.387 383.325 598.387 383.325L608.167 317.179C608.167 317.179 616.86 361.638 622.294 365.975C627.727 370.313 626.64 381.157 626.64 381.157L630.987 476.581C630.987 476.581 626.64 487.425 630.987 489.594C635.334 491.762 653.807 499.353 654.894 488.509C655.98 477.666 661.413 383.325 661.413 378.988C661.413 374.65 660.327 372.482 661.413 369.228C662.5 365.975 660.327 365.975 661.413 365.975C662.5 365.975 659.24 362.722 659.24 360.554V307.419C659.24 307.419 660.327 296.576 661.413 294.407C662.5 292.238 660.327 290.069 661.413 286.816C662.5 283.563 659.24 272.719 659.24 272.719L610.341 259.707L554.921 265.129Z" fill="#2F2E41"/>
<g filter="url(#filter3_bd)">
<path d="M592.954 508.028C592.954 508.028 598.387 502.606 590.781 502.606C585.897 502.706 581.087 503.813 576.654 505.859L571.221 525.378C571.221 525.378 548.944 543.27 573.938 541.101C598.931 538.933 595.127 540.559 595.127 540.559C595.127 540.559 602.734 538.39 603.821 536.222C604.907 534.053 601.647 502.606 601.647 502.606C601.647 502.606 598.387 511.281 592.954 508.028Z" fill="#2F2E41"/>
</g>
<g filter="url(#filter4_bd)">
<path d="M639.68 508.028C639.68 508.028 634.247 502.606 641.854 502.606C646.737 502.706 651.547 503.813 655.98 505.859L661.414 525.378C661.414 525.378 683.69 543.27 658.697 541.101C633.704 538.933 634.247 540.559 634.247 540.559C634.247 540.559 626.641 538.39 625.554 536.222C624.467 534.053 630.987 502.606 630.987 502.606C630.987 502.606 634.247 511.281 639.68 508.028Z" fill="#2F2E41"/>
</g>
<g filter="url(#filter5_bd)">
<path d="M569.048 75.3638C584.651 75.3638 597.301 62.7411 597.301 47.1702C597.301 31.5992 584.651 18.9765 569.048 18.9765C553.444 18.9765 540.795 31.5992 540.795 47.1702C540.795 62.7411 553.444 75.3638 569.048 75.3638Z" fill="#FFB8B8"/>
</g>
<g filter="url(#filter6_d)">
<path d="M559.268 67.7732C559.268 67.7732 563.614 89.4606 563.614 92.7137C563.614 95.9668 582.088 105.726 582.088 105.726L602.734 79.7013C602.734 79.7013 589.694 61.267 589.694 56.9295L559.268 67.7732Z" fill="#FFB8B8"/>
</g>
<g filter="url(#filter7_d)">
<path d="M575.568 95.9668C575.568 95.9668 566.096 93.4513 563.225 89.2872C563.225 89.2872 533.188 118.739 533.188 124.16L557.094 166.451C557.094 166.451 557.094 181.632 559.268 182.717C561.441 183.801 559.268 182.717 559.268 187.054C559.268 191.392 552.748 219.585 554.921 223.923C557.094 228.26 559.268 225.007 557.094 231.513C554.921 238.02 549.488 272.719 549.488 272.719C549.488 272.719 569.048 266.213 597.301 277.057C625.554 287.901 659.24 272.719 659.24 272.719C659.24 272.719 650.547 253.201 652.72 246.695C654.894 240.188 647.287 228.26 647.287 228.26L641.854 128.498C641.854 128.498 649.46 84.0388 644.027 81.87L633.16 77.5325L598.361 73.2645C598.361 73.2645 589.694 94.8825 575.568 95.9668Z" fill="#CCCCCC"/>
</g>
<g filter="url(#filter8_bd)">
<path d="M544.055 116.57L533.188 124.161C533.188 124.161 527.755 140.426 533.188 148.017C538.621 155.607 540.795 166.451 540.795 166.451L562.528 164.282L544.055 116.57Z" fill="#CCCCCC"/>
</g>
<g filter="url(#filter9_bd)">
<path d="M547.476 17.3743L542.576 15.4164C542.576 15.4164 552.823 4.15856 567.08 5.13753L563.07 0.732229C563.07 0.732229 572.872 -3.1835 581.782 7.09535C586.466 12.4987 591.886 18.8501 595.265 26.0049H600.513L598.323 30.818L605.989 35.6311L598.12 34.7666C598.866 38.9219 598.61 43.1944 597.376 47.232L597.587 51.0363C597.587 51.0363 588.465 36.9531 588.465 34.9952V39.8899C588.465 39.8899 583.564 35.4847 583.564 32.5479L580.891 35.9742L579.555 30.59L563.07 35.9742L565.743 31.569L555.496 33.0374L559.506 27.6532C559.506 27.6532 547.922 34.0163 547.476 39.4005C547.031 44.7847 541.239 51.6373 541.239 51.6373L538.566 46.7426C538.566 46.7426 534.556 24.7163 547.476 17.3743Z" fill="#2F2E41"/>
</g>
<path d="M554.03 235.979H122.213V538.678H554.03V235.979Z" fill="#F2F2F2"/>
<path d="M266.987 351.473H158.563V540.347H266.987V351.473Z" fill="#3F3D56"/>
<path d="M207.825 362.804H178.618V389.973H207.825V362.804Z" fill="#F2F2F2"/>
<path d="M246.932 362.804H217.725V389.973H246.932V362.804Z" fill="#F2F2F2"/>
<path d="M207.825 399.853H178.618V428.01H207.825V399.853Z" fill="#F2F2F2"/>
<path d="M246.932 399.853H217.725V428.01H246.932V399.853Z" fill="#F2F2F2"/>
<path d="M253.199 465.505C257.007 465.505 260.093 462.425 260.093 458.626C260.093 454.826 257.007 451.746 253.199 451.746C249.392 451.746 246.305 454.826 246.305 458.626C246.305 462.425 249.392 465.505 253.199 465.505Z" fill="#00ADB5"/>
<path d="M517.679 333.544H303.338V513.037H517.679V333.544Z" fill="#3F3D56"/>
<path d="M599.154 292.967H77.088L111.897 220.344L119.687 204.083L129.878 182.819L137.668 166.559L146.699 147.722H558.022L563.356 166.559L567.962 182.819L573.985 204.083L578.591 220.344L599.154 292.967Z" fill="#3F3D56"/>
<path d="M318.379 407.968H310.858V454.248H318.379V407.968Z" fill="#00ADB5"/>
<path d="M318.379 414.847H310.858V420.476H318.379V414.847Z" fill="#F2F2F2"/>
<path d="M318.379 441.74H310.858V447.368H318.379V441.74Z" fill="#F2F2F2"/>
<path d="M340.315 407.968H322.14V454.248H340.315V407.968Z" fill="#00ADB5"/>
<path d="M340.315 414.847H322.14V420.476H340.315V414.847Z" fill="#F2F2F2"/>
<path d="M340.315 441.74H322.14V447.368H340.315V441.74Z" fill="#F2F2F2"/>
<path d="M352.223 407.968H344.702V454.248H352.223V407.968Z" fill="#00ADB5"/>
<path d="M352.223 414.847H344.702V420.476H352.223V414.847Z" fill="#F2F2F2"/>
<path d="M352.223 441.74H344.702V447.368H352.223V441.74Z" fill="#F2F2F2"/>
<path d="M363.504 407.968H355.983V454.248H363.504V407.968Z" fill="#00ADB5"/>
<path d="M363.504 414.847H355.983V420.476H363.504V414.847Z" fill="#F2F2F2"/>
<path d="M363.504 441.74H355.983V447.368H363.504V441.74Z" fill="#F2F2F2"/>
<path d="M370.751 408.131L363.714 410.778L380.072 454.084L387.11 451.437L370.751 408.131Z" fill="#00ADB5"/>
<path d="M373.183 414.569L366.145 417.216L368.135 422.483L375.172 419.836L373.183 414.569Z" fill="#F2F2F2"/>
<path d="M382.688 439.733L375.651 442.38L377.64 447.647L384.678 445L382.688 439.733Z" fill="#F2F2F2"/>
<path d="M510.785 407.968H492.61V454.248H510.785V407.968Z" fill="#00ADB5"/>
<path d="M510.785 414.847H492.61V420.476H510.785V414.847Z" fill="#F2F2F2"/>
<path d="M510.785 441.74H492.61V447.368H510.785V441.74Z" fill="#F2F2F2"/>
<path d="M488.223 407.968H480.702V454.248H488.223V407.968Z" fill="#00ADB5"/>
<path d="M488.223 414.847H480.702V420.476H488.223V414.847Z" fill="#F2F2F2"/>
<path d="M488.223 441.74H480.702V447.368H488.223V441.74Z" fill="#F2F2F2"/>
<path d="M476.942 407.968H469.421V454.248H476.942V407.968Z" fill="#00ADB5"/>
<path d="M476.942 414.847H469.421V420.476H476.942V414.847Z" fill="#F2F2F2"/>
<path d="M476.942 441.74H469.421V447.368H476.942V441.74Z" fill="#F2F2F2"/>
<path d="M462.174 408.131L445.815 451.437L452.852 454.084L469.211 410.778L462.174 408.131Z" fill="#00ADB5"/>
<path d="M459.742 414.569L457.753 419.835L464.79 422.483L466.779 417.216L459.742 414.569Z" fill="#F2F2F2"/>
<path d="M450.236 439.733L448.247 445L455.284 447.647L457.274 442.38L450.236 439.733Z" fill="#F2F2F2"/>
<path d="M517.679 454.248H303.338V458.626H517.679V454.248Z" fill="#F2F2F2"/>
<path d="M436.204 407.968H396.72V454.248H436.204V407.968Z" fill="#00ADB5"/>
<path d="M426.49 417.974H406.435V426.73H426.49V417.974Z" fill="#F2F2F2"/>
<path d="M412.389 333.544H408.628V373.57H412.389V333.544Z" fill="#F2F2F2"/>
<path d="M410.508 379.824C413.97 379.824 416.776 377.024 416.776 373.57C416.776 370.116 413.97 367.316 410.508 367.316C407.047 367.316 404.241 370.116 404.241 373.57C404.241 377.024 407.047 379.824 410.508 379.824Z" fill="#F2F2F2"/>
<path d="M567.962 182.819H129.878L137.668 166.559H563.356L567.962 182.819Z" fill="#00ADB5"/>
<path d="M578.591 220.344H111.897L119.687 204.083H573.985L578.591 220.344Z" fill="#00ADB5"/>
<path d="M624.467 126.329C624.467 126.329 618.174 142.476 619.489 158.452C619.729 161.313 620.695 164.065 622.294 166.451L545.201 202.974C545.201 202.974 510.368 206.573 519.061 221.754C527.755 236.935 559.268 214.163 559.268 214.163C559.268 214.163 641.854 202.235 648.374 190.307C654.894 178.379 659.24 128.498 659.24 128.498L624.467 126.329Z" fill="#FFB8B8"/>
<path d="M627.727 81.87H644.027C644.027 81.87 655.98 84.0387 659.24 105.726C662.5 127.414 665.76 132.835 662.5 132.835C659.24 132.835 620.121 131.751 620.121 130.667C620.121 129.582 627.727 81.87 627.727 81.87Z" fill="#CCCCCC"/>
<path d="M83.6105 405.806C129.787 405.806 167.221 368.451 167.221 322.371C167.221 276.292 129.787 238.937 83.6105 238.937C37.4337 238.937 0 276.292 0 322.371C0 368.451 37.4337 405.806 83.6105 405.806Z" fill="#00ADB5"/>
<path opacity="0.1" d="M83.6105 394.125C123.322 394.125 155.515 362 155.515 322.371C155.515 282.743 123.322 250.618 83.6105 250.618C43.8984 250.618 11.7055 282.743 11.7055 322.371C11.7055 362 43.8984 394.125 83.6105 394.125Z" fill="#2F2E41"/>
<path d="M80.1649 364.712V354.269C74.8746 354.166 69.4017 352.304 66.2094 349.719L68.3984 342.791C72.192 345.628 76.7927 347.186 81.5331 347.237C88.0094 347.237 92.3876 342.998 92.3876 337.104C92.3876 331.417 88.8302 327.902 82.0804 324.799C72.7766 320.663 67.0303 315.907 67.0303 306.911C67.0303 298.328 72.4119 291.814 80.8036 290.263V279.82H86.4587V289.85C90.6756 289.907 94.7888 291.162 98.3165 293.468L96.0359 300.293C92.6525 297.982 88.6433 296.756 84.5432 296.777C77.52 296.777 74.8746 301.534 74.8746 305.67C74.8746 311.047 78.2495 313.735 86.1852 317.458C95.5799 321.801 100.323 327.178 100.323 336.38C100.323 344.549 95.3064 352.201 85.9113 353.958V364.712H80.1649Z" fill="#F2F2F2"/>
</g>
<defs>
<filter id="filter0_d" x="628.074" y="485.256" width="30.8198" height="37.278" filterUnits="userSpaceOnUse" color-interpolation-filters="sRGB">
<feFlood flood-opacity="0" result="BackgroundImageFix"/>
<feColorMatrix in="SourceAlpha" type="matrix" values="0 0 0 0 0 0 0 0 0 0 0 0 0 0 0 0 0 0 127 0"/>
<feOffset dy="4"/>
<feGaussianBlur stdDeviation="2"/>
<feColorMatrix type="matrix" values="0 0 0 0 0 0 0 0 0 0 0 0 0 0 0 0 0 0 0.25 0"/>
<feBlend mode="normal" in2="BackgroundImageFix" result="effect1_dropShadow"/>
<feBlend mode="normal" in="SourceGraphic" in2="effect1_dropShadow" result="shape"/>
</filter>
<filter id="filter1_d" x="517.355" y="161.029" width="55.6921" height="154.411" filterUnits="userSpaceOnUse" color-interpolation-filters="sRGB">
<feFlood flood-opacity="0" result="BackgroundImageFix"/>
<feColorMatrix in="SourceAlpha" type="matrix" values="0 0 0 0 0 0 0 0 0 0 0 0 0 0 0 0 0 0 127 0"/>
<feOffset dy="4"/>
<feGaussianBlur stdDeviation="2"/>
<feColorMatrix type="matrix" values="0 0 0 0 0 0 0 0 0 0 0 0 0 0 0 0 0 0 0.25 0"/>
<feBlend mode="normal" in2="BackgroundImageFix" result="effect1_dropShadow"/>
<feBlend mode="normal" in="SourceGraphic" in2="effect1_dropShadow" result="shape"/>
</filter>
<filter id="filter2_d" x="572.655" y="485.256" width="30.8198" height="37.278" filterUnits="userSpaceOnUse" color-interpolation-filters="sRGB">
<feFlood flood-opacity="0" result="BackgroundImageFix"/>
<feColorMatrix in="SourceAlpha" type="matrix" values="0 0 0 0 0 0 0 0 0 0 0 0 0 0 0 0 0 0 127 0"/>
<feOffset dy="4"/>
<feGaussianBlur stdDeviation="2"/>
<feColorMatrix type="matrix" values="0 0 0 0 0 0 0 0 0 0 0 0 0 0 0 0 0 0 0.25 0"/>
<feBlend mode="normal" in2="BackgroundImageFix" result="effect1_dropShadow"/>
<feBlend mode="normal" in="SourceGraphic" in2="effect1_dropShadow" result="shape"/>
</filter>
<filter id="filter3_bd" x="558.079" y="500.606" width="49.9639" height="48.6776" filterUnits="userSpaceOnUse" color-interpolation-filters="sRGB">
<feFlood flood-opacity="0" result="BackgroundImageFix"/>
<feGaussianBlur in="BackgroundImage" stdDeviation="1"/>
<feComposite in2="SourceAlpha" operator="in" result="effect1_backgroundBlur"/>
<feColorMatrix in="SourceAlpha" type="matrix" values="0 0 0 0 0 0 0 0 0 0 0 0 0 0 0 0 0 0 127 0"/>
<feOffset dy="4"/>
<feGaussianBlur stdDeviation="2"/>
<feColorMatrix type="matrix" values="0 0 0 0 0 0 0 0 0 0 0 0 0 0 0 0 0 0 0.25 0"/>
<feBlend mode="normal" in2="effect1_backgroundBlur" result="effect2_dropShadow"/>
<feBlend mode="normal" in="SourceGraphic" in2="effect2_dropShadow" result="shape"/>
</filter>
<filter id="filter4_bd" x="621.432" y="500.606" width="53.1241" height="48.6775" filterUnits="userSpaceOnUse" color-interpolation-filters="sRGB">
<feFlood flood-opacity="0" result="BackgroundImageFix"/>
<feGaussianBlur in="BackgroundImage" stdDeviation="1"/>
<feComposite in2="SourceAlpha" operator="in" result="effect1_backgroundBlur"/>
<feColorMatrix in="SourceAlpha" type="matrix" values="0 0 0 0 0 0 0 0 0 0 0 0 0 0 0 0 0 0 127 0"/>
<feOffset dy="4"/>
<feGaussianBlur stdDeviation="2"/>
<feColorMatrix type="matrix" values="0 0 0 0 0 0 0 0 0 0 0 0 0 0 0 0 0 0 0.25 0"/>
<feBlend mode="normal" in2="effect1_backgroundBlur" result="effect2_dropShadow"/>
<feBlend mode="normal" in="SourceGraphic" in2="effect2_dropShadow" result="shape"/>
</filter>
<filter id="filter5_bd" x="536.795" y="16.9765" width="64.5062" height="66.3873" filterUnits="userSpaceOnUse" color-interpolation-filters="sRGB">
<feFlood flood-opacity="0" result="BackgroundImageFix"/>
<feGaussianBlur in="BackgroundImage" stdDeviation="1"/>
<feComposite in2="SourceAlpha" operator="in" result="effect1_backgroundBlur"/>
<feColorMatrix in="SourceAlpha" type="matrix" values="0 0 0 0 0 0 0 0 0 0 0 0 0 0 0 0 0 0 127 0"/>
<feOffset dy="4"/>
<feGaussianBlur stdDeviation="2"/>
<feColorMatrix type="matrix" values="0 0 0 0 0 0 0 0 0 0 0 0 0 0 0 0 0 0 0.25 0"/>
<feBlend mode="normal" in2="effect1_backgroundBlur" result="effect2_dropShadow"/>
<feBlend mode="normal" in="SourceGraphic" in2="effect2_dropShadow" result="shape"/>
</filter>
<filter id="filter6_d" x="555.268" y="56.9295" width="51.4663" height="56.7967" filterUnits="userSpaceOnUse" color-interpolation-filters="sRGB">
<feFlood flood-opacity="0" result="BackgroundImageFix"/>
<feColorMatrix in="SourceAlpha" type="matrix" values="0 0 0 0 0 0 0 0 0 0 0 0 0 0 0 0 0 0 127 0"/>
<feOffset dy="4"/>
<feGaussianBlur stdDeviation="2"/>
<feColorMatrix type="matrix" values="0 0 0 0 0 0 0 0 0 0 0 0 0 0 0 0 0 0 0.25 0"/>
<feBlend mode="normal" in2="BackgroundImageFix" result="effect1_dropShadow"/>
<feBlend mode="normal" in="SourceGraphic" in2="effect1_dropShadow" result="shape"/>
</filter>
<filter id="filter7_d" x="529.188" y="73.2645" width="134.052" height="215.697" filterUnits="userSpaceOnUse" color-interpolation-filters="sRGB">
<feFlood flood-opacity="0" result="BackgroundImageFix"/>
<feColorMatrix in="SourceAlpha" type="matrix" values="0 0 0 0 0 0 0 0 0 0 0 0 0 0 0 0 0 0 127 0"/>
<feOffset dy="4"/>
<feGaussianBlur stdDeviation="2"/>
<feColorMatrix type="matrix" values="0 0 0 0 0 0 0 0 0 0 0 0 0 0 0 0 0 0 0.25 0"/>
<feBlend mode="normal" in2="BackgroundImageFix" result="effect1_dropShadow"/>
<feBlend mode="normal" in="SourceGraphic" in2="effect1_dropShadow" result="shape"/>
</filter>
<filter id="filter8_bd" x="526.773" y="114.57" width="39.7546" height="59.8811" filterUnits="userSpaceOnUse" color-interpolation-filters="sRGB">
<feFlood flood-opacity="0" result="BackgroundImageFix"/>
<feGaussianBlur in="BackgroundImage" stdDeviation="1"/>
<feComposite in2="SourceAlpha" operator="in" result="effect1_backgroundBlur"/>
<feColorMatrix in="SourceAlpha" type="matrix" values="0 0 0 0 0 0 0 0 0 0 0 0 0 0 0 0 0 0 127 0"/>
<feOffset dy="4"/>
<feGaussianBlur stdDeviation="2"/>
<feColorMatrix type="matrix" values="0 0 0 0 0 0 0 0 0 0 0 0 0 0 0 0 0 0 0.25 0"/>
<feBlend mode="normal" in2="effect1_backgroundBlur" result="effect2_dropShadow"/>
<feBlend mode="normal" in="SourceGraphic" in2="effect2_dropShadow" result="shape"/>
</filter>
<filter id="filter9_bd" x="533.978" y="-2" width="76.0117" height="61.6373" filterUnits="userSpaceOnUse" color-interpolation-filters="sRGB">
<feFlood flood-opacity="0" result="BackgroundImageFix"/>
<feGaussianBlur in="BackgroundImage" stdDeviation="1"/>
<feComposite in2="SourceAlpha" operator="in" result="effect1_backgroundBlur"/>
<feColorMatrix in="SourceAlpha" type="matrix" values="0 0 0 0 0 0 0 0 0 0 0 0 0 0 0 0 0 0 127 0"/>
<feOffset dy="4"/>
<feGaussianBlur stdDeviation="2"/>
<feColorMatrix type="matrix" values="0 0 0 0 0 0 0 0 0 0 0 0 0 0 0 0 0 0 0.25 0"/>
<feBlend mode="normal" in2="effect1_backgroundBlur" result="effect2_dropShadow"/>
<feBlend mode="normal" in="SourceGraphic" in2="effect2_dropShadow" result="shape"/>
</filter>
<clipPath id="clip0">
<rect width="704" height="566" fill="white"/>
</clipPath>
</defs>
</svg>
