<svg width="1247" height="811" viewBox="0 0 1247 811" fill="none" xmlns="http://www.w3.org/2000/svg">
<path d="M119.895 431.054C101.166 314.719 59.3217 304.579 27.145 245.858C-2.14842 192.445 -25.772 105.063 56.8988 42.5934C185.315 -54.5218 342.806 44.8519 342.806 44.8519C342.806 44.8519 592.369 178.103 635.982 184.879C679.595 191.654 786.205 259.409 919.467 178.103C1052.73 96.7973 1166.61 103.573 1202.95 164.552C1239.3 225.531 1156.92 401.694 1137.53 437.83C1118.15 473.966 1147.22 586.89 1178.72 632.06C1210.22 677.23 1309.56 817.257 1096.34 812.74C883.123 808.223 243.465 814.998 243.465 814.998C243.465 814.998 13.8431 811.001 54.4759 602.7C88.3971 428.796 127.164 476.224 119.895 431.054Z" fill="#EEEEEE"/>
<path d="M1200.53 720.143C1227.29 720.143 1248.99 699.92 1248.99 674.973C1248.99 650.027 1227.29 629.803 1200.53 629.803C1173.77 629.803 1152.07 650.027 1152.07 674.973C1152.07 699.92 1173.77 720.143 1200.53 720.143Z" fill="#BEEBE9"/>
<path d="M350.014 790.353C397.519 790.353 436.029 754.457 436.029 710.177C436.029 665.896 397.519 630 350.014 630C302.51 630 264 665.896 264 710.177C264 754.457 302.51 790.353 350.014 790.353Z" fill="#8AC6D1" fill-opacity="0.8"/>
<path d="M907.355 790.157C939.47 790.157 965.505 765.889 965.505 735.953C965.505 706.017 939.47 681.749 907.355 681.749C875.239 681.749 849.204 706.017 849.204 735.953C849.204 765.889 875.239 790.157 907.355 790.157Z" fill="#8AC6D1" fill-opacity="0.8"/>
<path d="M1130.27 485.26C1147.66 485.26 1161.76 472.115 1161.76 455.899C1161.76 439.684 1147.66 426.539 1130.27 426.539C1112.87 426.539 1098.77 439.684 1098.77 455.899C1098.77 472.115 1112.87 485.26 1130.27 485.26Z" fill="#8AC6D1" fill-opacity="0.8"/>
<path d="M895.24 250.377C930.032 250.377 958.236 224.086 958.236 191.656C958.236 159.225 930.032 132.935 895.24 132.935C860.448 132.935 832.243 159.225 832.243 191.656C832.243 224.086 860.448 250.377 895.24 250.377Z" fill="#8AC6D1" fill-opacity="0.8"/>
<path d="M1196.9 297.805C1213.62 297.805 1227.18 285.166 1227.18 269.574C1227.18 253.982 1213.62 241.343 1196.9 241.343C1180.17 241.343 1166.61 253.982 1166.61 269.574C1166.61 285.166 1180.17 297.805 1196.9 297.805Z" fill="#BEEBE9"/>
<path d="M1148.44 778.864C1166.5 778.864 1181.15 765.213 1181.15 748.374C1181.15 731.535 1166.5 717.885 1148.44 717.885C1130.37 717.885 1115.73 731.535 1115.73 748.374C1115.73 765.213 1130.37 778.864 1148.44 778.864Z" fill="#BEEBE9"/>
<path d="M593.803 557.34C620.566 557.34 642.261 537.117 642.261 512.17C642.261 487.223 620.566 467 593.803 467C567.04 467 545.344 487.223 545.344 512.17C545.344 537.117 567.04 557.34 593.803 557.34Z" fill="#BEEBE9"/>
<path d="M541.71 616.06C559.775 616.06 574.42 602.41 574.42 585.571C574.42 568.732 559.775 555.081 541.71 555.081C523.645 555.081 509 568.732 509 585.571C509 602.41 523.645 616.06 541.71 616.06Z" fill="#BEEBE9"/>
<path d="M1221.13 781.122C1231.16 781.122 1239.3 773.539 1239.3 764.184C1239.3 754.829 1231.16 747.245 1221.13 747.245C1211.09 747.245 1202.95 754.829 1202.95 764.184C1202.95 773.539 1211.09 781.122 1221.13 781.122Z" fill="#BEEBE9"/>
<path d="M30.2868 120.922C47.0137 120.922 60.5735 108.282 60.5735 92.6905C60.5735 77.0989 47.0137 64.4594 30.2868 64.4594C13.5598 64.4594 0 77.0989 0 92.6905C0 108.282 13.5598 120.922 30.2868 120.922Z" fill="#8AC6D1" fill-opacity="0.9"/>
<path d="M109 93C136.614 93 159 72.1812 159 46.5C159 20.8188 136.614 0 109 0C81.3857 0 59 20.8188 59 46.5C59 72.1812 81.3857 93 109 93Z" fill="#8AC6D1"/>
</svg>
