<svg width="1282" height="723" viewBox="0 0 1282 723" fill="none" xmlns="http://www.w3.org/2000/svg">
<g clip-path="url(#clip0)">
<g filter="url(#filter0_d)">
<path d="M3.58675 729C3.58675 729 -23.478 506.117 71.2483 438.573C153.734 379.741 222.348 344.012 362.182 339.509C502.016 335.006 578.677 334.984 662.137 242.708C745.598 150.432 858.435 11.0002 984.624 6.3163C1106.41 1.79077 1180.83 40.0768 1250.74 310.251C1320.64 580.426 1248.47 719.994 1246.2 722.234C1244.64 723.84 3.58675 729 3.58675 729Z" fill="#EEEEEE"/>
</g>
<path d="M571.196 546.708C578.881 453.934 550.252 318.168 583.663 299.274C616.644 280.651 627.887 274.564 662.115 236.708C745.553 144.41 858.322 4.9781 984.624 0.316793C1106.41 -4.20875 1180.83 34.0773 1250.74 304.252C1285.69 439.339 1283.63 510.707 1280.2 553.36C1278.35 576.825 1276.49 607.373 1275.35 608.481C1273.79 610.088 564.827 623.755 571.196 546.708Z" fill="#00ADB5"/>
<path d="M1037.87 264.359L1036.49 594.294L1246.38 594.859C1246.38 594.859 1247.9 421.101 1239.58 254.697L1038.3 251.688L1037.87 264.359Z" fill="#BEEBE9"/>
<path d="M840.37 307.012L834.793 595.063H1014.2L1012.94 307.012H840.37Z" fill="#BEEBE9"/>
<path d="M579.833 476.042L837.695 477.377L834.793 595.063L580.807 594.973L579.833 476.042Z" fill="#BEEBE9"/>
<path d="M558.593 309.999L559.228 595.674C559.228 595.674 560.792 613.64 577.997 614.41C595.201 615.179 1273.31 615.473 1273.31 615.473C1273.31 615.473 1279.37 596.534 1277.03 595.742C1274.7 594.95 580.807 594.972 580.807 594.972C580.807 594.972 581.011 584.858 581.011 578.386C581.011 571.191 580.626 300.993 580.626 300.993C573.601 304.722 566.22 307.739 558.593 309.999V309.999Z" fill="white"/>
<path d="M573.554 338.375L1259.67 342.47L1263.29 357.314L573.554 360.618V338.375Z" fill="white"/>
<path d="M767.154 115.922V595.561L785.265 596.964V103.408L767.154 115.922Z" fill="white"/>
<path d="M1094.83 19.4147L1094.42 595.561L1111.15 594.181L1113.76 30.6606L1094.83 19.4147Z" fill="white"/>
<path d="M785.265 103.409L1176.84 105.785L1165.58 85.5328L807.547 85.3518L785.265 103.409Z" fill="white"/>
<path d="M851.272 197.879C873.255 197.879 891.076 180.089 891.076 158.145C891.076 136.2 873.255 118.411 851.272 118.411C829.289 118.411 811.469 136.2 811.469 158.145C811.469 180.089 829.289 197.879 851.272 197.879Z" fill="white"/>
<path d="M890.011 196.974C904.42 196.974 916.101 185.314 916.101 170.93C916.101 156.546 904.42 144.885 890.011 144.885C875.602 144.885 863.921 156.546 863.921 170.93C863.921 185.314 875.602 196.974 890.011 196.974Z" fill="white"/>
<path d="M1153.22 235.283C1175.62 235.283 1193.77 217.159 1193.77 194.802C1193.77 172.445 1175.62 154.321 1153.22 154.321C1130.83 154.321 1112.67 172.445 1112.67 194.802C1112.67 217.159 1130.83 235.283 1153.22 235.283Z" fill="white"/>
<path d="M1111.45 226.48C1126.12 226.48 1138.01 214.607 1138.01 199.961C1138.01 185.314 1126.12 173.441 1111.45 173.441C1096.77 173.441 1084.88 185.314 1084.88 199.961C1084.88 214.607 1096.77 226.48 1111.45 226.48Z" fill="white"/>
<g filter="url(#filter1_bd)">
<path d="M709.434 314C730.369 314 747.34 295.868 747.34 273.5C747.34 251.132 730.369 233 709.434 233C688.499 233 671.528 251.132 671.528 273.5C671.528 295.868 688.499 314 709.434 314Z" fill="#2F2E41"/>
<path d="M712.67 314C729.775 314 743.642 299.225 743.642 281C743.642 262.775 729.775 248 712.67 248C695.565 248 681.698 262.775 681.698 281C681.698 299.225 695.565 314 712.67 314Z" fill="#FFB8B8"/>
<path d="M829.539 381.972C829.054 382.5 828.607 383.069 828.205 383.674L766.513 381.316L759.457 367L738.094 375.696L748.309 402.353C749.134 404.506 750.583 406.312 752.438 407.499C754.292 408.686 756.453 409.19 758.595 408.936L828.405 400.643C830.027 402.915 832.249 404.599 834.778 405.47C837.306 406.342 840.019 406.36 842.557 405.523C845.095 404.686 847.337 403.032 848.985 400.783C850.633 398.533 851.609 395.794 851.783 392.93C851.957 390.065 851.321 387.212 849.959 384.748C848.598 382.284 846.575 380.328 844.16 379.138C841.745 377.949 839.053 377.583 836.441 378.089C833.829 378.595 831.422 379.949 829.539 381.972H829.539Z" fill="#FFB8B8"/>
<path d="M729.513 388.425C728.718 388.04 728.009 387.475 727.434 386.768C726.86 386.061 726.434 385.228 726.185 384.327L717.49 352.859C715.601 348.501 715.393 343.514 716.91 338.991C718.427 334.467 721.545 330.777 725.581 328.729C729.617 326.681 734.242 326.443 738.441 328.066C742.64 329.689 746.071 333.041 747.982 337.388L764.825 364.87C765.306 365.654 765.624 366.541 765.758 367.47C765.892 368.399 765.839 369.348 765.602 370.253C765.366 371.158 764.951 371.997 764.386 372.713C763.821 373.43 763.12 374.006 762.33 374.404L734.566 388.385C733.776 388.783 732.916 388.993 732.044 389C731.172 389.007 730.309 388.811 729.513 388.425V388.425Z" fill="#CCCCCC"/>
<path d="M790.314 706L803.736 698.174L781.941 639L762.132 650.55L790.314 706Z" fill="#FFB8B8"/>
<path d="M784.321 704.137L811.193 688.532L811.194 688.531C813.443 687.225 815.911 686.405 818.457 686.116C821.003 685.828 823.577 686.077 826.033 686.85C828.489 687.623 830.778 688.905 832.77 690.622C834.761 692.338 836.416 694.457 837.641 696.856L837.943 697.45L793.946 723L784.321 704.137Z" fill="#2F2E41"/>
<path d="M641.947 707H657.606L665.057 643L641.943 643.001L641.947 707Z" fill="#FFB8B8"/>
<path d="M638.245 701.001L668.737 701H668.738C671.29 701 673.817 701.551 676.174 702.622C678.532 703.692 680.674 705.262 682.478 707.24C684.283 709.219 685.714 711.567 686.691 714.152C687.667 716.737 688.17 719.508 688.17 722.306V722.998L638.246 723L638.245 701.001Z" fill="#2F2E41"/>
<path d="M737.419 422.826L742.398 487.781L797.933 668.919C798.152 669.632 798.231 670.386 798.167 671.133C798.103 671.881 797.897 672.606 797.561 673.262C797.225 673.918 796.767 674.492 796.217 674.945C795.666 675.399 795.035 675.723 794.363 675.897L777.342 680.303C776.252 680.585 775.107 680.459 774.091 679.946C773.075 679.432 772.248 678.561 771.743 677.474L700.742 524.351C700.511 523.852 700.143 523.443 699.689 523.181C699.236 522.918 698.718 522.815 698.208 522.885C697.698 522.954 697.221 523.194 696.841 523.571C696.461 523.948 696.198 524.444 696.088 524.989L664.842 679.748C664.599 680.953 663.984 682.032 663.1 682.805C662.215 683.578 661.114 684 659.979 684H644.145C643.485 684.001 642.832 683.859 642.224 683.582C641.615 683.306 641.063 682.901 640.6 682.39C640.137 681.88 639.773 681.274 639.527 680.608C639.281 679.943 639.16 679.231 639.17 678.514C640.621 571.207 635.835 448.933 673.941 429.592L680.164 412L737.419 422.826Z" fill="#2F2E41"/>
<path d="M678.438 416.3L672.05 374.367C670.993 367.49 671.548 360.435 673.663 353.852C675.778 347.27 679.385 341.371 684.153 336.7C688.813 332.073 694.471 328.795 700.606 327.168C706.74 325.54 713.153 325.615 719.253 327.386C719.615 327.491 719.978 327.6 720.341 327.71C727.847 330.044 734.513 334.822 739.438 341.399C744.362 347.976 747.309 356.036 747.879 364.49C749.098 382.701 748.007 409.121 735.889 431.564L735.653 432L678.438 416.3Z" fill="#CCCCCC"/>
<path d="M742.717 263.169C735.783 268.513 727.552 271.357 719.131 271.319C722.135 273.648 725.555 275.221 729.155 275.93C717.958 278.616 706.385 278.689 695.162 276.144C692.667 275.697 690.26 274.772 688.045 273.411C686.942 272.722 685.981 271.781 685.224 270.65C684.467 269.518 683.932 268.221 683.653 266.843C682.907 262.079 686.227 257.751 689.677 254.834C694.96 250.436 701.05 247.406 707.509 245.963C713.967 244.52 720.631 244.7 727.019 246.491C731.191 247.696 735.369 249.733 738.079 253.479C740.788 257.224 741.591 262.999 739.009 266.856L742.717 263.169Z" fill="#2F2E41"/>
<path d="M708.83 232.464C712.398 216.935 699.61 199.681 684.771 200.004C669.715 200.332 658.636 214.997 651.02 229C643.404 243.003 635.835 258.877 621.854 264.905C617.227 266.9 612.213 267.627 607.262 267.019C602.311 266.411 597.577 264.489 593.485 261.423C589.393 258.358 586.07 254.246 583.815 249.456C581.56 244.666 580.443 239.348 580.564 233.978C578.687 250.99 581.288 269.397 591.466 282.555C601.644 295.713 620.583 301.643 634.196 292.8C641.97 287.75 646.939 278.971 651.036 270.24C655.133 261.509 658.779 252.302 664.986 245.163C671.194 238.024 680.792 233.286 689.431 236.29C692.861 237.482 695.937 239.806 699.48 240.513C703.023 241.22 707.484 239.405 707.968 235.556L708.83 232.464Z" fill="#2F2E41"/>
<path d="M634.977 514.78C633.706 513.157 632.778 511.25 632.257 509.194C631.736 507.138 631.635 504.982 631.96 502.878C632.286 500.775 633.031 498.775 634.143 497.019C635.254 495.263 636.705 493.795 638.394 492.717L664.94 363L691.868 375.049L657.307 498.768C658.78 501.98 659.121 505.67 658.266 509.138C657.41 512.607 655.418 515.613 652.665 517.586C649.913 519.56 646.592 520.364 643.332 519.847C640.072 519.33 637.099 517.527 634.977 514.78H634.977Z" fill="#FFB8B8"/>
<path d="M654.735 382.118C654.312 381.296 654.056 380.384 653.983 379.443C653.911 378.502 654.025 377.556 654.316 376.668L664.496 345.651C665.363 340.916 667.905 336.751 671.565 334.07C675.225 331.388 679.705 330.409 684.022 331.348C688.339 332.286 692.14 335.064 694.593 339.074C697.046 343.084 697.95 347.997 697.107 352.737L695.561 385.769C695.516 386.711 695.288 387.633 694.89 388.47C694.492 389.306 693.935 390.039 693.255 390.618C692.576 391.198 691.791 391.609 690.954 391.825C690.117 392.042 689.247 392.057 688.404 391.871L658.768 385.332C657.925 385.146 657.128 384.763 656.432 384.208C655.736 383.654 655.157 382.941 654.735 382.118Z" fill="#CCCCCC"/>
<path d="M872.71 367.679L872.267 367.614L873.934 354.512C874.19 352.501 873.696 350.463 872.561 348.845C871.426 347.228 869.742 346.163 867.881 345.887L842.192 342.071C840.331 341.795 838.445 342.329 836.948 343.555C835.451 344.782 834.466 346.601 834.21 348.612L825.066 420.488C824.81 422.499 825.304 424.537 826.439 426.155C827.574 427.773 829.258 428.836 831.119 429.113L856.808 432.929C858.669 433.205 860.555 432.671 862.052 431.445C863.549 430.218 864.534 428.399 864.79 426.388L871.081 376.939L871.523 377.005L872.71 367.679Z" fill="#3F3D56"/>
<path d="M866.865 349.707L863.664 349.232C863.762 349.643 863.764 350.074 863.671 350.487C863.578 350.9 863.392 351.281 863.13 351.598C862.868 351.915 862.538 352.158 862.169 352.305C861.8 352.451 861.403 352.498 861.013 352.44L846.966 350.355C846.576 350.298 846.206 350.137 845.887 349.888C845.568 349.639 845.311 349.31 845.138 348.928C844.965 348.547 844.882 348.125 844.895 347.701C844.909 347.276 845.019 346.862 845.215 346.494L842.226 346.051C841.569 345.953 840.901 345.996 840.259 346.178C839.618 346.359 839.016 346.675 838.487 347.108C837.959 347.54 837.515 348.081 837.18 348.699C836.845 349.316 836.626 349.999 836.536 350.709L827.821 419.15C827.73 419.86 827.77 420.581 827.938 421.274C828.106 421.966 828.399 422.616 828.8 423.186C829.2 423.757 829.701 424.236 830.273 424.598C830.846 424.959 831.478 425.196 832.135 425.293L856.774 428.949C858.101 429.146 859.445 428.766 860.512 427.892C861.58 427.019 862.282 425.724 862.464 424.291V424.291L871.179 355.849C871.362 354.417 871.01 352.965 870.2 351.813C869.391 350.662 868.191 349.904 866.865 349.707L866.865 349.707Z" fill="white"/>
<path d="M849.5 406C856.904 406 862.906 399.508 862.906 391.5C862.906 383.492 856.904 377 849.5 377C842.096 377 836.094 383.492 836.094 391.5C836.094 399.508 842.096 406 849.5 406Z" fill="#00ADB5"/>
<path d="M848.197 397C847.886 397.001 847.582 396.895 847.333 396.7L847.317 396.688L844.061 394.086C843.909 393.965 843.782 393.815 843.687 393.643C843.591 393.471 843.529 393.282 843.503 393.085C843.478 392.888 843.49 392.687 843.539 392.495C843.588 392.303 843.673 392.123 843.789 391.966C843.905 391.808 844.049 391.676 844.214 391.576C844.379 391.477 844.561 391.413 844.75 391.387C844.938 391.361 845.13 391.374 845.314 391.426C845.498 391.478 845.67 391.567 845.821 391.688L847.93 393.376L852.914 386.591C853.03 386.434 853.174 386.302 853.339 386.203C853.503 386.103 853.685 386.039 853.873 386.013C854.062 385.987 854.253 386 854.436 386.051C854.62 386.103 854.792 386.191 854.943 386.312L854.912 386.356L854.944 386.312C855.248 386.556 855.447 386.916 855.497 387.313C855.547 387.71 855.444 388.112 855.211 388.43L849.348 396.411C849.213 396.595 849.038 396.743 848.839 396.846C848.639 396.948 848.42 397.001 848.197 397Z" fill="white"/>
</g>
</g>
<defs>
<filter id="filter0_d" x="-4.99207" y="5.98145" width="1291.14" height="733.018" filterUnits="userSpaceOnUse" color-interpolation-filters="sRGB">
<feFlood flood-opacity="0" result="BackgroundImageFix"/>
<feColorMatrix in="SourceAlpha" type="matrix" values="0 0 0 0 0 0 0 0 0 0 0 0 0 0 0 0 0 0 127 0"/>
<feOffset dy="5"/>
<feGaussianBlur stdDeviation="2.5"/>
<feColorMatrix type="matrix" values="0 0 0 0 0 0 0 0 0 0 0 0 0 0 0 0 0 0 0.25 0"/>
<feBlend mode="normal" in2="BackgroundImageFix" result="effect1_dropShadow"/>
<feBlend mode="normal" in="SourceGraphic" in2="effect1_dropShadow" result="shape"/>
</filter>
<filter id="filter1_bd" x="576" y="199" width="306" height="535" filterUnits="userSpaceOnUse" color-interpolation-filters="sRGB">
<feFlood flood-opacity="0" result="BackgroundImageFix"/>
<feGaussianBlur in="BackgroundImage" stdDeviation="0.25"/>
<feComposite in2="SourceAlpha" operator="in" result="effect1_backgroundBlur"/>
<feColorMatrix in="SourceAlpha" type="matrix" values="0 0 0 0 0 0 0 0 0 0 0 0 0 0 0 0 0 0 127 0"/>
<feOffset dx="2" dy="5"/>
<feGaussianBlur stdDeviation="3"/>
<feColorMatrix type="matrix" values="0 0 0 0 0 0 0 0 0 0 0 0 0 0 0 0 0 0 0.25 0"/>
<feBlend mode="normal" in2="effect1_backgroundBlur" result="effect2_dropShadow"/>
<feBlend mode="normal" in="SourceGraphic" in2="effect2_dropShadow" result="shape"/>
</filter>
<clipPath id="clip0">
<rect width="1282" height="723" fill="white"/>
</clipPath>
</defs>
</svg>
