<svg width="695" height="269" viewBox="0 0 695 269" fill="none" xmlns="http://www.w3.org/2000/svg">
<rect width="695" height="269" fill="#424D5F"/>
<g opacity="0.3">
<path d="M321.456 151.293C314.106 151.293 308.148 145.337 308.148 137.99C308.148 130.643 314.106 124.687 321.456 124.687C328.806 124.687 334.764 130.643 334.764 137.99C334.764 145.337 328.806 151.293 321.456 151.293Z" fill="#005FA4" fill-opacity="0.5"/>
<path d="M343.747 163.266C338.786 163.266 334.764 159.246 334.764 154.287C334.764 149.327 338.786 145.307 343.747 145.307C348.708 145.307 352.73 149.327 352.73 154.287C352.73 159.246 348.708 163.266 343.747 163.266Z" fill="#005FA4" fill-opacity="0.5"/>
<path d="M342.416 138.656C339.66 138.656 337.426 136.422 337.426 133.667C337.426 130.912 339.66 128.678 342.416 128.678C345.173 128.678 347.407 130.912 347.407 133.667C347.407 136.422 345.173 138.656 342.416 138.656Z" fill="#005FA4" fill-opacity="0.5"/>
<path d="M47.3081 241.09C39.9582 241.09 34 235.134 34 227.787C34 220.44 39.9582 214.484 47.3081 214.484C54.658 214.484 60.6162 220.44 60.6162 227.787C60.6162 235.134 54.658 241.09 47.3081 241.09Z" fill="#005FA4" fill-opacity="0.5"/>
<path d="M367.036 75.4657C364.28 75.4657 362.046 73.2322 362.046 70.477C362.046 67.7218 364.28 65.4883 367.036 65.4883C369.792 65.4883 372.027 67.7218 372.027 70.477C372.027 73.2322 369.792 75.4657 367.036 75.4657Z" fill="#005FA4" fill-opacity="0.5"/>
<path d="M283.86 250.403C270.814 250.403 260.238 239.831 260.238 226.789C260.238 213.748 270.814 203.176 283.86 203.176C296.906 203.176 307.482 213.748 307.482 226.789C307.482 239.831 296.906 250.403 283.86 250.403Z" fill="#BEEBE9" fill-opacity="0.5"/>
<path d="M127.822 261.71C119.003 261.71 111.853 254.563 111.853 245.746C111.853 236.929 119.003 229.782 127.822 229.782C136.642 229.782 143.792 236.929 143.792 245.746C143.792 254.563 136.642 261.71 127.822 261.71Z" fill="#BEEBE9" fill-opacity="0.5"/>
<path d="M131.149 102.737C121.595 102.737 113.849 94.9939 113.849 85.4426C113.849 75.8913 121.595 68.1484 131.149 68.1484C140.704 68.1484 148.45 75.8913 148.45 85.4426C148.45 94.9939 140.704 102.737 131.149 102.737Z" fill="#BEEBE9" fill-opacity="0.5"/>
<path d="M289.849 47.5289C285.255 47.5289 281.532 43.8064 281.532 39.2144C281.532 34.6224 285.255 30.8999 289.849 30.8999C294.443 30.8999 298.167 34.6224 298.167 39.2144C298.167 43.8064 294.443 47.5289 289.849 47.5289Z" fill="#BEEBE9" fill-opacity="0.5"/>
<path d="M316.465 213.153C311.872 213.153 308.148 209.431 308.148 204.839C308.148 200.247 311.872 196.524 316.465 196.524C321.059 196.524 324.783 200.247 324.783 204.839C324.783 209.431 321.059 213.153 316.465 213.153Z" fill="#BEEBE9" fill-opacity="0.5"/>
<path d="M48.3062 116.705C43.7125 116.705 39.9886 112.983 39.9886 108.391C39.9886 103.799 43.7125 100.076 48.3062 100.076C52.8999 100.076 56.6238 103.799 56.6238 108.391C56.6238 112.983 52.8999 116.705 48.3062 116.705Z" fill="#005FA4" fill-opacity="0.5"/>
<path d="M61.6144 258.385C56.6532 258.385 52.6314 254.364 52.6314 249.405C52.6314 244.446 56.6532 240.425 61.6144 240.425C66.5756 240.425 70.5974 244.446 70.5974 249.405C70.5974 254.364 66.5756 258.385 61.6144 258.385Z" fill="#005FA4" fill-opacity="0.5"/>
<path d="M41.6521 259.049C38.8959 259.049 36.6616 256.816 36.6616 254.06C36.6616 251.305 38.8959 249.072 41.6521 249.072C44.4084 249.072 46.6427 251.305 46.6427 254.06C46.6427 256.816 44.4084 259.049 41.6521 259.049Z" fill="#005FA4" fill-opacity="0.5"/>
<path d="M631.456 156.393C624.106 156.393 618.148 150.437 618.148 143.09C618.148 135.743 624.106 129.787 631.456 129.787C638.806 129.787 644.764 135.743 644.764 143.09C644.764 150.437 638.806 156.393 631.456 156.393Z" fill="#005FA4" fill-opacity="0.5"/>
<path d="M653.747 168.367C648.786 168.367 644.764 164.346 644.764 159.387C644.764 154.428 648.786 150.407 653.747 150.407C658.708 150.407 662.73 154.428 662.73 159.387C662.73 164.346 658.708 168.367 653.747 168.367Z" fill="#005FA4" fill-opacity="0.5"/>
<path d="M652.416 143.756C649.66 143.756 647.426 141.522 647.426 138.767C647.426 136.012 649.66 133.778 652.416 133.778C655.173 133.778 657.407 136.012 657.407 138.767C657.407 141.522 655.173 143.756 652.416 143.756Z" fill="#005FA4" fill-opacity="0.5"/>
<path d="M357.308 246.19C349.958 246.19 344 240.234 344 232.887C344 225.54 349.958 219.584 357.308 219.584C364.658 219.584 370.616 225.54 370.616 232.887C370.616 240.234 364.658 246.19 357.308 246.19Z" fill="#005FA4" fill-opacity="0.5"/>
<path d="M677.036 80.5658C674.28 80.5658 672.046 78.3323 672.046 75.5771C672.046 72.8219 674.28 70.5884 677.036 70.5884C679.793 70.5884 682.027 72.8219 682.027 75.5771C682.027 78.3323 679.793 80.5658 677.036 80.5658Z" fill="#005FA4" fill-opacity="0.5"/>
<path d="M593.86 255.503C580.814 255.503 570.238 244.931 570.238 231.89C570.238 218.848 580.814 208.276 593.86 208.276C606.906 208.276 617.482 218.848 617.482 231.89C617.482 244.931 606.906 255.503 593.86 255.503Z" fill="#BEEBE9" fill-opacity="0.5"/>
<path d="M437.822 266.81C429.003 266.81 421.853 259.663 421.853 250.846C421.853 242.03 429.003 234.882 437.822 234.882C446.642 234.882 453.792 242.03 453.792 250.846C453.792 259.663 446.642 266.81 437.822 266.81Z" fill="#BEEBE9" fill-opacity="0.5"/>
<path d="M441.149 107.837C431.595 107.837 423.849 100.094 423.849 90.5427C423.849 80.9914 431.595 73.2485 441.149 73.2485C450.704 73.2485 458.45 80.9914 458.45 90.5427C458.45 100.094 450.704 107.837 441.149 107.837Z" fill="#BEEBE9" fill-opacity="0.5"/>
<path d="M599.849 52.629C595.255 52.629 591.532 48.9065 591.532 44.3145C591.532 39.7225 595.255 36 599.849 36C604.443 36 608.167 39.7225 608.167 44.3145C608.167 48.9065 604.443 52.629 599.849 52.629Z" fill="#BEEBE9" fill-opacity="0.5"/>
<path d="M626.465 218.253C621.872 218.253 618.148 214.531 618.148 209.939C618.148 205.347 621.872 201.625 626.465 201.625C631.059 201.625 634.783 205.347 634.783 209.939C634.783 214.531 631.059 218.253 626.465 218.253Z" fill="#BEEBE9" fill-opacity="0.5"/>
<path d="M358.306 121.805C353.713 121.805 349.989 118.083 349.989 113.491C349.989 108.899 353.713 105.176 358.306 105.176C362.9 105.176 366.624 108.899 366.624 113.491C366.624 118.083 362.9 121.805 358.306 121.805Z" fill="#005FA4" fill-opacity="0.5"/>
<path d="M371.614 263.485C366.653 263.485 362.631 259.464 362.631 254.505C362.631 249.546 366.653 245.525 371.614 245.525C376.576 245.525 380.597 249.546 380.597 254.505C380.597 259.464 376.576 263.485 371.614 263.485Z" fill="#005FA4" fill-opacity="0.5"/>
<path d="M351.652 264.149C348.896 264.149 346.662 261.916 346.662 259.161C346.662 256.405 348.896 254.172 351.652 254.172C354.408 254.172 356.643 256.405 356.643 259.161C356.643 261.916 354.408 264.149 351.652 264.149Z" fill="#005FA4" fill-opacity="0.5"/>
</g>
<path d="M218.111 121.616C219.989 115.941 221.781 110.373 223.487 104.912C224.213 102.608 224.959 100.197 225.727 97.68C226.495 95.1627 227.263 92.6667 228.031 90.192C228.799 87.7173 229.503 85.328 230.143 83.024C230.826 80.72 231.423 78.5867 231.935 76.624C234.282 76.624 236.501 76.496 238.591 76.24C240.682 75.984 242.943 75.7493 245.375 75.536C245.247 76.4747 245.098 77.5413 244.927 78.736C244.799 79.888 244.629 81.104 244.415 82.384C244.245 83.664 244.053 84.9867 243.839 86.352C243.626 87.7173 243.37 89.4667 243.071 91.6C242.773 93.7333 242.367 96.4 241.855 99.6H242.687C243.925 96.3573 244.949 93.6693 245.759 91.536C246.57 89.36 247.231 87.5893 247.743 86.224C248.255 84.8587 248.767 83.536 249.279 82.256C249.834 80.9333 250.346 79.696 250.815 78.544C251.327 77.3493 251.797 76.304 252.223 75.408C253.29 75.3227 254.293 75.216 255.231 75.088C256.17 74.96 257.109 74.832 258.047 74.704C258.986 74.5333 259.925 74.384 260.863 74.256C261.845 74.0853 262.911 73.8933 264.063 73.68C263.637 76.1547 263.231 78.6933 262.847 81.296C262.463 83.8987 262.122 86.5013 261.823 89.104C261.525 91.664 261.226 94.2027 260.927 96.72C260.671 99.2373 260.437 101.627 260.223 103.888C259.711 109.179 259.263 114.341 258.879 119.376L247.743 121.36C247.743 121.147 247.765 120.571 247.807 119.632C247.893 118.693 247.978 117.541 248.063 116.176C248.191 114.811 248.341 113.296 248.511 111.632C248.725 109.968 248.917 108.304 249.087 106.64C249.301 104.976 249.514 103.376 249.727 101.84C249.941 100.261 250.154 98.9173 250.367 97.808H249.791C249.194 99.6 248.533 101.499 247.807 103.504C247.082 105.467 246.335 107.472 245.567 109.52C244.842 111.568 244.117 113.573 243.391 115.536C242.666 117.499 242.026 119.376 241.471 121.168C239.978 121.211 238.698 121.275 237.631 121.36C236.565 121.403 235.327 121.467 233.919 121.552L235.967 97.808H235.007C234.922 98.3627 234.709 99.3013 234.367 100.624C234.026 101.904 233.621 103.397 233.151 105.104C232.725 106.768 232.255 108.517 231.743 110.352C231.231 112.144 230.741 113.829 230.271 115.408C229.845 116.944 229.482 118.224 229.183 119.248C228.885 120.229 228.714 120.784 228.671 120.912L218.111 121.616ZM295.496 87.376C295.496 90.8747 295.112 94.1813 294.344 97.296C293.619 100.368 292.638 103.205 291.4 105.808C290.163 108.368 288.712 110.672 287.048 112.72C285.427 114.725 283.72 116.453 281.928 117.904C280.136 119.312 278.323 120.4 276.488 121.168C274.654 121.893 272.904 122.256 271.24 122.256C269.832 122.256 268.552 122 267.4 121.488C266.248 120.933 265.246 120.144 264.392 119.12C263.539 118.053 262.856 116.709 262.344 115.088C261.875 113.424 261.64 111.44 261.64 109.136C261.64 106.747 261.939 104.229 262.536 101.584C263.134 98.9387 263.944 96.3147 264.968 93.712C265.992 91.1093 267.251 88.6347 268.744 86.288C270.238 83.9413 271.88 81.872 273.672 80.08C275.464 78.2453 277.384 76.7947 279.432 75.728C281.48 74.6613 283.614 74.128 285.832 74.128C287.752 74.128 289.331 74.5333 290.568 75.344C291.848 76.112 292.83 77.136 293.512 78.416C294.238 79.6533 294.75 81.0613 295.048 82.64C295.347 84.2187 295.496 85.7973 295.496 87.376ZM271.176 107.472C271.176 107.941 271.262 108.432 271.432 108.944C271.603 109.456 271.838 109.904 272.136 110.288C272.435 110.672 272.798 111.013 273.224 111.312C273.694 111.568 274.184 111.696 274.696 111.696C276.616 111.696 278.323 111.035 279.816 109.712C281.31 108.389 282.547 106.768 283.528 104.848C284.51 102.928 285.256 100.88 285.768 98.704C286.323 96.528 286.6 94.544 286.6 92.752C286.6 92.24 286.558 91.6853 286.472 91.088C286.43 90.4907 286.302 89.936 286.088 89.424C285.918 88.912 285.619 88.4853 285.192 88.144C284.808 87.76 284.275 87.568 283.592 87.568C282.227 87.568 280.968 87.9093 279.816 88.592C278.664 89.2747 277.619 90.192 276.68 91.344C275.784 92.4533 274.995 93.7333 274.312 95.184C273.63 96.592 273.032 98.0427 272.52 99.536C272.051 100.987 271.71 102.416 271.496 103.824C271.283 105.232 271.176 106.448 271.176 107.472ZM291.475 122.064C292.627 116.389 293.736 110.843 294.803 105.424C295.187 103.12 295.613 100.731 296.083 98.256C296.552 95.7387 296.979 93.264 297.363 90.832C297.789 88.3573 298.173 85.9893 298.515 83.728C298.899 81.424 299.197 79.3333 299.411 77.456C301.843 76.688 304.467 76.1333 307.283 75.792C310.099 75.408 312.893 75.216 315.667 75.216C317.331 75.216 318.696 75.408 319.763 75.792C320.872 76.176 321.725 76.7307 322.323 77.456C322.963 78.1387 323.411 78.9493 323.667 79.888C323.923 80.8267 324.051 81.872 324.051 83.024C324.051 84.7307 323.752 86.416 323.155 88.08C322.557 89.7013 321.747 91.2587 320.723 92.752C319.741 94.2027 318.589 95.5467 317.267 96.784C315.987 97.9787 314.6 98.96 313.107 99.728C313.875 101.435 314.685 103.312 315.539 105.36C316.435 107.365 317.267 109.285 318.035 111.12C318.888 113.253 319.763 115.387 320.659 117.52L310.739 120.976C309.885 118.245 309.117 115.685 308.435 113.296C308.136 112.315 307.837 111.312 307.539 110.288C307.24 109.221 306.963 108.219 306.707 107.28C306.451 106.341 306.237 105.509 306.067 104.784C305.896 104.016 305.789 103.397 305.747 102.928L304.915 103.184C304.659 104.549 304.339 106.149 303.955 107.984C303.613 109.819 303.293 111.589 302.995 113.296C302.611 115.301 302.227 117.328 301.843 119.376L291.475 122.064ZM306.515 94.288C307.325 94.2027 308.307 93.8613 309.459 93.264C310.653 92.6667 311.784 91.9627 312.851 91.152C313.917 90.2987 314.835 89.424 315.603 88.528C316.371 87.632 316.755 86.8427 316.755 86.16C316.755 85.6907 316.605 85.328 316.307 85.072C316.008 84.7733 315.581 84.56 315.027 84.432C314.515 84.2613 313.939 84.1547 313.299 84.112C312.659 84.0693 311.997 84.048 311.315 84.048C310.845 84.048 310.355 84.0693 309.843 84.112C309.373 84.112 308.947 84.112 308.563 84.112L306.515 94.288ZM320.168 122.064L328.552 76.56L348.776 74.832C348.478 75.7707 348.222 76.7307 348.008 77.712C347.795 78.5227 347.582 79.376 347.368 80.272C347.198 81.1253 347.048 81.8933 346.92 82.576C346.494 82.6187 345.875 82.6613 345.064 82.704C344.296 82.704 343.464 82.7253 342.568 82.768C341.672 82.768 340.755 82.768 339.816 82.768C338.92 82.768 338.131 82.768 337.448 82.768L335.208 94.224C336.531 94.1387 337.768 94.0747 338.92 94.032C339.859 93.9893 340.819 93.968 341.8 93.968C342.782 93.968 343.507 93.9467 343.976 93.904C343.806 95.0987 343.635 96.272 343.464 97.424C343.336 98.576 343.166 99.7493 342.952 100.944C342.526 100.987 341.822 101.029 340.84 101.072C339.902 101.072 338.942 101.093 337.96 101.136C336.851 101.179 335.635 101.221 334.312 101.264L332.136 113.04L341.48 111.568L340.84 118.864L320.168 122.064ZM354.481 122.064L362.865 76.56L383.089 74.832C382.79 75.7707 382.534 76.7307 382.321 77.712C382.107 78.5227 381.894 79.376 381.681 80.272C381.51 81.1253 381.361 81.8933 381.233 82.576C380.806 82.6187 380.187 82.6613 379.377 82.704C378.609 82.704 377.777 82.7253 376.881 82.768C375.985 82.768 375.067 82.768 374.129 82.768C373.233 82.768 372.443 82.768 371.761 82.768L369.521 94.224C370.843 94.1387 372.081 94.0747 373.233 94.032C374.171 93.9893 375.131 93.968 376.113 93.968C377.094 93.968 377.819 93.9467 378.289 93.904C378.118 95.0987 377.947 96.272 377.777 97.424C377.649 98.576 377.478 99.7493 377.265 100.944C376.838 100.987 376.134 101.029 375.153 101.072C374.214 101.072 373.254 101.093 372.273 101.136C371.163 101.179 369.947 101.221 368.625 101.264L366.449 113.04L375.793 111.568L375.153 118.864L354.481 122.064ZM379.557 122.576C380.112 116.603 380.624 110.736 381.093 104.976C381.307 102.587 381.499 100.069 381.669 97.424C381.883 94.7787 382.053 92.176 382.181 89.616C382.352 87.0133 382.48 84.5173 382.565 82.128C382.651 79.696 382.715 77.4773 382.757 75.472C383.781 75.472 384.869 75.4507 386.021 75.408C387.216 75.3653 388.283 75.3227 389.221 75.28C390.203 75.2373 391.035 75.1947 391.717 75.152C392.4 75.0667 392.741 75.024 392.741 75.024C392.272 79.9733 391.867 84.048 391.525 87.248C391.184 90.4053 390.907 92.9867 390.693 94.992C390.523 96.9547 390.352 98.8533 390.181 100.688C390.053 102.523 389.904 104.229 389.733 105.808C389.563 107.387 389.413 108.731 389.285 109.84H390.437L397.605 75.792C398.757 75.7493 399.931 75.6853 401.125 75.6C402.192 75.5147 403.301 75.4507 404.453 75.408C405.648 75.3653 406.736 75.28 407.717 75.152C407.12 77.0293 406.501 79.0987 405.861 81.36C405.264 83.6213 404.624 85.968 403.941 88.4C403.301 90.832 402.661 93.3067 402.021 95.824C401.424 98.3413 400.827 100.773 400.229 103.12C398.864 108.624 397.499 114.277 396.133 120.08L379.557 122.576ZM400.543 122.064L408.927 76.56L429.151 74.832C428.853 75.7707 428.597 76.7307 428.383 77.712C428.17 78.5227 427.957 79.376 427.743 80.272C427.573 81.1253 427.423 81.8933 427.295 82.576C426.869 82.6187 426.25 82.6613 425.439 82.704C424.671 82.704 423.839 82.7253 422.943 82.768C422.047 82.768 421.13 82.768 420.191 82.768C419.295 82.768 418.506 82.768 417.823 82.768L415.583 94.224C416.906 94.1387 418.143 94.0747 419.295 94.032C420.234 93.9893 421.194 93.968 422.175 93.968C423.157 93.968 423.882 93.9467 424.351 93.904C424.181 95.0987 424.01 96.272 423.839 97.424C423.711 98.576 423.541 99.7493 423.327 100.944C422.901 100.987 422.197 101.029 421.215 101.072C420.277 101.072 419.317 101.093 418.335 101.136C417.226 101.179 416.01 101.221 414.687 101.264L412.511 113.04L421.855 111.568L421.215 118.864L400.543 122.064ZM422.164 122.32C423.444 116.176 424.66 110.224 425.812 104.464C426.238 101.989 426.686 99.4293 427.156 96.784C427.668 94.1387 428.137 91.536 428.564 88.976C428.99 86.3733 429.374 83.8987 429.716 81.552C430.057 79.1627 430.313 77.008 430.484 75.088C431.038 75.1307 431.508 75.152 431.892 75.152C432.276 75.152 432.724 75.152 433.236 75.152C433.833 75.152 434.558 75.152 435.412 75.152C436.265 75.1093 437.118 75.0667 437.972 75.024C438.825 74.9813 439.742 74.9387 440.724 74.896C441.321 77.8827 441.854 80.7627 442.324 83.536C442.793 85.968 443.262 88.464 443.732 91.024C444.244 93.584 444.692 95.76 445.076 97.552C445.246 96.6987 445.438 95.7173 445.652 94.608C445.865 93.456 446.1 92.2613 446.356 91.024C446.612 89.7867 446.846 88.5493 447.06 87.312C447.316 86.032 447.572 84.7733 447.828 83.536C448.425 80.7627 449.044 77.904 449.684 74.96L457.492 74C456.041 80.528 454.761 86.7147 453.652 92.56C453.14 95.0773 452.628 97.6373 452.116 100.24C451.646 102.8 451.198 105.275 450.772 107.664C450.345 110.011 449.982 112.208 449.684 114.256C449.385 116.261 449.15 117.947 448.98 119.312C448.852 119.312 448.34 119.419 447.444 119.632C446.59 119.803 445.588 120.016 444.436 120.272C443.326 120.528 442.196 120.784 441.044 121.04C439.934 121.296 439.102 121.531 438.548 121.744C438.292 118.331 438.014 115.088 437.716 112.016C437.588 110.693 437.438 109.349 437.268 107.984C437.14 106.576 436.99 105.232 436.82 103.952C436.649 102.672 436.478 101.477 436.308 100.368C436.137 99.2587 435.966 98.2987 435.796 97.488C435.668 98.2987 435.497 99.2373 435.284 100.304C435.07 101.371 434.857 102.501 434.644 103.696C434.43 104.891 434.217 106.149 434.004 107.472C433.79 108.752 433.556 109.989 433.3 111.184C432.745 114.043 432.148 117.029 431.508 120.144L422.164 122.32ZM456.541 122.064C457.523 117.371 458.461 112.741 459.357 108.176C459.741 106.256 460.125 104.251 460.509 102.16C460.893 100.069 461.256 98.0213 461.597 96.016C461.981 93.968 462.301 92.0053 462.557 90.128C462.856 88.208 463.112 86.4587 463.325 84.88C462.344 84.752 461.341 84.7093 460.317 84.752C459.336 84.7947 458.355 84.6667 457.373 84.368C457.416 83.6853 457.437 82.896 457.437 82C457.437 81.104 457.459 80.208 457.501 79.312C457.544 78.3307 457.587 77.2853 457.629 76.176C458.739 76.2613 459.848 76.3253 460.957 76.368C462.067 76.4107 463.176 76.432 464.285 76.432C466.461 76.432 468.552 76.3893 470.557 76.304C472.605 76.176 474.483 76.048 476.189 75.92C477.939 75.7493 479.645 75.5573 481.309 75.344L480.605 78.8C480.392 79.7813 480.179 80.784 479.965 81.808C479.795 82.832 479.624 83.7067 479.453 84.432C478.515 84.688 477.555 84.88 476.573 85.008C475.635 85.0933 474.696 85.2213 473.757 85.392C473.459 86.8427 473.139 88.464 472.797 90.256C472.456 92.0053 472.115 93.84 471.773 95.76C471.475 97.6373 471.176 99.5573 470.877 101.52C470.579 103.483 470.28 105.36 469.981 107.152C469.299 111.376 468.659 115.749 468.061 120.272L456.541 122.064ZM143.734 176.24C142.71 178.587 141.558 180.635 140.278 182.384C139.041 184.091 137.718 185.541 136.31 186.736C134.945 187.888 133.558 188.741 132.15 189.296C130.742 189.851 129.377 190.128 128.054 190.128C126.732 190.128 125.516 189.829 124.406 189.232C123.34 188.635 122.401 187.739 121.59 186.544C120.78 185.349 120.118 183.877 119.606 182.128C119.137 180.379 118.902 178.331 118.902 175.984C118.902 171.973 119.457 168.027 120.566 164.144C121.676 160.219 123.233 156.699 125.238 153.584C127.244 150.469 129.612 147.973 132.342 146.096C135.116 144.176 138.166 143.216 141.494 143.216C142.518 143.216 143.5 143.429 144.438 143.856C145.377 144.283 146.188 144.88 146.87 145.648C147.553 146.416 148.086 147.355 148.47 148.464C148.897 149.573 149.11 150.811 149.11 152.176C149.11 152.432 149.11 152.709 149.11 153.008C149.11 153.264 149.089 153.541 149.046 153.84L140.662 156.08C140.15 155.013 139.553 154.48 138.87 154.48C138.188 154.48 137.462 154.885 136.694 155.696C135.969 156.464 135.244 157.488 134.518 158.768C133.793 160.005 133.089 161.413 132.406 162.992C131.724 164.528 131.126 166.085 130.614 167.664C130.102 169.243 129.676 170.757 129.334 172.208C129.036 173.616 128.886 174.768 128.886 175.664C128.886 177.029 129.057 177.989 129.398 178.544C129.782 179.099 130.273 179.376 130.87 179.376C131.34 179.376 131.873 179.205 132.47 178.864C133.068 178.48 133.622 178.011 134.134 177.456C134.646 176.859 135.116 176.197 135.542 175.472C135.969 174.747 136.268 174.021 136.438 173.296L143.734 176.24ZM178.746 155.376C178.746 158.875 178.362 162.181 177.594 165.296C176.869 168.368 175.888 171.205 174.65 173.808C173.413 176.368 171.962 178.672 170.298 180.72C168.677 182.725 166.97 184.453 165.178 185.904C163.386 187.312 161.573 188.4 159.738 189.168C157.904 189.893 156.154 190.256 154.49 190.256C153.082 190.256 151.802 190 150.65 189.488C149.498 188.933 148.496 188.144 147.642 187.12C146.789 186.053 146.106 184.709 145.594 183.088C145.125 181.424 144.89 179.44 144.89 177.136C144.89 174.747 145.189 172.229 145.786 169.584C146.384 166.939 147.194 164.315 148.218 161.712C149.242 159.109 150.501 156.635 151.994 154.288C153.488 151.941 155.13 149.872 156.922 148.08C158.714 146.245 160.634 144.795 162.682 143.728C164.73 142.661 166.864 142.128 169.082 142.128C171.002 142.128 172.581 142.533 173.818 143.344C175.098 144.112 176.08 145.136 176.762 146.416C177.488 147.653 178 149.061 178.298 150.64C178.597 152.219 178.746 153.797 178.746 155.376ZM154.426 175.472C154.426 175.941 154.512 176.432 154.682 176.944C154.853 177.456 155.088 177.904 155.386 178.288C155.685 178.672 156.048 179.013 156.474 179.312C156.944 179.568 157.434 179.696 157.946 179.696C159.866 179.696 161.573 179.035 163.066 177.712C164.56 176.389 165.797 174.768 166.778 172.848C167.76 170.928 168.506 168.88 169.018 166.704C169.573 164.528 169.85 162.544 169.85 160.752C169.85 160.24 169.808 159.685 169.722 159.088C169.68 158.491 169.552 157.936 169.338 157.424C169.168 156.912 168.869 156.485 168.442 156.144C168.058 155.76 167.525 155.568 166.842 155.568C165.477 155.568 164.218 155.909 163.066 156.592C161.914 157.275 160.869 158.192 159.93 159.344C159.034 160.453 158.245 161.733 157.562 163.184C156.88 164.592 156.282 166.043 155.77 167.536C155.301 168.987 154.96 170.416 154.746 171.824C154.533 173.232 154.426 174.448 154.426 175.472ZM172.549 189.616C174.426 183.941 176.218 178.373 177.925 172.912C178.65 170.608 179.397 168.197 180.165 165.68C180.933 163.163 181.701 160.667 182.469 158.192C183.237 155.717 183.941 153.328 184.581 151.024C185.263 148.72 185.861 146.587 186.373 144.624C188.719 144.624 190.938 144.496 193.029 144.24C195.119 143.984 197.381 143.749 199.813 143.536C199.685 144.475 199.535 145.541 199.365 146.736C199.237 147.888 199.066 149.104 198.853 150.384C198.682 151.664 198.49 152.987 198.277 154.352C198.063 155.717 197.807 157.467 197.509 159.6C197.21 161.733 196.805 164.4 196.293 167.6H197.125C198.362 164.357 199.386 161.669 200.197 159.536C201.007 157.36 201.669 155.589 202.181 154.224C202.693 152.859 203.205 151.536 203.717 150.256C204.271 148.933 204.783 147.696 205.253 146.544C205.765 145.349 206.234 144.304 206.661 143.408C207.727 143.323 208.73 143.216 209.669 143.088C210.607 142.96 211.546 142.832 212.485 142.704C213.423 142.533 214.362 142.384 215.301 142.256C216.282 142.085 217.349 141.893 218.501 141.68C218.074 144.155 217.669 146.693 217.285 149.296C216.901 151.899 216.559 154.501 216.261 157.104C215.962 159.664 215.663 162.203 215.365 164.72C215.109 167.237 214.874 169.627 214.661 171.888C214.149 177.179 213.701 182.341 213.317 187.376L202.181 189.36C202.181 189.147 202.202 188.571 202.245 187.632C202.33 186.693 202.415 185.541 202.501 184.176C202.629 182.811 202.778 181.296 202.949 179.632C203.162 177.968 203.354 176.304 203.525 174.64C203.738 172.976 203.951 171.376 204.165 169.84C204.378 168.261 204.591 166.917 204.805 165.808H204.229C203.631 167.6 202.97 169.499 202.245 171.504C201.519 173.467 200.773 175.472 200.005 177.52C199.279 179.568 198.554 181.573 197.829 183.536C197.103 185.499 196.463 187.376 195.909 189.168C194.415 189.211 193.135 189.275 192.069 189.36C191.002 189.403 189.765 189.467 188.357 189.552L190.405 165.808H189.445C189.359 166.363 189.146 167.301 188.805 168.624C188.463 169.904 188.058 171.397 187.589 173.104C187.162 174.768 186.693 176.517 186.181 178.352C185.669 180.144 185.178 181.829 184.709 183.408C184.282 184.944 183.919 186.224 183.621 187.248C183.322 188.229 183.151 188.784 183.109 188.912L172.549 189.616ZM224.974 188.72C224.59 188.72 223.822 188.784 222.67 188.912C221.56 188.997 220.408 189.125 219.214 189.296C218.019 189.424 216.931 189.552 215.95 189.68C215.011 189.808 214.499 189.893 214.414 189.936C214.84 188.101 215.267 186.075 215.694 183.856C216.163 181.595 216.632 179.248 217.102 176.816C217.571 174.341 218.019 171.845 218.446 169.328C218.872 166.811 219.278 164.379 219.662 162.032C220.558 156.571 221.454 150.96 222.35 145.2L232.334 143.6C231.352 149.317 230.392 154.928 229.454 160.432C229.07 162.779 228.664 165.211 228.238 167.728C227.854 170.245 227.448 172.741 227.022 175.216C226.638 177.691 226.275 180.101 225.934 182.448C225.592 184.752 225.272 186.843 224.974 188.72ZM227.351 190.32C228.631 184.176 229.847 178.224 230.999 172.464C231.426 169.989 231.874 167.429 232.343 164.784C232.855 162.139 233.325 159.536 233.751 156.976C234.178 154.373 234.562 151.899 234.903 149.552C235.245 147.163 235.501 145.008 235.671 143.088C236.226 143.131 236.695 143.152 237.079 143.152C237.463 143.152 237.911 143.152 238.423 143.152C239.021 143.152 239.746 143.152 240.599 143.152C241.453 143.109 242.306 143.067 243.159 143.024C244.013 142.981 244.93 142.939 245.911 142.896C246.509 145.883 247.042 148.763 247.511 151.536C247.981 153.968 248.45 156.464 248.919 159.024C249.431 161.584 249.879 163.76 250.263 165.552C250.434 164.699 250.626 163.717 250.839 162.608C251.053 161.456 251.287 160.261 251.543 159.024C251.799 157.787 252.034 156.549 252.247 155.312C252.503 154.032 252.759 152.773 253.015 151.536C253.613 148.763 254.231 145.904 254.871 142.96L262.679 142C261.229 148.528 259.949 154.715 258.839 160.56C258.327 163.077 257.815 165.637 257.303 168.24C256.834 170.8 256.386 173.275 255.959 175.664C255.533 178.011 255.17 180.208 254.871 182.256C254.573 184.261 254.338 185.947 254.167 187.312C254.039 187.312 253.527 187.419 252.631 187.632C251.778 187.803 250.775 188.016 249.623 188.272C248.514 188.528 247.383 188.784 246.231 189.04C245.122 189.296 244.29 189.531 243.735 189.744C243.479 186.331 243.202 183.088 242.903 180.016C242.775 178.693 242.626 177.349 242.455 175.984C242.327 174.576 242.178 173.232 242.007 171.952C241.837 170.672 241.666 169.477 241.495 168.368C241.325 167.259 241.154 166.299 240.983 165.488C240.855 166.299 240.685 167.237 240.471 168.304C240.258 169.371 240.045 170.501 239.831 171.696C239.618 172.891 239.405 174.149 239.191 175.472C238.978 176.752 238.743 177.989 238.487 179.184C237.933 182.043 237.335 185.029 236.695 188.144L227.351 190.32ZM290.785 165.616C290.486 169.968 289.633 173.765 288.225 177.008C286.817 180.208 285.11 182.896 283.105 185.072C281.142 187.248 279.009 188.869 276.705 189.936C274.443 191.003 272.289 191.536 270.241 191.536C268.662 191.536 267.147 191.195 265.697 190.512C264.289 189.829 263.051 188.805 261.985 187.44C260.961 186.032 260.15 184.283 259.553 182.192C258.955 180.101 258.657 177.648 258.657 174.832C258.657 169.328 259.446 164.528 261.025 160.432C262.603 156.336 264.587 152.923 266.977 150.192C269.409 147.461 271.99 145.435 274.721 144.112C277.494 142.789 280.075 142.128 282.465 142.128C284.171 142.128 285.643 142.427 286.881 143.024C288.161 143.621 289.206 144.432 290.017 145.456C290.827 146.437 291.403 147.611 291.745 148.976C292.129 150.299 292.321 151.707 292.321 153.2L283.553 154.864C283.169 153.157 282.657 151.941 282.017 151.216C281.377 150.491 280.651 150.128 279.841 150.128C278.774 150.128 277.601 150.896 276.321 152.432C275.041 153.925 273.846 155.867 272.737 158.256C271.627 160.645 270.689 163.269 269.921 166.128C269.153 168.987 268.726 171.803 268.641 174.576C268.641 177.221 269.025 179.12 269.793 180.272C270.603 181.381 271.627 181.936 272.865 181.936C273.718 181.936 274.593 181.723 275.489 181.296C276.427 180.869 277.259 180.272 277.985 179.504C278.71 178.693 279.307 177.776 279.777 176.752C280.289 175.685 280.566 174.533 280.609 173.296L273.761 174.32L274.977 167.984C276.982 167.728 278.945 167.472 280.865 167.216C282.486 167.003 284.193 166.747 285.985 166.448C287.819 166.149 289.419 165.872 290.785 165.616ZM328.758 174.192C328.758 176.581 328.289 178.757 327.35 180.72C326.454 182.64 325.217 184.304 323.638 185.712C322.102 187.12 320.268 188.208 318.134 188.976C316.044 189.744 313.782 190.128 311.35 190.128C309.644 190.128 307.937 189.68 306.23 188.784C304.524 187.845 302.881 186.373 301.302 184.368L306.038 175.088C306.337 175.643 306.785 176.219 307.382 176.816C307.98 177.371 308.641 177.861 309.366 178.288C310.134 178.715 310.881 179.077 311.606 179.376C312.374 179.632 313.057 179.76 313.654 179.76C314.166 179.76 314.7 179.675 315.254 179.504C315.809 179.333 316.321 179.077 316.79 178.736C317.26 178.395 317.622 178.011 317.878 177.584C318.177 177.115 318.326 176.581 318.326 175.984C318.326 174.96 317.985 174.021 317.302 173.168C316.662 172.272 315.852 171.44 314.87 170.672C313.889 169.861 312.822 169.051 311.67 168.24C310.518 167.429 309.452 166.576 308.47 165.68C307.532 164.784 306.721 163.781 306.038 162.672C305.356 161.563 305.014 160.325 305.014 158.96C305.014 156.741 305.676 154.672 306.998 152.752C308.321 150.832 309.964 149.189 311.926 147.824C313.932 146.416 316.108 145.307 318.454 144.496C320.801 143.685 323.02 143.28 325.11 143.28C326.262 143.28 327.35 143.429 328.374 143.728C329.398 143.984 330.273 144.432 330.998 145.072C331.766 145.669 332.364 146.437 332.79 147.376C333.26 148.315 333.494 149.488 333.494 150.896C333.494 151.493 333.43 152.091 333.302 152.688C333.217 153.285 333.132 153.925 333.046 154.608L323.766 157.296C323.852 156.955 323.916 156.613 323.958 156.272C324.044 155.931 324.086 155.589 324.086 155.248C324.086 153.968 323.852 153.051 323.382 152.496C322.956 151.899 322.38 151.6 321.654 151.6C321.313 151.6 320.886 151.728 320.374 151.984C319.905 152.24 319.414 152.581 318.902 153.008C318.433 153.392 318.028 153.861 317.686 154.416C317.345 154.971 317.174 155.568 317.174 156.208C317.174 157.232 317.452 158.085 318.006 158.768C318.604 159.451 319.329 160.091 320.182 160.688C321.036 161.285 321.953 161.904 322.934 162.544C323.958 163.141 324.897 163.931 325.75 164.912C326.604 165.893 327.308 167.131 327.862 168.624C328.46 170.075 328.758 171.931 328.758 174.192ZM363.746 155.376C363.746 158.875 363.362 162.181 362.594 165.296C361.869 168.368 360.888 171.205 359.65 173.808C358.413 176.368 356.962 178.672 355.298 180.72C353.677 182.725 351.97 184.453 350.178 185.904C348.386 187.312 346.573 188.4 344.738 189.168C342.904 189.893 341.154 190.256 339.49 190.256C338.082 190.256 336.802 190 335.65 189.488C334.498 188.933 333.496 188.144 332.642 187.12C331.789 186.053 331.106 184.709 330.594 183.088C330.125 181.424 329.89 179.44 329.89 177.136C329.89 174.747 330.189 172.229 330.786 169.584C331.384 166.939 332.194 164.315 333.218 161.712C334.242 159.109 335.501 156.635 336.994 154.288C338.488 151.941 340.13 149.872 341.922 148.08C343.714 146.245 345.634 144.795 347.682 143.728C349.73 142.661 351.864 142.128 354.082 142.128C356.002 142.128 357.581 142.533 358.818 143.344C360.098 144.112 361.08 145.136 361.762 146.416C362.488 147.653 363 149.061 363.298 150.64C363.597 152.219 363.746 153.797 363.746 155.376ZM339.426 175.472C339.426 175.941 339.512 176.432 339.682 176.944C339.853 177.456 340.088 177.904 340.386 178.288C340.685 178.672 341.048 179.013 341.474 179.312C341.944 179.568 342.434 179.696 342.946 179.696C344.866 179.696 346.573 179.035 348.066 177.712C349.56 176.389 350.797 174.768 351.778 172.848C352.76 170.928 353.506 168.88 354.018 166.704C354.573 164.528 354.85 162.544 354.85 160.752C354.85 160.24 354.808 159.685 354.722 159.088C354.68 158.491 354.552 157.936 354.338 157.424C354.168 156.912 353.869 156.485 353.442 156.144C353.058 155.76 352.525 155.568 351.842 155.568C350.477 155.568 349.218 155.909 348.066 156.592C346.914 157.275 345.869 158.192 344.93 159.344C344.034 160.453 343.245 161.733 342.562 163.184C341.88 164.592 341.282 166.043 340.77 167.536C340.301 168.987 339.96 170.416 339.746 171.824C339.533 173.232 339.426 174.448 339.426 175.472ZM395.309 155.376C395.309 158.875 394.925 162.181 394.157 165.296C393.431 168.368 392.45 171.205 391.213 173.808C389.975 176.368 388.525 178.672 386.861 180.72C385.239 182.725 383.533 184.453 381.741 185.904C379.949 187.312 378.135 188.4 376.301 189.168C374.466 189.893 372.717 190.256 371.053 190.256C369.645 190.256 368.365 190 367.213 189.488C366.061 188.933 365.058 188.144 364.205 187.12C363.351 186.053 362.669 184.709 362.157 183.088C361.687 181.424 361.453 179.44 361.453 177.136C361.453 174.747 361.751 172.229 362.349 169.584C362.946 166.939 363.757 164.315 364.781 161.712C365.805 159.109 367.063 156.635 368.557 154.288C370.05 151.941 371.693 149.872 373.485 148.08C375.277 146.245 377.197 144.795 379.245 143.728C381.293 142.661 383.426 142.128 385.645 142.128C387.565 142.128 389.143 142.533 390.381 143.344C391.661 144.112 392.642 145.136 393.325 146.416C394.05 147.653 394.562 149.061 394.861 150.64C395.159 152.219 395.309 153.797 395.309 155.376ZM370.989 175.472C370.989 175.941 371.074 176.432 371.245 176.944C371.415 177.456 371.65 177.904 371.949 178.288C372.247 178.672 372.61 179.013 373.037 179.312C373.506 179.568 373.997 179.696 374.509 179.696C376.429 179.696 378.135 179.035 379.629 177.712C381.122 176.389 382.359 174.768 383.341 172.848C384.322 170.928 385.069 168.88 385.581 166.704C386.135 164.528 386.413 162.544 386.413 160.752C386.413 160.24 386.37 159.685 386.285 159.088C386.242 158.491 386.114 157.936 385.901 157.424C385.73 156.912 385.431 156.485 385.005 156.144C384.621 155.76 384.087 155.568 383.405 155.568C382.039 155.568 380.781 155.909 379.629 156.592C378.477 157.275 377.431 158.192 376.493 159.344C375.597 160.453 374.807 161.733 374.125 163.184C373.442 164.592 372.845 166.043 372.333 167.536C371.863 168.987 371.522 170.416 371.309 171.824C371.095 173.232 370.989 174.448 370.989 175.472ZM426.871 155.376C426.871 158.875 426.487 162.181 425.719 165.296C424.994 168.368 424.013 171.205 422.775 173.808C421.538 176.368 420.087 178.672 418.423 180.72C416.802 182.725 415.095 184.453 413.303 185.904C411.511 187.312 409.698 188.4 407.863 189.168C406.029 189.893 404.279 190.256 402.615 190.256C401.207 190.256 399.927 190 398.775 189.488C397.623 188.933 396.621 188.144 395.767 187.12C394.914 186.053 394.231 184.709 393.719 183.088C393.25 181.424 393.015 179.44 393.015 177.136C393.015 174.747 393.314 172.229 393.911 169.584C394.509 166.939 395.319 164.315 396.343 161.712C397.367 159.109 398.626 156.635 400.119 154.288C401.613 151.941 403.255 149.872 405.047 148.08C406.839 146.245 408.759 144.795 410.807 143.728C412.855 142.661 414.989 142.128 417.207 142.128C419.127 142.128 420.706 142.533 421.943 143.344C423.223 144.112 424.205 145.136 424.887 146.416C425.613 147.653 426.125 149.061 426.423 150.64C426.722 152.219 426.871 153.797 426.871 155.376ZM402.551 175.472C402.551 175.941 402.637 176.432 402.807 176.944C402.978 177.456 403.213 177.904 403.511 178.288C403.81 178.672 404.173 179.013 404.599 179.312C405.069 179.568 405.559 179.696 406.071 179.696C407.991 179.696 409.698 179.035 411.191 177.712C412.685 176.389 413.922 174.768 414.903 172.848C415.885 170.928 416.631 168.88 417.143 166.704C417.698 164.528 417.975 162.544 417.975 160.752C417.975 160.24 417.933 159.685 417.847 159.088C417.805 158.491 417.677 157.936 417.463 157.424C417.293 156.912 416.994 156.485 416.567 156.144C416.183 155.76 415.65 155.568 414.967 155.568C413.602 155.568 412.343 155.909 411.191 156.592C410.039 157.275 408.994 158.192 408.055 159.344C407.159 160.453 406.37 161.733 405.687 163.184C405.005 164.592 404.407 166.043 403.895 167.536C403.426 168.987 403.085 170.416 402.871 171.824C402.658 173.232 402.551 174.448 402.551 175.472ZM458.434 155.376C458.434 158.875 458.05 162.181 457.282 165.296C456.556 168.368 455.575 171.205 454.338 173.808C453.1 176.368 451.65 178.672 449.986 180.72C448.364 182.725 446.658 184.453 444.866 185.904C443.074 187.312 441.26 188.4 439.426 189.168C437.591 189.893 435.842 190.256 434.178 190.256C432.77 190.256 431.49 190 430.338 189.488C429.186 188.933 428.183 188.144 427.33 187.12C426.476 186.053 425.794 184.709 425.282 183.088C424.812 181.424 424.578 179.44 424.578 177.136C424.578 174.747 424.876 172.229 425.474 169.584C426.071 166.939 426.882 164.315 427.906 161.712C428.93 159.109 430.188 156.635 431.682 154.288C433.175 151.941 434.818 149.872 436.61 148.08C438.402 146.245 440.322 144.795 442.37 143.728C444.418 142.661 446.551 142.128 448.77 142.128C450.69 142.128 452.268 142.533 453.506 143.344C454.786 144.112 455.767 145.136 456.45 146.416C457.175 147.653 457.687 149.061 457.986 150.64C458.284 152.219 458.434 153.797 458.434 155.376ZM434.114 175.472C434.114 175.941 434.199 176.432 434.37 176.944C434.54 177.456 434.775 177.904 435.074 178.288C435.372 178.672 435.735 179.013 436.162 179.312C436.631 179.568 437.122 179.696 437.634 179.696C439.554 179.696 441.26 179.035 442.754 177.712C444.247 176.389 445.484 174.768 446.466 172.848C447.447 170.928 448.194 168.88 448.706 166.704C449.26 164.528 449.538 162.544 449.538 160.752C449.538 160.24 449.495 159.685 449.41 159.088C449.367 158.491 449.239 157.936 449.026 157.424C448.855 156.912 448.556 156.485 448.13 156.144C447.746 155.76 447.212 155.568 446.53 155.568C445.164 155.568 443.906 155.909 442.754 156.592C441.602 157.275 440.556 158.192 439.618 159.344C438.722 160.453 437.932 161.733 437.25 163.184C436.567 164.592 435.97 166.043 435.458 167.536C434.988 168.987 434.647 170.416 434.434 171.824C434.22 173.232 434.114 174.448 434.114 175.472ZM489.996 155.376C489.996 158.875 489.612 162.181 488.844 165.296C488.119 168.368 487.138 171.205 485.9 173.808C484.663 176.368 483.212 178.672 481.548 180.72C479.927 182.725 478.22 184.453 476.428 185.904C474.636 187.312 472.823 188.4 470.988 189.168C469.154 189.893 467.404 190.256 465.74 190.256C464.332 190.256 463.052 190 461.9 189.488C460.748 188.933 459.746 188.144 458.892 187.12C458.039 186.053 457.356 184.709 456.844 183.088C456.375 181.424 456.14 179.44 456.14 177.136C456.14 174.747 456.439 172.229 457.036 169.584C457.634 166.939 458.444 164.315 459.468 161.712C460.492 159.109 461.751 156.635 463.244 154.288C464.738 151.941 466.38 149.872 468.172 148.08C469.964 146.245 471.884 144.795 473.932 143.728C475.98 142.661 478.114 142.128 480.332 142.128C482.252 142.128 483.831 142.533 485.068 143.344C486.348 144.112 487.33 145.136 488.012 146.416C488.738 147.653 489.25 149.061 489.548 150.64C489.847 152.219 489.996 153.797 489.996 155.376ZM465.676 175.472C465.676 175.941 465.762 176.432 465.932 176.944C466.103 177.456 466.338 177.904 466.636 178.288C466.935 178.672 467.298 179.013 467.724 179.312C468.194 179.568 468.684 179.696 469.196 179.696C471.116 179.696 472.823 179.035 474.316 177.712C475.81 176.389 477.047 174.768 478.028 172.848C479.01 170.928 479.756 168.88 480.268 166.704C480.823 164.528 481.1 162.544 481.1 160.752C481.1 160.24 481.058 159.685 480.972 159.088C480.93 158.491 480.802 157.936 480.588 157.424C480.418 156.912 480.119 156.485 479.692 156.144C479.308 155.76 478.775 155.568 478.092 155.568C476.727 155.568 475.468 155.909 474.316 156.592C473.164 157.275 472.119 158.192 471.18 159.344C470.284 160.453 469.495 161.733 468.812 163.184C468.13 164.592 467.532 166.043 467.02 167.536C466.551 168.987 466.21 170.416 465.996 171.824C465.783 173.232 465.676 174.448 465.676 175.472ZM486.039 190.32C487.319 184.176 488.535 178.224 489.687 172.464C490.113 169.989 490.561 167.429 491.031 164.784C491.543 162.139 492.012 159.536 492.439 156.976C492.865 154.373 493.249 151.899 493.591 149.552C493.932 147.163 494.188 145.008 494.359 143.088C494.913 143.131 495.383 143.152 495.767 143.152C496.151 143.152 496.599 143.152 497.111 143.152C497.708 143.152 498.433 143.152 499.287 143.152C500.14 143.109 500.993 143.067 501.847 143.024C502.7 142.981 503.617 142.939 504.599 142.896C505.196 145.883 505.729 148.763 506.199 151.536C506.668 153.968 507.137 156.464 507.607 159.024C508.119 161.584 508.567 163.76 508.951 165.552C509.121 164.699 509.313 163.717 509.527 162.608C509.74 161.456 509.975 160.261 510.231 159.024C510.487 157.787 510.721 156.549 510.935 155.312C511.191 154.032 511.447 152.773 511.703 151.536C512.3 148.763 512.919 145.904 513.559 142.96L521.367 142C519.916 148.528 518.636 154.715 517.527 160.56C517.015 163.077 516.503 165.637 515.991 168.24C515.521 170.8 515.073 173.275 514.647 175.664C514.22 178.011 513.857 180.208 513.559 182.256C513.26 184.261 513.025 185.947 512.855 187.312C512.727 187.312 512.215 187.419 511.319 187.632C510.465 187.803 509.463 188.016 508.311 188.272C507.201 188.528 506.071 188.784 504.919 189.04C503.809 189.296 502.977 189.531 502.423 189.744C502.167 186.331 501.889 183.088 501.591 180.016C501.463 178.693 501.313 177.349 501.143 175.984C501.015 174.576 500.865 173.232 500.695 171.952C500.524 170.672 500.353 169.477 500.183 168.368C500.012 167.259 499.841 166.299 499.671 165.488C499.543 166.299 499.372 167.237 499.159 168.304C498.945 169.371 498.732 170.501 498.519 171.696C498.305 172.891 498.092 174.149 497.879 175.472C497.665 176.752 497.431 177.989 497.175 179.184C496.62 182.043 496.023 185.029 495.383 188.144L486.039 190.32ZM540.084 174.832C538.847 174.832 537.61 174.875 536.372 174.96C535.135 175.045 533.898 175.131 532.66 175.216C533.983 169.968 535.263 164.741 536.5 159.536C537.78 154.331 539.103 149.104 540.468 143.856C541.279 143.728 542.196 143.6 543.22 143.472C544.287 143.344 545.354 143.195 546.42 143.024C547.487 142.853 548.511 142.704 549.492 142.576C550.516 142.448 551.37 142.32 552.052 142.192C549.748 147.568 547.636 152.987 545.716 158.448C543.839 163.867 541.962 169.328 540.084 174.832ZM540.724 184.88C540.724 185.691 540.532 186.501 540.148 187.312C539.807 188.123 539.295 188.848 538.612 189.488C537.93 190.085 537.076 190.555 536.052 190.896C535.028 191.28 533.855 191.472 532.532 191.472C531.636 191.472 530.826 191.301 530.1 190.96C529.375 190.619 528.778 190.171 528.308 189.616C527.882 189.019 527.54 188.357 527.284 187.632C527.028 186.907 526.9 186.181 526.9 185.456C526.9 184.645 527.028 183.877 527.284 183.152C527.54 182.384 527.924 181.723 528.436 181.168C528.991 180.571 529.652 180.08 530.42 179.696C531.231 179.312 532.191 179.12 533.3 179.12C535.775 179.12 537.631 179.717 538.868 180.912C540.106 182.064 540.724 183.387 540.724 184.88ZM556.897 174.832C555.659 174.832 554.422 174.875 553.185 174.96C551.947 175.045 550.71 175.131 549.473 175.216C550.795 169.968 552.075 164.741 553.313 159.536C554.593 154.331 555.915 149.104 557.281 143.856C558.091 143.728 559.009 143.6 560.033 143.472C561.099 143.344 562.166 143.195 563.233 143.024C564.299 142.853 565.323 142.704 566.305 142.576C567.329 142.448 568.182 142.32 568.865 142.192C566.561 147.568 564.449 152.987 562.529 158.448C560.651 163.867 558.774 169.328 556.897 174.832ZM557.537 184.88C557.537 185.691 557.345 186.501 556.961 187.312C556.619 188.123 556.107 188.848 555.425 189.488C554.742 190.085 553.889 190.555 552.865 190.896C551.841 191.28 550.667 191.472 549.345 191.472C548.449 191.472 547.638 191.301 546.913 190.96C546.187 190.619 545.59 190.171 545.121 189.616C544.694 189.019 544.353 188.357 544.097 187.632C543.841 186.907 543.713 186.181 543.713 185.456C543.713 184.645 543.841 183.877 544.097 183.152C544.353 182.384 544.737 181.723 545.249 181.168C545.803 180.571 546.465 180.08 547.233 179.696C548.043 179.312 549.003 179.12 550.113 179.12C552.587 179.12 554.443 179.717 555.681 180.912C556.918 182.064 557.537 183.387 557.537 184.88ZM573.709 174.832C572.472 174.832 571.235 174.875 569.997 174.96C568.76 175.045 567.523 175.131 566.285 175.216C567.608 169.968 568.888 164.741 570.125 159.536C571.405 154.331 572.728 149.104 574.093 143.856C574.904 143.728 575.821 143.6 576.845 143.472C577.912 143.344 578.979 143.195 580.045 143.024C581.112 142.853 582.136 142.704 583.117 142.576C584.141 142.448 584.995 142.32 585.677 142.192C583.373 147.568 581.261 152.987 579.341 158.448C577.464 163.867 575.587 169.328 573.709 174.832ZM574.349 184.88C574.349 185.691 574.157 186.501 573.773 187.312C573.432 188.123 572.92 188.848 572.237 189.488C571.555 190.085 570.701 190.555 569.677 190.896C568.653 191.28 567.48 191.472 566.157 191.472C565.261 191.472 564.451 191.301 563.725 190.96C563 190.619 562.403 190.171 561.933 189.616C561.507 189.019 561.165 188.357 560.909 187.632C560.653 186.907 560.525 186.181 560.525 185.456C560.525 184.645 560.653 183.877 560.909 183.152C561.165 182.384 561.549 181.723 562.061 181.168C562.616 180.571 563.277 180.08 564.045 179.696C564.856 179.312 565.816 179.12 566.925 179.12C569.4 179.12 571.256 179.717 572.493 180.912C573.731 182.064 574.349 183.387 574.349 184.88Z" fill="#00ADB5"/>
</svg>
