<svg width="1214" height="329" viewBox="0 0 1214 329" fill="none" xmlns="http://www.w3.org/2000/svg">
<path d="M0 80C0 35.8172 35.8172 0 80 0H1199C1207.28 0 1214 6.71573 1214 15V237C1214 286.706 1173.71 327 1124 327H15C6.71575 327 0 320.284 0 312V80Z" fill="#00ADB5"/>
<g clip-path="url(#clip0)">
<path d="M552.908 327.299C552.908 327.299 563.894 234.788 524.511 206.865C490.217 182.544 461.704 167.794 403.672 166.08C345.639 164.365 313.827 164.44 279.092 126.243C244.356 88.0459 197.378 30.3145 145.008 28.5095C94.4629 26.7655 63.624 42.7335 34.9116 154.916C6.19926 267.098 36.3023 324.93 37.2454 325.857C37.8962 326.522 552.908 327.299 552.908 327.299Z" fill="#366A80"/>
<path d="M317.17 254.773C313.88 216.286 325.611 159.92 311.725 152.117C298.018 144.426 293.346 141.913 279.101 126.242C244.375 88.0361 197.425 30.3047 145.008 28.5092C94.4628 26.7652 63.624 42.7332 34.9116 154.915C20.5554 211.006 21.4898 240.617 22.957 258.312C22.957 268 24.5588 280.719 25.0304 281.178C25.6812 281.843 319.898 286.735 317.17 254.773Z" fill="#E9EDFC"/>
<path d="M430.5 46L533.99 333.25H327.01L430.5 46Z" fill="white" fill-opacity="0.1"/>
<path d="M434.054 130.198L438.729 325.723C438.732 327.122 434.969 326.672 434.028 326.675L428.384 326.69L428.73 130.531L395.115 131.559L409.495 49.2067C409.855 47.14 410.933 45.2658 412.539 43.9136C414.146 42.5614 416.179 41.8176 418.28 41.813L441.476 41.7516C444.163 41.7372 446.769 42.6671 448.837 44.3784C450.906 46.0896 452.305 48.4731 452.789 51.1108L467.209 129.5L434.054 130.198Z" fill="#E1E6FC"/>
<path d="M492.338 280.439C492.338 280.439 492.565 288.099 491.27 288.957C490.713 289.395 490.074 289.716 489.391 289.901L483.021 324.723C483.021 324.723 464.086 328.21 454.603 324.367L448.05 290.001L445.894 289.143L445.006 280.554C445.006 280.554 468.209 272.766 492.338 280.439Z" fill="#E1E6FC"/>
<path d="M490.19 289.674C490.19 289.674 464.798 291.685 461.795 290.838C458.792 289.992 459.62 283.107 459.62 283.107L447.135 281.854C447.135 281.854 447.154 289.159 448.022 290.02C448.979 291.162 449.713 292.472 450.186 293.883C450.187 294.315 455.432 324.853 455.432 324.853C455.432 324.853 463.619 326.118 464.908 326.114C466.197 326.111 461.398 300.82 461.394 299.045C461.389 297.271 461.38 293.891 462.669 293.887C463.957 293.884 488.858 294.56 489.001 291.79C489.201 290.991 489.612 290.261 490.19 289.674Z" fill="#00ADB5"/>
<path d="M480.171 282.076C480.171 282.076 487.241 277.091 491.002 276.63C494.763 276.169 499.126 275.67 502.887 275.077C506.648 274.485 511.441 272.792 511.341 270.595C511.241 268.398 510.787 267.348 508.573 266.049C506.706 264.843 504.593 264.069 502.387 263.784C500.731 263.638 483.755 268.086 476.7 278.63L473.887 282.093L480.171 282.076Z" fill="#00ADB5"/>
<path d="M504.661 269.73C504.661 269.73 498.151 269.663 494.589 270.827C491.805 271.875 489.106 273.138 486.519 274.604L475.881 282.041" fill="#00ADB5"/>
<path d="M504.661 269.73C504.661 269.73 498.151 269.663 494.589 270.827C491.805 271.875 489.106 273.138 486.519 274.604L475.881 282.041" stroke="#005FA4" stroke-width="0.379526" stroke-miterlimit="10" stroke-linecap="round"/>
<path d="M472.711 281.805C472.711 281.805 480.921 270.61 484.12 267.456C487.32 264.302 491.063 260.696 494.149 257.402C497.235 254.108 501.126 249.384 499.475 247.454C497.824 245.525 496.645 244.213 493.645 244.653C491.3 244.909 489.055 245.745 487.114 247.083C485.462 248.158 470.534 262.441 468.385 278.812L466.24 282.132L472.711 281.805Z" fill="#00ADB5"/>
<path d="M491.988 251.23C491.988 251.23 485.583 255.078 483.072 258.765C480.701 262.208 476.946 268.367 476.946 268.367L472.697 280.106" stroke="#005FA4" stroke-width="0.379526" stroke-miterlimit="10" stroke-linecap="round"/>
<path d="M468.592 282.37C468.592 282.37 478.16 261.491 479.946 257.365C481.731 253.238 489.061 247.013 490.677 242.802C492.293 238.591 493.32 235.528 491.593 233.223C489.865 230.918 485.439 229.014 482.621 230.43C479.962 231.732 476.511 235.685 475.03 237.689C473.849 239.269 466.051 267.617 466.718 274.15L465.235 282.52L468.592 282.37Z" fill="#E9EDFC"/>
<path d="M485.425 238.103C485.425 238.103 479.923 245.215 478.259 249.388C476.391 254.088 474.533 263.041 474.774 261.604L469.078 280.988" stroke="#005FA4" stroke-width="0.379526" stroke-miterlimit="10" stroke-linecap="round"/>
<path d="M473.869 282.197C473.869 282.197 482.309 272.532 486.433 270.652C490.558 268.773 495.246 266.648 499.276 264.628C503.306 262.608 508.141 259.187 507.317 257.142C506.494 255.098 505.654 254.274 502.737 253.897C500.189 253.473 497.582 253.55 495.062 254.123C493.182 254.617 475.527 265.329 471.017 278.007L468.931 282.379L473.869 282.197Z" fill="#E9EDFC"/>
<path d="M499.515 258.909C499.515 258.909 492.194 261.332 488.56 263.802C485.793 265.834 483.172 268.056 480.714 270.451L472.618 282.284" stroke="#005FA4" stroke-width="0.379526" stroke-miterlimit="10" stroke-linecap="round"/>
<path d="M451.727 282.471C451.727 282.471 444.048 277.797 439.974 277.329C435.9 276.861 431.186 276.469 427.102 275.908C423.019 275.346 417.832 273.773 417.929 271.669C418.027 269.566 418.504 268.56 420.9 267.305C422.956 266.13 425.229 265.383 427.582 265.109C429.378 264.963 447.769 269.111 455.462 279.119L458.565 282.415L451.727 282.471Z" fill="#00ADB5"/>
<path d="M425.179 270.824C425.179 270.824 432.215 270.721 436.084 271.818C439.084 272.789 442.011 273.974 444.841 275.363L455.084 282.19" fill="#00ADB5"/>
<path d="M425.179 270.824C425.179 270.824 432.215 270.721 436.084 271.818C439.084 272.789 442.011 273.974 444.841 275.363L455.084 282.19" stroke="#005FA4" stroke-width="0.379526" stroke-miterlimit="10" stroke-linecap="round"/>
<path d="M459.806 282.177C459.806 282.177 450.87 271.535 447.382 268.54C443.894 265.544 439.84 262.119 436.473 258.992C433.107 255.865 428.881 251.378 430.663 249.515C432.446 247.651 433.703 246.399 436.958 246.784C439.46 247.003 441.881 247.783 444.038 249.066C445.837 250.075 462.062 263.647 464.473 279.264L466.805 282.422L459.806 282.177Z" fill="#00ADB5"/>
<path d="M438.772 253.098C438.772 253.098 445.723 256.732 448.46 260.208C451.046 263.488 455.135 269.345 455.135 269.345L459.802 280.525" stroke="#005FA4" stroke-width="0.379526" stroke-miterlimit="10" stroke-linecap="round"/>
<path d="M464.247 282.701C464.247 282.701 453.782 262.814 451.834 258.876C449.886 254.938 441.912 249.062 440.143 245.03C438.373 240.997 437.246 238.089 439.084 235.888C440.921 233.686 445.723 231.833 448.774 233.139C451.656 234.371 455.372 238.126 457.023 240.028C458.306 241.536 466.9 268.554 466.221 274.809L467.869 282.794L464.247 282.701Z" fill="#E9EDFC"/>
<path d="M465.253 282.444C465.253 282.444 464.364 263.011 462.363 256.707C461.007 252.532 459.671 245.447 457.902 241.462C456.132 237.476 458.818 232.22 460.618 230.009C462.418 227.798 467.198 228.208 470.286 229.505C473.168 230.736 474.834 234.741 475.207 236.881C475.541 238.833 468.69 262.296 469.446 270.866L468.884 282.547L465.253 282.444Z" fill="#00ADB5"/>
<path d="M445.803 240.545C445.803 240.545 451.794 247.308 453.62 251.275C455.682 255.767 457.746 264.296 457.413 262.889L464.226 281.837" stroke="#005FA4" stroke-width="0.379526" stroke-miterlimit="10" stroke-linecap="round"/>
<path d="M458.547 282.565C458.547 282.565 449.314 273.379 444.888 271.607C440.462 269.835 435.331 267.877 430.961 265.926C426.591 263.975 421.343 260.778 422.222 258.823C423.101 256.867 424.012 256.076 427.162 255.702C429.92 255.284 432.73 255.343 435.468 255.877C437.539 256.341 456.66 266.468 461.612 278.558L463.89 282.72L458.547 282.565Z" fill="#E9EDFC"/>
<path d="M430.664 260.453C430.664 260.453 438.6 262.723 442.538 265.06C445.52 266.967 448.37 269.074 451.067 271.366L460.067 281.275" stroke="#005FA4" stroke-width="0.379526" stroke-miterlimit="10" stroke-linecap="round"/>
<path d="M467.024 233.663C467.024 233.663 465.469 250.314 466.412 254.79C466.803 256.667 466.646 268.376 466.646 268.376L467.066 281.341" stroke="#005FA4" stroke-width="0.379526" stroke-miterlimit="10" stroke-linecap="round"/>
<path d="M466.379 125.118L396.578 126.589L395.162 131.541L467.219 129.482L466.379 125.118Z" fill="#366A80"/>
<path d="M123.203 138.129L124.139 275.029L37.0367 275.494C37.0367 275.494 36.2156 203.397 39.485 134.341L123.01 132.871L123.203 138.129Z" fill="#BAC4F6"/>
<path d="M205.207 155.61L207.837 275.127L133.386 275.324L133.596 155.8L205.207 155.61Z" fill="#BAC4F6"/>
<path d="M313.509 225.46L206.504 226.297L207.837 275.126L313.235 274.81L313.509 225.46Z" fill="#BAC4F6"/>
<path d="M322.14 156.54L322.191 275.078C322.191 275.078 321.561 282.534 314.423 282.872C307.284 283.21 25 284 25 284C25 284 23.3524 276.225 24.3204 275.894C25.2884 275.563 313.235 274.81 313.235 274.81C313.235 274.81 313.139 270.614 313.132 267.928C313.124 264.943 312.987 152.827 312.987 152.827C315.907 154.367 318.973 155.611 322.14 156.54Z" fill="#00ADB5"/>
<path d="M315.963 168.33L31.2474 170.783L29.7587 176.946L315.988 177.559L315.963 168.33Z" fill="#00ADB5"/>
<path d="M235.379 76.2395L235.906 275.259L228.392 275.861L227.85 71.0673L235.379 76.2395Z" fill="#00ADB5"/>
<path d="M99.2955 36.5546L100.098 275.618L93.1543 275.064L91.4536 41.2418L99.2955 36.5546Z" fill="#00ADB5"/>
<path d="M227.85 71.0667L65.3583 72.4826L70.0109 64.0671L218.584 63.5987L227.85 71.0667Z" fill="#00ADB5"/>
<path d="M200.563 110.339C191.44 110.363 184.026 103.001 184.001 93.8954C183.977 84.7898 191.353 77.3887 200.475 77.3645C209.598 77.3404 217.012 84.7024 217.036 93.808C217.061 102.914 209.685 110.315 200.563 110.339Z" fill="white"/>
<path d="M184.486 110.006C178.507 110.021 173.647 105.196 173.631 99.2274C173.615 93.259 178.449 88.4078 184.429 88.3919C190.408 88.3761 195.268 93.2017 195.284 99.1701C195.3 105.139 190.465 109.99 184.486 110.006Z" fill="white"/>
<path d="M75.3019 126.191C66.0081 126.215 58.4541 118.715 58.4295 109.438C58.4049 100.162 65.9192 92.6214 75.213 92.5968C84.5068 92.5722 92.0608 100.073 92.0854 109.349C92.1099 118.626 84.5957 126.166 75.3019 126.191Z" fill="white"/>
<path d="M58.0824 131.037C51.9939 131.053 47.0452 126.14 47.0291 120.062C47.013 113.985 51.9357 109.045 58.0242 109.029C64.1127 109.013 69.0614 113.927 69.0775 120.004C69.0936 126.081 64.1709 131.021 58.0824 131.037Z" fill="white"/>
</g>
<path d="M996.944 230.904C975.344 219.432 929.552 215.784 915.104 215.352C910.496 215.208 905.84 215.16 901.232 215.16C870.512 215.16 842.144 218.328 842.192 224.424C842.192 225.72 844.736 227.208 848.528 227.496C847.616 227.064 847.04 226.68 847.04 226.248C847.232 222.12 871.04 217.416 905.696 217.416C909.584 217.416 913.616 217.464 917.792 217.608C942.416 218.376 978.656 223.128 996.944 230.904Z" fill="#BEEBE9"/>
<g filter="url(#filter0_d)">
<path d="M565.8 157.4C563.853 157.4 562.133 157.133 560.64 156.6C559.147 156.04 557.72 155.147 556.36 153.92C555.8 153.44 555.52 152.893 555.52 152.28C555.52 151.8 555.707 151.373 556.08 151C556.453 150.6 556.893 150.4 557.4 150.4C557.853 150.4 558.24 150.547 558.56 150.84C559.627 151.827 560.72 152.56 561.84 153.04C562.987 153.493 564.28 153.72 565.72 153.72C567.4 153.72 568.813 153.333 569.96 152.56C571.133 151.787 571.72 150.813 571.72 149.64C571.693 148.253 571.107 147.187 569.96 146.44C568.84 145.667 567.12 145.027 564.8 144.52C562.053 143.96 559.933 143.04 558.44 141.76C556.973 140.48 556.24 138.707 556.24 136.44C556.24 134.867 556.653 133.493 557.48 132.32C558.307 131.12 559.453 130.2 560.92 129.56C562.387 128.92 564.04 128.6 565.88 128.6C567.533 128.6 569.093 128.867 570.56 129.4C572.027 129.933 573.213 130.64 574.12 131.52C574.733 132.053 575.04 132.627 575.04 133.24C575.04 133.72 574.853 134.147 574.48 134.52C574.133 134.893 573.707 135.08 573.2 135.08C572.827 135.08 572.52 134.973 572.28 134.76C571.587 134.067 570.627 133.48 569.4 133C568.173 132.52 567 132.28 565.88 132.28C564.093 132.28 562.667 132.653 561.6 133.4C560.56 134.12 560.04 135.08 560.04 136.28C560.04 137.587 560.56 138.587 561.6 139.28C562.667 139.973 564.24 140.56 566.32 141.04C568.4 141.493 570.093 142.027 571.4 142.64C572.733 143.253 573.76 144.107 574.48 145.2C575.2 146.293 575.56 147.72 575.56 149.48C575.56 151.027 575.12 152.4 574.24 153.6C573.387 154.8 572.213 155.733 570.72 156.4C569.227 157.067 567.587 157.4 565.8 157.4ZM590.561 135.68C595.255 135.68 597.601 138.587 597.601 144.4V155.08C597.601 155.613 597.415 156.067 597.041 156.44C596.695 156.813 596.241 157 595.681 157C595.148 157 594.695 156.813 594.321 156.44C593.975 156.067 593.801 155.613 593.801 155.08V144.4C593.801 140.933 592.335 139.2 589.401 139.2C587.828 139.2 586.521 139.707 585.481 140.72C584.441 141.707 583.921 142.933 583.921 144.4V155.08C583.921 155.613 583.735 156.067 583.361 156.44C583.015 156.813 582.561 157 582.001 157C581.441 157 580.988 156.827 580.641 156.48C580.295 156.107 580.121 155.64 580.121 155.08V129.32C580.121 128.787 580.295 128.333 580.641 127.96C581.015 127.587 581.468 127.4 582.001 127.4C582.561 127.4 583.015 127.587 583.361 127.96C583.735 128.333 583.921 128.787 583.921 129.32V139.44C584.588 138.4 585.521 137.52 586.721 136.8C587.921 136.053 589.201 135.68 590.561 135.68ZM623.125 146.52C623.125 148.6 622.659 150.467 621.725 152.12C620.792 153.773 619.512 155.067 617.885 156C616.285 156.933 614.512 157.4 612.565 157.4C610.619 157.4 608.832 156.933 607.205 156C605.605 155.067 604.339 153.773 603.405 152.12C602.472 150.467 602.005 148.6 602.005 146.52C602.005 144.44 602.472 142.56 603.405 140.88C604.339 139.2 605.605 137.893 607.205 136.96C608.832 136.027 610.619 135.56 612.565 135.56C614.512 135.56 616.285 136.027 617.885 136.96C619.512 137.893 620.792 139.2 621.725 140.88C622.659 142.56 623.125 144.44 623.125 146.52ZM619.325 146.52C619.325 145.08 619.019 143.8 618.405 142.68C617.819 141.533 617.005 140.653 615.965 140.04C614.952 139.4 613.819 139.08 612.565 139.08C611.312 139.08 610.165 139.4 609.125 140.04C608.112 140.653 607.299 141.533 606.685 142.68C606.099 143.8 605.805 145.08 605.805 146.52C605.805 147.933 606.099 149.2 606.685 150.32C607.299 151.44 608.112 152.32 609.125 152.96C610.165 153.573 611.312 153.88 612.565 153.88C613.819 153.88 614.952 153.573 615.965 152.96C617.005 152.32 617.819 151.44 618.405 150.32C619.019 149.2 619.325 147.933 619.325 146.52ZM638.063 135.68C639.876 135.68 641.516 136.147 642.983 137.08C644.45 137.987 645.596 139.267 646.423 140.92C647.276 142.573 647.703 144.44 647.703 146.52C647.703 148.6 647.276 150.467 646.423 152.12C645.596 153.747 644.45 155.027 642.983 155.96C641.516 156.893 639.903 157.36 638.143 157.36C636.756 157.36 635.463 157.053 634.263 156.44C633.063 155.827 632.09 155.08 631.343 154.2V163.08C631.343 163.613 631.156 164.067 630.783 164.44C630.436 164.813 629.983 165 629.423 165C628.89 165 628.436 164.813 628.063 164.44C627.716 164.093 627.543 163.64 627.543 163.08V137.92C627.543 137.36 627.716 136.893 628.063 136.52C628.41 136.147 628.863 135.96 629.423 135.96C629.983 135.96 630.436 136.147 630.783 136.52C631.156 136.893 631.343 137.36 631.343 137.92V139.08C631.983 138.147 632.916 137.347 634.143 136.68C635.37 136.013 636.676 135.68 638.063 135.68ZM637.623 153.84C638.85 153.84 639.956 153.52 640.943 152.88C641.93 152.24 642.69 151.373 643.223 150.28C643.783 149.16 644.063 147.907 644.063 146.52C644.063 145.133 643.783 143.893 643.223 142.8C642.69 141.68 641.93 140.8 640.943 140.16C639.956 139.52 638.85 139.2 637.623 139.2C636.37 139.2 635.25 139.52 634.263 140.16C633.276 140.773 632.503 141.64 631.943 142.76C631.41 143.88 631.143 145.133 631.143 146.52C631.143 147.907 631.41 149.16 631.943 150.28C632.503 151.4 633.276 152.28 634.263 152.92C635.25 153.533 636.37 153.84 637.623 153.84ZM662.633 135.68C664.447 135.68 666.087 136.147 667.553 137.08C669.02 137.987 670.167 139.267 670.993 140.92C671.847 142.573 672.273 144.44 672.273 146.52C672.273 148.6 671.847 150.467 670.993 152.12C670.167 153.747 669.02 155.027 667.553 155.96C666.087 156.893 664.473 157.36 662.713 157.36C661.327 157.36 660.033 157.053 658.833 156.44C657.633 155.827 656.66 155.08 655.913 154.2V163.08C655.913 163.613 655.727 164.067 655.353 164.44C655.007 164.813 654.553 165 653.993 165C653.46 165 653.007 164.813 652.633 164.44C652.287 164.093 652.113 163.64 652.113 163.08V137.92C652.113 137.36 652.287 136.893 652.633 136.52C652.98 136.147 653.433 135.96 653.993 135.96C654.553 135.96 655.007 136.147 655.353 136.52C655.727 136.893 655.913 137.36 655.913 137.92V139.08C656.553 138.147 657.487 137.347 658.713 136.68C659.94 136.013 661.247 135.68 662.633 135.68ZM662.193 153.84C663.42 153.84 664.527 153.52 665.513 152.88C666.5 152.24 667.26 151.373 667.793 150.28C668.353 149.16 668.633 147.907 668.633 146.52C668.633 145.133 668.353 143.893 667.793 142.8C667.26 141.68 666.5 140.8 665.513 140.16C664.527 139.52 663.42 139.2 662.193 139.2C660.94 139.2 659.82 139.52 658.833 140.16C657.847 140.773 657.073 141.64 656.513 142.76C655.98 143.88 655.713 145.133 655.713 146.52C655.713 147.907 655.98 149.16 656.513 150.28C657.073 151.4 657.847 152.28 658.833 152.92C659.82 153.533 660.94 153.84 662.193 153.84ZM680.284 155.08C680.284 155.613 680.097 156.067 679.724 156.44C679.377 156.813 678.924 157 678.364 157C677.83 157 677.377 156.813 677.004 156.44C676.657 156.067 676.484 155.613 676.484 155.08V137.76C676.484 137.227 676.657 136.773 677.004 136.4C677.377 136.027 677.83 135.84 678.364 135.84C678.924 135.84 679.377 136.027 679.724 136.4C680.097 136.773 680.284 137.227 680.284 137.76V155.08ZM678.364 133.2C677.59 133.2 677.03 133.067 676.684 132.8C676.364 132.507 676.204 132.053 676.204 131.44V130.8C676.204 130.16 676.377 129.707 676.724 129.44C677.097 129.173 677.657 129.04 678.404 129.04C679.15 129.04 679.684 129.187 680.004 129.48C680.35 129.747 680.524 130.187 680.524 130.8V131.44C680.524 132.08 680.35 132.533 680.004 132.8C679.657 133.067 679.11 133.2 678.364 133.2ZM696.426 135.56C701.226 135.56 703.626 138.44 703.626 144.2V155.08C703.626 155.613 703.44 156.067 703.066 156.44C702.72 156.813 702.266 157 701.706 157C701.173 157 700.72 156.813 700.346 156.44C700 156.067 699.826 155.613 699.826 155.08V144.24C699.826 142.667 699.466 141.413 698.746 140.48C698.026 139.547 696.853 139.08 695.226 139.08C694.16 139.08 693.186 139.32 692.306 139.8C691.453 140.253 690.773 140.88 690.266 141.68C689.786 142.453 689.546 143.307 689.546 144.24V155.08C689.546 155.613 689.36 156.067 688.986 156.44C688.64 156.813 688.186 157 687.626 157C687.066 157 686.613 156.827 686.266 156.48C685.92 156.107 685.746 155.64 685.746 155.08V137.96C685.746 137.427 685.92 136.973 686.266 136.6C686.64 136.227 687.093 136.04 687.626 136.04C688.186 136.04 688.64 136.227 688.986 136.6C689.36 136.973 689.546 137.427 689.546 137.96V139.36C690.24 138.293 691.2 137.4 692.426 136.68C693.68 135.933 695.013 135.56 696.426 135.56ZM726.821 135.76C727.381 135.76 727.834 135.947 728.181 136.32C728.554 136.667 728.741 137.133 728.741 137.72V155.32C728.741 157.48 728.274 159.28 727.341 160.72C726.434 162.187 725.194 163.267 723.621 163.96C722.048 164.653 720.274 165 718.301 165C717.234 165 715.981 164.813 714.541 164.44C713.128 164.067 712.221 163.68 711.821 163.28C710.994 162.853 710.581 162.32 710.581 161.68C710.581 161.52 710.634 161.307 710.741 161.04C711.034 160.373 711.528 160.04 712.221 160.04C712.568 160.04 712.941 160.12 713.341 160.28C715.474 161.107 717.141 161.52 718.341 161.52C720.474 161.52 722.101 161 723.221 159.96C724.368 158.947 724.941 157.547 724.941 155.76V153.6C724.381 154.64 723.434 155.533 722.101 156.28C720.794 157.027 719.408 157.4 717.941 157.4C716.101 157.4 714.421 156.933 712.901 156C711.381 155.067 710.181 153.773 709.301 152.12C708.448 150.44 708.021 148.56 708.021 146.48C708.021 144.4 708.448 142.533 709.301 140.88C710.181 139.2 711.368 137.893 712.861 136.96C714.381 136.027 716.048 135.56 717.861 135.56C719.328 135.56 720.688 135.893 721.941 136.56C723.221 137.227 724.221 138.04 724.941 139V137.72C724.941 137.16 725.114 136.693 725.461 136.32C725.808 135.947 726.261 135.76 726.821 135.76ZM718.381 153.88C719.688 153.88 720.848 153.573 721.861 152.96C722.874 152.32 723.661 151.44 724.221 150.32C724.808 149.173 725.101 147.893 725.101 146.48C725.101 145.067 724.808 143.8 724.221 142.68C723.661 141.56 722.874 140.68 721.861 140.04C720.848 139.4 719.688 139.08 718.381 139.08C717.101 139.08 715.954 139.4 714.941 140.04C713.928 140.68 713.128 141.573 712.541 142.72C711.981 143.84 711.701 145.093 711.701 146.48C711.701 147.867 711.981 149.133 712.541 150.28C713.128 151.4 713.928 152.28 714.941 152.92C715.954 153.56 717.101 153.88 718.381 153.88ZM769.953 135.84C770.459 135.84 770.886 136.027 771.233 136.4C771.606 136.747 771.793 137.2 771.793 137.76C771.793 137.947 771.739 138.2 771.633 138.52L765.513 155.8C765.353 156.227 765.086 156.547 764.713 156.76C764.339 156.973 763.939 157.053 763.513 157C762.793 156.947 762.246 156.547 761.873 155.8L757.713 144.92L753.873 155.8C753.713 156.173 753.486 156.467 753.193 156.68C752.899 156.867 752.579 156.973 752.233 157C751.833 157.053 751.433 156.973 751.033 156.76C750.659 156.52 750.406 156.2 750.273 155.8L744.073 138.52C743.993 138.28 743.953 138.027 743.953 137.76C743.953 137.227 744.126 136.773 744.473 136.4C744.819 136.027 745.273 135.84 745.833 135.84C746.739 135.84 747.326 136.24 747.593 137.04L752.353 150.52L756.153 140.56C756.473 139.76 757.059 139.36 757.913 139.36C758.713 139.36 759.259 139.76 759.553 140.56L763.433 150.36L768.113 137.04C768.406 136.24 769.019 135.84 769.953 135.84ZM779.503 155.08C779.503 155.613 779.316 156.067 778.942 156.44C778.596 156.813 778.143 157 777.583 157C777.049 157 776.596 156.813 776.223 156.44C775.876 156.067 775.702 155.613 775.702 155.08V137.76C775.702 137.227 775.876 136.773 776.223 136.4C776.596 136.027 777.049 135.84 777.583 135.84C778.143 135.84 778.596 136.027 778.942 136.4C779.316 136.773 779.503 137.227 779.503 137.76V155.08ZM777.583 133.2C776.809 133.2 776.249 133.067 775.903 132.8C775.583 132.507 775.423 132.053 775.423 131.44V130.8C775.423 130.16 775.596 129.707 775.943 129.44C776.316 129.173 776.876 129.04 777.623 129.04C778.369 129.04 778.903 129.187 779.223 129.48C779.569 129.747 779.743 130.187 779.743 130.8V131.44C779.743 132.08 779.569 132.533 779.223 132.8C778.876 133.067 778.329 133.2 777.583 133.2ZM790.645 139.76V151.68C790.645 153.013 791.245 153.68 792.445 153.68C792.632 153.68 792.885 153.64 793.205 153.56C793.525 153.453 793.778 153.4 793.965 153.4C794.312 153.4 794.605 153.547 794.845 153.84C795.085 154.133 795.205 154.507 795.205 154.96C795.205 155.52 794.885 156 794.245 156.4C793.605 156.8 792.885 157 792.085 157C791.205 157 790.392 156.907 789.645 156.72C788.925 156.533 788.272 156.067 787.685 155.32C787.125 154.547 786.845 153.387 786.845 151.84V139.76H784.525C784.018 139.76 783.592 139.6 783.245 139.28C782.925 138.933 782.765 138.507 782.765 138C782.765 137.493 782.925 137.08 783.245 136.76C783.592 136.44 784.018 136.28 784.525 136.28H786.845V132.92C786.845 132.387 787.018 131.933 787.365 131.56C787.738 131.187 788.205 131 788.765 131C789.298 131 789.738 131.187 790.085 131.56C790.458 131.933 790.645 132.387 790.645 132.92V136.28H793.965C794.472 136.28 794.885 136.453 795.205 136.8C795.552 137.12 795.725 137.533 795.725 138.04C795.725 138.547 795.552 138.96 795.205 139.28C794.885 139.6 794.472 139.76 793.965 139.76H790.645ZM810.6 135.68C815.294 135.68 817.64 138.587 817.64 144.4V155.08C817.64 155.613 817.454 156.067 817.08 156.44C816.734 156.813 816.28 157 815.72 157C815.187 157 814.734 156.813 814.36 156.44C814.014 156.067 813.84 155.613 813.84 155.08V144.4C813.84 140.933 812.374 139.2 809.44 139.2C807.867 139.2 806.56 139.707 805.52 140.72C804.48 141.707 803.96 142.933 803.96 144.4V155.08C803.96 155.613 803.774 156.067 803.4 156.44C803.054 156.813 802.6 157 802.04 157C801.48 157 801.027 156.827 800.68 156.48C800.334 156.107 800.16 155.64 800.16 155.08V129.32C800.16 128.787 800.334 128.333 800.68 127.96C801.054 127.587 801.507 127.4 802.04 127.4C802.6 127.4 803.054 127.587 803.4 127.96C803.774 128.333 803.96 128.787 803.96 129.32V139.44C804.627 138.4 805.56 137.52 806.76 136.8C807.96 136.053 809.24 135.68 810.6 135.68ZM845.098 135.56C849.898 135.56 852.298 138.44 852.298 144.2V155.08C852.298 155.613 852.111 156.067 851.738 156.44C851.391 156.813 850.938 157 850.378 157C849.845 157 849.391 156.813 849.018 156.44C848.671 156.067 848.498 155.613 848.498 155.08V144.24C848.498 142.667 848.138 141.413 847.418 140.48C846.698 139.547 845.525 139.08 843.898 139.08C842.831 139.08 841.858 139.32 840.978 139.8C840.125 140.253 839.445 140.88 838.938 141.68C838.458 142.453 838.218 143.307 838.218 144.24V155.08C838.218 155.613 838.031 156.067 837.658 156.44C837.311 156.813 836.858 157 836.298 157C835.738 157 835.285 156.827 834.938 156.48C834.591 156.107 834.418 155.64 834.418 155.08V137.96C834.418 137.427 834.591 136.973 834.938 136.6C835.311 136.227 835.765 136.04 836.298 136.04C836.858 136.04 837.311 136.227 837.658 136.6C838.031 136.973 838.218 137.427 838.218 137.96V139.36C838.911 138.293 839.871 137.4 841.098 136.68C842.351 135.933 843.685 135.56 845.098 135.56ZM877.813 146.52C877.813 148.6 877.346 150.467 876.413 152.12C875.479 153.773 874.199 155.067 872.573 156C870.973 156.933 869.199 157.4 867.253 157.4C865.306 157.4 863.519 156.933 861.893 156C860.293 155.067 859.026 153.773 858.093 152.12C857.159 150.467 856.693 148.6 856.693 146.52C856.693 144.44 857.159 142.56 858.093 140.88C859.026 139.2 860.293 137.893 861.893 136.96C863.519 136.027 865.306 135.56 867.253 135.56C869.199 135.56 870.973 136.027 872.573 136.96C874.199 137.893 875.479 139.2 876.413 140.88C877.346 142.56 877.813 144.44 877.813 146.52ZM874.013 146.52C874.013 145.08 873.706 143.8 873.093 142.68C872.506 141.533 871.693 140.653 870.653 140.04C869.639 139.4 868.506 139.08 867.253 139.08C865.999 139.08 864.853 139.4 863.813 140.04C862.799 140.653 861.986 141.533 861.373 142.68C860.786 143.8 860.493 145.08 860.493 146.52C860.493 147.933 860.786 149.2 861.373 150.32C861.986 151.44 862.799 152.32 863.813 152.96C864.853 153.573 865.999 153.88 867.253 153.88C868.506 153.88 869.639 153.573 870.653 152.96C871.693 152.32 872.506 151.44 873.093 150.32C873.706 149.2 874.013 147.933 874.013 146.52ZM1036.16 144.04C1036.16 143.48 1036.33 143.013 1036.68 142.64C1037.05 142.267 1037.5 142.08 1038.04 142.08C1039.82 142.027 1041.28 141.533 1042.4 140.6C1043.54 139.64 1044.12 138.28 1044.12 136.52C1044.12 135 1043.6 133.747 1042.56 132.76C1041.52 131.747 1040.24 131.24 1038.72 131.24C1037.86 131.24 1037.04 131.427 1036.24 131.8C1035.46 132.147 1034.78 132.627 1034.2 133.24C1033.66 133.72 1033.13 133.96 1032.6 133.96C1032.22 133.96 1031.88 133.84 1031.56 133.6C1030.97 133.173 1030.68 132.68 1030.68 132.12C1030.68 131.64 1030.88 131.2 1031.28 130.8C1032.18 129.76 1033.28 128.947 1034.56 128.36C1035.86 127.773 1037.25 127.48 1038.72 127.48C1040.42 127.48 1041.97 127.867 1043.36 128.64C1044.77 129.413 1045.89 130.493 1046.72 131.88C1047.54 133.24 1047.96 134.787 1047.96 136.52C1047.96 138.12 1047.6 139.547 1046.88 140.8C1046.18 142.027 1045.22 143.027 1044 143.8C1042.77 144.547 1041.38 145 1039.84 145.16C1039.81 145.16 1039.8 145.173 1039.8 145.2C1039.82 145.2 1039.86 145.187 1039.92 145.16V147.8C1039.92 148.333 1039.73 148.787 1039.36 149.16C1039.01 149.533 1038.57 149.72 1038.04 149.72C1037.48 149.72 1037.01 149.533 1036.64 149.16C1036.29 148.787 1036.13 148.333 1036.16 147.8V144.04ZM1037.92 157C1037.28 157 1036.78 156.827 1036.44 156.48C1036.09 156.107 1035.92 155.6 1035.92 154.96V154.2C1035.92 153.56 1036.09 153.067 1036.44 152.72C1036.78 152.347 1037.28 152.16 1037.92 152.16H1038.32C1038.96 152.16 1039.45 152.347 1039.8 152.72C1040.14 153.067 1040.32 153.56 1040.32 154.2V154.96C1040.32 155.6 1040.14 156.107 1039.8 156.48C1039.45 156.827 1038.96 157 1038.32 157H1037.92Z" fill="#393E46"/>
<path d="M917.804 135.84C918.311 135.84 918.738 136.027 919.084 136.4C919.458 136.747 919.644 137.2 919.644 137.76C919.644 137.947 919.591 138.2 919.484 138.52L913.364 155.8C913.204 156.227 912.938 156.547 912.564 156.76C912.191 156.973 911.791 157.053 911.364 157C910.644 156.947 910.098 156.547 909.724 155.8L905.564 144.92L901.724 155.8C901.564 156.173 901.338 156.467 901.044 156.68C900.751 156.867 900.431 156.973 900.084 157C899.684 157.053 899.284 156.973 898.884 156.76C898.511 156.52 898.258 156.2 898.124 155.8L891.924 138.52C891.844 138.28 891.804 138.027 891.804 137.76C891.804 137.227 891.978 136.773 892.324 136.4C892.671 136.027 893.124 135.84 893.684 135.84C894.591 135.84 895.178 136.24 895.444 137.04L900.204 150.52L904.004 140.56C904.324 139.76 904.911 139.36 905.764 139.36C906.564 139.36 907.111 139.76 907.404 140.56L911.284 150.36L915.964 137.04C916.258 136.24 916.871 135.84 917.804 135.84ZM943.594 146.52C943.594 148.6 943.127 150.467 942.194 152.12C941.261 153.773 939.981 155.067 938.354 156C936.754 156.933 934.981 157.4 933.034 157.4C931.087 157.4 929.301 156.933 927.674 156C926.074 155.067 924.807 153.773 923.874 152.12C922.941 150.467 922.474 148.6 922.474 146.52C922.474 144.44 922.941 142.56 923.874 140.88C924.807 139.2 926.074 137.893 927.674 136.96C929.301 136.027 931.087 135.56 933.034 135.56C934.981 135.56 936.754 136.027 938.354 136.96C939.981 137.893 941.261 139.2 942.194 140.88C943.127 142.56 943.594 144.44 943.594 146.52ZM939.794 146.52C939.794 145.08 939.487 143.8 938.874 142.68C938.287 141.533 937.474 140.653 936.434 140.04C935.421 139.4 934.287 139.08 933.034 139.08C931.781 139.08 930.634 139.4 929.594 140.04C928.581 140.653 927.767 141.533 927.154 142.68C926.567 143.8 926.274 145.08 926.274 146.52C926.274 147.933 926.567 149.2 927.154 150.32C927.767 151.44 928.581 152.32 929.594 152.96C930.634 153.573 931.781 153.88 933.034 153.88C934.287 153.88 935.421 153.573 936.434 152.96C937.474 152.32 938.287 151.44 938.874 150.32C939.487 149.2 939.794 147.933 939.794 146.52ZM958.452 135.56C959.145 135.56 959.745 135.747 960.252 136.12C960.759 136.467 961.012 136.907 961.012 137.44C961.012 138.08 960.839 138.573 960.492 138.92C960.172 139.24 959.772 139.4 959.292 139.4C959.052 139.4 958.692 139.32 958.212 139.16C957.652 138.973 957.212 138.88 956.892 138.88C956.065 138.88 955.252 139.173 954.452 139.76C953.679 140.32 953.039 141.107 952.532 142.12C952.052 143.107 951.812 144.213 951.812 145.44V155.08C951.812 155.613 951.625 156.067 951.252 156.44C950.905 156.813 950.452 157 949.892 157C949.332 157 948.879 156.827 948.532 156.48C948.185 156.107 948.012 155.64 948.012 155.08V137.96C948.012 137.427 948.185 136.973 948.532 136.6C948.905 136.227 949.359 136.04 949.892 136.04C950.452 136.04 950.905 136.227 951.252 136.6C951.625 136.973 951.812 137.427 951.812 137.96V140C952.399 138.693 953.279 137.64 954.452 136.84C955.625 136.013 956.959 135.587 958.452 135.56ZM974.975 135.56C975.669 135.56 976.269 135.747 976.775 136.12C977.282 136.467 977.535 136.907 977.535 137.44C977.535 138.08 977.362 138.573 977.015 138.92C976.695 139.24 976.295 139.4 975.815 139.4C975.575 139.4 975.215 139.32 974.735 139.16C974.175 138.973 973.735 138.88 973.415 138.88C972.589 138.88 971.775 139.173 970.975 139.76C970.202 140.32 969.562 141.107 969.055 142.12C968.575 143.107 968.335 144.213 968.335 145.44V155.08C968.335 155.613 968.149 156.067 967.775 156.44C967.429 156.813 966.975 157 966.415 157C965.855 157 965.402 156.827 965.055 156.48C964.709 156.107 964.535 155.64 964.535 155.08V137.96C964.535 137.427 964.709 136.973 965.055 136.6C965.429 136.227 965.882 136.04 966.415 136.04C966.975 136.04 967.429 136.227 967.775 136.6C968.149 136.973 968.335 137.427 968.335 137.96V140C968.922 138.693 969.802 137.64 970.975 136.84C972.149 136.013 973.482 135.587 974.975 135.56ZM984.659 155.08C984.659 155.613 984.472 156.067 984.099 156.44C983.752 156.813 983.299 157 982.739 157C982.205 157 981.752 156.813 981.379 156.44C981.032 156.067 980.859 155.613 980.859 155.08V137.76C980.859 137.227 981.032 136.773 981.379 136.4C981.752 136.027 982.205 135.84 982.739 135.84C983.299 135.84 983.752 136.027 984.099 136.4C984.472 136.773 984.659 137.227 984.659 137.76V155.08ZM982.739 133.2C981.965 133.2 981.405 133.067 981.059 132.8C980.739 132.507 980.579 132.053 980.579 131.44V130.8C980.579 130.16 980.752 129.707 981.099 129.44C981.472 129.173 982.032 129.04 982.779 129.04C983.525 129.04 984.059 129.187 984.379 129.48C984.725 129.747 984.899 130.187 984.899 130.8V131.44C984.899 132.08 984.725 132.533 984.379 132.8C984.032 133.067 983.485 133.2 982.739 133.2ZM1008.52 145.72C1008.49 146.2 1008.29 146.613 1007.92 146.96C1007.55 147.28 1007.11 147.44 1006.6 147.44H992.521C992.708 149.387 993.441 150.947 994.721 152.12C996.028 153.293 997.615 153.88 999.481 153.88C1000.76 153.88 1001.8 153.693 1002.6 153.32C1003.4 152.947 1004.11 152.467 1004.72 151.88C1005.12 151.64 1005.51 151.52 1005.88 151.52C1006.33 151.52 1006.71 151.68 1007 152C1007.32 152.32 1007.48 152.693 1007.48 153.12C1007.48 153.68 1007.21 154.187 1006.68 154.64C1005.91 155.413 1004.88 156.067 1003.6 156.6C1002.32 157.133 1001.01 157.4 999.681 157.4C997.521 157.4 995.615 156.947 993.961 156.04C992.335 155.133 991.068 153.867 990.161 152.24C989.281 150.613 988.841 148.773 988.841 146.72C988.841 144.48 989.295 142.52 990.201 140.84C991.135 139.133 992.348 137.827 993.841 136.92C995.361 136.013 996.988 135.56 998.721 135.56C1000.43 135.56 1002.03 136 1003.52 136.88C1005.01 137.76 1006.21 138.973 1007.12 140.52C1008.03 142.067 1008.49 143.8 1008.52 145.72ZM998.721 139.08C997.228 139.08 995.935 139.507 994.841 140.36C993.748 141.187 993.028 142.48 992.681 144.24H1004.48V143.92C1004.35 142.507 1003.71 141.347 1002.56 140.44C1001.44 139.533 1000.16 139.08 998.721 139.08ZM1011.73 153.72C1011.49 153.347 1011.37 152.987 1011.37 152.64C1011.37 152.107 1011.65 151.653 1012.21 151.28C1012.48 151.093 1012.79 151 1013.13 151C1013.61 151 1014.05 151.2 1014.45 151.6C1015.25 152.507 1016.11 153.187 1017.01 153.64C1017.95 154.093 1019.05 154.32 1020.33 154.32C1021.35 154.293 1022.24 154.067 1023.01 153.64C1023.79 153.187 1024.17 152.467 1024.17 151.48C1024.17 150.573 1023.77 149.88 1022.97 149.4C1022.2 148.92 1021.05 148.48 1019.53 148.08C1018.04 147.68 1016.8 147.267 1015.81 146.84C1014.83 146.387 1013.99 145.747 1013.29 144.92C1012.63 144.067 1012.29 142.96 1012.29 141.6C1012.29 140.4 1012.63 139.347 1013.29 138.44C1013.99 137.533 1014.89 136.827 1016.01 136.32C1017.16 135.813 1018.4 135.56 1019.73 135.56C1021.01 135.56 1022.28 135.8 1023.53 136.28C1024.81 136.76 1025.85 137.493 1026.65 138.48C1026.97 138.853 1027.13 139.24 1027.13 139.64C1027.13 140.067 1026.92 140.48 1026.49 140.88C1026.23 141.12 1025.89 141.24 1025.49 141.24C1025.01 141.24 1024.63 141.08 1024.33 140.76C1023.77 140.12 1023.08 139.627 1022.25 139.28C1021.45 138.933 1020.56 138.76 1019.57 138.76C1018.56 138.76 1017.69 138.973 1016.97 139.4C1016.28 139.8 1015.93 140.493 1015.93 141.48C1015.96 142.413 1016.36 143.107 1017.13 143.56C1017.93 144.013 1019.15 144.453 1020.77 144.88C1022.19 145.253 1023.36 145.653 1024.29 146.08C1025.23 146.507 1026.01 147.147 1026.65 148C1027.29 148.827 1027.61 149.92 1027.61 151.28C1027.61 152.533 1027.25 153.627 1026.53 154.56C1025.81 155.467 1024.87 156.173 1023.69 156.68C1022.55 157.16 1021.32 157.4 1020.01 157.4C1018.33 157.4 1016.77 157.107 1015.33 156.52C1013.92 155.933 1012.72 155 1011.73 153.72Z" fill="#E66363"/>
</g>
<g filter="url(#filter1_d)">
<path d="M640.464 196.2C640.464 199.496 639.776 202.456 638.4 205.08C637.024 207.704 635.12 209.768 632.688 211.272C630.256 212.744 627.488 213.48 624.384 213.48C621.28 213.48 618.512 212.744 616.08 211.272C613.648 209.768 611.744 207.704 610.368 205.08C608.992 202.456 608.304 199.496 608.304 196.2C608.304 192.872 608.992 189.896 610.368 187.272C611.744 184.648 613.648 182.6 616.08 181.128C618.512 179.656 621.28 178.92 624.384 178.92C627.488 178.92 630.256 179.656 632.688 181.128C635.12 182.6 637.024 184.648 638.4 187.272C639.776 189.896 640.464 192.872 640.464 196.2ZM637.392 196.2C637.392 193.416 636.832 190.936 635.712 188.76C634.624 186.552 633.088 184.84 631.104 183.624C629.152 182.408 626.912 181.8 624.384 181.8C621.856 181.8 619.6 182.408 617.616 183.624C615.664 184.84 614.128 186.552 613.008 188.76C611.92 190.936 611.376 193.416 611.376 196.2C611.376 198.984 611.92 201.48 613.008 203.688C614.128 205.864 615.664 207.56 617.616 208.776C619.6 209.992 621.856 210.6 624.384 210.6C626.912 210.6 629.152 209.992 631.104 208.776C633.088 207.56 634.624 205.864 635.712 203.688C636.832 201.48 637.392 198.984 637.392 196.2ZM658.11 187.896C661.086 187.896 663.262 188.776 664.638 190.536C666.046 192.264 666.75 194.568 666.75 197.448V211.56C666.75 211.976 666.606 212.328 666.318 212.616C666.03 212.872 665.694 213 665.31 213C664.894 213 664.542 212.872 664.254 212.616C663.998 212.328 663.87 211.976 663.87 211.56V197.592C663.87 195.512 663.342 193.832 662.286 192.552C661.262 191.24 659.662 190.584 657.486 190.584C656.11 190.584 654.798 190.904 653.55 191.544C652.334 192.184 651.342 193.048 650.574 194.136C649.806 195.192 649.422 196.344 649.422 197.592V211.56C649.422 211.976 649.278 212.328 648.99 212.616C648.734 212.872 648.398 213 647.982 213C647.566 213 647.214 212.872 646.926 212.616C646.67 212.328 646.542 211.976 646.542 211.56V190.056C646.542 189.64 646.67 189.304 646.926 189.048C647.214 188.76 647.566 188.616 647.982 188.616C648.398 188.616 648.734 188.76 648.99 189.048C649.278 189.304 649.422 189.64 649.422 190.056V192.696C650.286 191.32 651.518 190.184 653.118 189.288C654.75 188.36 656.414 187.896 658.11 187.896ZM677.46 211.56C677.46 211.976 677.316 212.328 677.028 212.616C676.772 212.872 676.436 213 676.02 213C675.604 213 675.252 212.872 674.964 212.616C674.708 212.328 674.58 211.976 674.58 211.56V178.92C674.58 178.504 674.708 178.168 674.964 177.912C675.252 177.624 675.604 177.48 676.02 177.48C676.436 177.48 676.772 177.624 677.028 177.912C677.316 178.168 677.46 178.504 677.46 178.92V211.56ZM702.939 188.04C703.355 188.04 703.691 188.184 703.947 188.472C704.235 188.728 704.379 189.064 704.379 189.48V210.648C704.379 213.176 703.883 215.336 702.891 217.128C701.899 218.92 700.523 220.28 698.763 221.208C697.003 222.136 695.019 222.6 692.811 222.6C691.467 222.6 690.203 222.456 689.019 222.168C687.867 221.88 686.907 221.496 686.139 221.016C685.467 220.6 685.131 220.136 685.131 219.624C685.131 219.56 685.163 219.4 685.227 219.144C685.323 218.824 685.483 218.584 685.707 218.424C685.931 218.264 686.171 218.184 686.427 218.184C686.619 218.184 686.811 218.232 687.003 218.328C689.051 219.448 691.003 220.008 692.859 220.008C695.515 220.008 697.611 219.176 699.147 217.512C700.715 215.848 701.499 213.576 701.499 210.696V209.016C700.699 210.36 699.547 211.448 698.043 212.28C696.539 213.08 694.907 213.48 693.147 213.48C690.363 213.48 688.251 212.648 686.811 210.984C685.371 209.32 684.651 207.064 684.651 204.216V189.48C684.651 189.064 684.779 188.728 685.035 188.472C685.323 188.184 685.675 188.04 686.091 188.04C686.507 188.04 686.843 188.184 687.099 188.472C687.387 188.728 687.531 189.064 687.531 189.48V203.784C687.531 206.088 688.027 207.832 689.019 209.016C690.043 210.2 691.627 210.792 693.771 210.792C695.083 210.792 696.331 210.472 697.515 209.832C698.731 209.16 699.691 208.296 700.395 207.24C701.131 206.152 701.499 205 701.499 203.784V189.48C701.499 189.064 701.627 188.728 701.883 188.472C702.171 188.184 702.523 188.04 702.939 188.04ZM747.714 200.712C747.714 203.112 747.186 205.288 746.13 207.24C745.074 209.192 743.618 210.728 741.762 211.848C739.906 212.936 737.842 213.48 735.57 213.48C733.298 213.48 731.234 212.936 729.378 211.848C727.522 210.728 726.066 209.192 725.01 207.24C723.954 205.288 723.426 203.112 723.426 200.712C723.426 198.312 723.954 196.136 725.01 194.184C726.066 192.232 727.522 190.696 729.378 189.576C731.234 188.456 733.298 187.896 735.57 187.896C737.842 187.896 739.906 188.456 741.762 189.576C743.618 190.696 745.074 192.232 746.13 194.184C747.186 196.136 747.714 198.312 747.714 200.712ZM744.834 200.712C744.834 198.792 744.434 197.064 743.634 195.528C742.834 193.992 741.714 192.792 740.274 191.928C738.866 191.032 737.298 190.584 735.57 190.584C733.842 190.584 732.274 191.032 730.866 191.928C729.458 192.792 728.338 193.992 727.506 195.528C726.706 197.064 726.306 198.792 726.306 200.712C726.306 202.6 726.706 204.312 727.506 205.848C728.338 207.384 729.458 208.6 730.866 209.496C732.274 210.36 733.842 210.792 735.57 210.792C737.298 210.792 738.866 210.36 740.274 209.496C741.714 208.632 742.834 207.432 743.634 205.896C744.434 204.36 744.834 202.632 744.834 200.712ZM765.173 187.896C768.149 187.896 770.325 188.776 771.701 190.536C773.109 192.264 773.812 194.568 773.812 197.448V211.56C773.812 211.976 773.669 212.328 773.381 212.616C773.093 212.872 772.757 213 772.373 213C771.957 213 771.605 212.872 771.317 212.616C771.061 212.328 770.933 211.976 770.933 211.56V197.592C770.933 195.512 770.405 193.832 769.349 192.552C768.325 191.24 766.725 190.584 764.549 190.584C763.173 190.584 761.861 190.904 760.613 191.544C759.397 192.184 758.405 193.048 757.637 194.136C756.869 195.192 756.485 196.344 756.485 197.592V211.56C756.485 211.976 756.341 212.328 756.053 212.616C755.797 212.872 755.461 213 755.045 213C754.629 213 754.277 212.872 753.989 212.616C753.733 212.328 753.605 211.976 753.605 211.56V190.056C753.605 189.64 753.733 189.304 753.989 189.048C754.277 188.76 754.629 188.616 755.045 188.616C755.461 188.616 755.797 188.76 756.053 189.048C756.341 189.304 756.485 189.64 756.485 190.056V192.696C757.349 191.32 758.581 190.184 760.181 189.288C761.813 188.36 763.477 187.896 765.173 187.896Z" fill="#393E46"/>
<path d="M1039.68 202.92C1038.78 202.92 1038.3 202.408 1038.24 201.384L1037.18 182.28C1037.12 181.448 1037.31 180.76 1037.76 180.216C1038.24 179.672 1038.86 179.4 1039.63 179.4C1040.43 179.4 1041.05 179.672 1041.5 180.216C1041.95 180.76 1042.14 181.448 1042.08 182.28L1041.07 201.384C1041.04 201.896 1040.89 202.28 1040.64 202.536C1040.41 202.792 1040.09 202.92 1039.68 202.92ZM1039.39 213C1038.62 213 1038.03 212.792 1037.61 212.376C1037.23 211.928 1037.04 211.32 1037.04 210.552V209.64C1037.04 208.872 1037.23 208.28 1037.61 207.864C1038.03 207.416 1038.62 207.192 1039.39 207.192H1039.92C1040.69 207.192 1041.26 207.416 1041.65 207.864C1042.06 208.28 1042.27 208.872 1042.27 209.64V210.552C1042.27 211.32 1042.06 211.928 1041.65 212.376C1041.26 212.792 1040.69 213 1039.92 213H1039.39Z" fill="black"/>
<path d="M804.848 213.48C802.512 213.48 800.448 213.16 798.656 212.52C796.864 211.848 795.152 210.776 793.52 209.304C792.848 208.728 792.512 208.072 792.512 207.336C792.512 206.76 792.736 206.248 793.184 205.8C793.632 205.32 794.16 205.08 794.768 205.08C795.312 205.08 795.776 205.256 796.16 205.608C797.44 206.792 798.752 207.672 800.096 208.248C801.472 208.792 803.024 209.064 804.752 209.064C806.768 209.064 808.464 208.6 809.84 207.672C811.248 206.744 811.952 205.576 811.952 204.168C811.92 202.504 811.216 201.224 809.84 200.328C808.496 199.4 806.432 198.632 803.648 198.024C800.352 197.352 797.808 196.248 796.016 194.712C794.256 193.176 793.376 191.048 793.376 188.328C793.376 186.44 793.872 184.792 794.864 183.384C795.856 181.944 797.232 180.84 798.992 180.072C800.752 179.304 802.736 178.92 804.944 178.92C806.928 178.92 808.8 179.24 810.56 179.88C812.32 180.52 813.744 181.368 814.832 182.424C815.568 183.064 815.936 183.752 815.936 184.488C815.936 185.064 815.712 185.576 815.264 186.024C814.848 186.472 814.336 186.696 813.728 186.696C813.28 186.696 812.912 186.568 812.624 186.312C811.792 185.48 810.64 184.776 809.168 184.2C807.696 183.624 806.288 183.336 804.944 183.336C802.8 183.336 801.088 183.784 799.808 184.68C798.56 185.544 797.936 186.696 797.936 188.136C797.936 189.704 798.56 190.904 799.808 191.736C801.088 192.568 802.976 193.272 805.472 193.848C807.968 194.392 810 195.032 811.568 195.768C813.168 196.504 814.4 197.528 815.264 198.84C816.128 200.152 816.56 201.864 816.56 203.976C816.56 205.832 816.032 207.48 814.976 208.92C813.952 210.36 812.544 211.48 810.752 212.28C808.96 213.08 806.992 213.48 804.848 213.48ZM834.561 187.416C840.193 187.416 843.009 190.904 843.009 197.88V210.696C843.009 211.336 842.785 211.88 842.337 212.328C841.921 212.776 841.377 213 840.705 213C840.065 213 839.521 212.776 839.073 212.328C838.657 211.88 838.449 211.336 838.449 210.696V197.88C838.449 193.72 836.689 191.64 833.169 191.64C831.281 191.64 829.713 192.248 828.465 193.464C827.217 194.648 826.593 196.12 826.593 197.88V210.696C826.593 211.336 826.369 211.88 825.921 212.328C825.505 212.776 824.961 213 824.289 213C823.617 213 823.073 212.792 822.657 212.376C822.241 211.928 822.033 211.368 822.033 210.696V179.784C822.033 179.144 822.241 178.6 822.657 178.152C823.105 177.704 823.649 177.48 824.289 177.48C824.961 177.48 825.505 177.704 825.921 178.152C826.369 178.6 826.593 179.144 826.593 179.784V191.928C827.393 190.68 828.513 189.624 829.953 188.76C831.393 187.864 832.929 187.416 834.561 187.416ZM873.638 200.424C873.638 202.92 873.078 205.16 871.958 207.144C870.838 209.128 869.302 210.68 867.35 211.8C865.43 212.92 863.302 213.48 860.966 213.48C858.63 213.48 856.486 212.92 854.534 211.8C852.614 210.68 851.094 209.128 849.974 207.144C848.854 205.16 848.294 202.92 848.294 200.424C848.294 197.928 848.854 195.672 849.974 193.656C851.094 191.64 852.614 190.072 854.534 188.952C856.486 187.832 858.63 187.272 860.966 187.272C863.302 187.272 865.43 187.832 867.35 188.952C869.302 190.072 870.838 191.64 871.958 193.656C873.078 195.672 873.638 197.928 873.638 200.424ZM869.078 200.424C869.078 198.696 868.71 197.16 867.974 195.816C867.27 194.44 866.294 193.384 865.046 192.648C863.83 191.88 862.47 191.496 860.966 191.496C859.462 191.496 858.086 191.88 856.838 192.648C855.622 193.384 854.646 194.44 853.91 195.816C853.206 197.16 852.854 198.696 852.854 200.424C852.854 202.12 853.206 203.64 853.91 204.984C854.646 206.328 855.622 207.384 856.838 208.152C858.086 208.888 859.462 209.256 860.966 209.256C862.47 209.256 863.83 208.888 865.046 208.152C866.294 207.384 867.27 206.328 867.974 204.984C868.71 203.64 869.078 202.12 869.078 200.424ZM891.563 187.416C893.739 187.416 895.707 187.976 897.467 189.096C899.227 190.184 900.603 191.72 901.595 193.704C902.619 195.688 903.131 197.928 903.131 200.424C903.131 202.92 902.619 205.16 901.595 207.144C900.603 209.096 899.227 210.632 897.467 211.752C895.707 212.872 893.771 213.432 891.659 213.432C889.995 213.432 888.443 213.064 887.003 212.328C885.563 211.592 884.395 210.696 883.499 209.64V220.296C883.499 220.936 883.275 221.48 882.827 221.928C882.411 222.376 881.867 222.6 881.195 222.6C880.555 222.6 880.011 222.376 879.563 221.928C879.147 221.512 878.939 220.968 878.939 220.296V190.104C878.939 189.432 879.147 188.872 879.563 188.424C879.979 187.976 880.523 187.752 881.195 187.752C881.867 187.752 882.411 187.976 882.827 188.424C883.275 188.872 883.499 189.432 883.499 190.104V191.496C884.267 190.376 885.387 189.416 886.859 188.616C888.331 187.816 889.899 187.416 891.563 187.416ZM891.035 209.208C892.507 209.208 893.835 208.824 895.019 208.056C896.203 207.288 897.115 206.248 897.755 204.936C898.427 203.592 898.763 202.088 898.763 200.424C898.763 198.76 898.427 197.272 897.755 195.96C897.115 194.616 896.203 193.56 895.019 192.792C893.835 192.024 892.507 191.64 891.035 191.64C889.531 191.64 888.187 192.024 887.003 192.792C885.819 193.528 884.891 194.568 884.219 195.912C883.579 197.256 883.259 198.76 883.259 200.424C883.259 202.088 883.579 203.592 884.219 204.936C884.891 206.28 885.819 207.336 887.003 208.104C888.187 208.84 889.531 209.208 891.035 209.208ZM921.048 187.416C923.224 187.416 925.192 187.976 926.952 189.096C928.712 190.184 930.088 191.72 931.08 193.704C932.104 195.688 932.616 197.928 932.616 200.424C932.616 202.92 932.104 205.16 931.08 207.144C930.088 209.096 928.712 210.632 926.952 211.752C925.192 212.872 923.256 213.432 921.144 213.432C919.48 213.432 917.928 213.064 916.488 212.328C915.048 211.592 913.88 210.696 912.984 209.64V220.296C912.984 220.936 912.76 221.48 912.312 221.928C911.896 222.376 911.352 222.6 910.68 222.6C910.04 222.6 909.496 222.376 909.048 221.928C908.632 221.512 908.424 220.968 908.424 220.296V190.104C908.424 189.432 908.632 188.872 909.048 188.424C909.464 187.976 910.008 187.752 910.68 187.752C911.352 187.752 911.896 187.976 912.312 188.424C912.76 188.872 912.984 189.432 912.984 190.104V191.496C913.752 190.376 914.872 189.416 916.344 188.616C917.816 187.816 919.384 187.416 921.048 187.416ZM920.52 209.208C921.992 209.208 923.32 208.824 924.504 208.056C925.688 207.288 926.6 206.248 927.24 204.936C927.912 203.592 928.248 202.088 928.248 200.424C928.248 198.76 927.912 197.272 927.24 195.96C926.6 194.616 925.688 193.56 924.504 192.792C923.32 192.024 921.992 191.64 920.52 191.64C919.016 191.64 917.672 192.024 916.488 192.792C915.304 193.528 914.376 194.568 913.704 195.912C913.064 197.256 912.744 198.76 912.744 200.424C912.744 202.088 913.064 203.592 913.704 204.936C914.376 206.28 915.304 207.336 916.488 208.104C917.672 208.84 919.016 209.208 920.52 209.208ZM959.988 199.464C959.956 200.04 959.716 200.536 959.268 200.952C958.82 201.336 958.292 201.528 957.684 201.528H940.788C941.012 203.864 941.892 205.736 943.428 207.144C944.996 208.552 946.9 209.256 949.14 209.256C950.676 209.256 951.924 209.032 952.884 208.584C953.844 208.136 954.692 207.56 955.428 206.856C955.908 206.568 956.372 206.424 956.82 206.424C957.364 206.424 957.812 206.616 958.164 207C958.548 207.384 958.74 207.832 958.74 208.344C958.74 209.016 958.42 209.624 957.78 210.168C956.852 211.096 955.62 211.88 954.084 212.52C952.548 213.16 950.98 213.48 949.38 213.48C946.788 213.48 944.5 212.936 942.516 211.848C940.564 210.76 939.044 209.24 937.956 207.288C936.9 205.336 936.372 203.128 936.372 200.664C936.372 197.976 936.916 195.624 938.004 193.608C939.124 191.56 940.58 189.992 942.372 188.904C944.196 187.816 946.148 187.272 948.228 187.272C950.276 187.272 952.196 187.8 953.988 188.856C955.78 189.912 957.22 191.368 958.308 193.224C959.396 195.08 959.956 197.16 959.988 199.464ZM948.228 191.496C946.436 191.496 944.884 192.008 943.572 193.032C942.26 194.024 941.396 195.576 940.98 197.688H955.14V197.304C954.98 195.608 954.212 194.216 952.836 193.128C951.492 192.04 949.956 191.496 948.228 191.496ZM977.811 187.272C978.643 187.272 979.363 187.496 979.971 187.944C980.579 188.36 980.883 188.888 980.883 189.528C980.883 190.296 980.675 190.888 980.259 191.304C979.875 191.688 979.395 191.88 978.819 191.88C978.531 191.88 978.099 191.784 977.523 191.592C976.851 191.368 976.323 191.256 975.939 191.256C974.947 191.256 973.971 191.608 973.011 192.312C972.083 192.984 971.315 193.928 970.707 195.144C970.131 196.328 969.843 197.656 969.843 199.128V210.696C969.843 211.336 969.619 211.88 969.171 212.328C968.755 212.776 968.211 213 967.539 213C966.867 213 966.323 212.792 965.907 212.376C965.491 211.928 965.283 211.368 965.283 210.696V190.152C965.283 189.512 965.491 188.968 965.907 188.52C966.355 188.072 966.899 187.848 967.539 187.848C968.211 187.848 968.755 188.072 969.171 188.52C969.619 188.968 969.843 189.512 969.843 190.152V192.6C970.547 191.032 971.603 189.768 973.011 188.808C974.419 187.816 976.019 187.304 977.811 187.272ZM990.055 210.696C990.055 211.336 989.831 211.88 989.383 212.328C988.935 212.776 988.391 213 987.751 213C987.111 213 986.567 212.776 986.119 212.328C985.703 211.88 985.495 211.336 985.495 210.696V179.784C985.495 179.144 985.719 178.6 986.167 178.152C986.615 177.704 987.159 177.48 987.799 177.48C988.439 177.48 988.967 177.704 989.383 178.152C989.831 178.6 990.055 179.144 990.055 179.784V210.696ZM1015.27 187.608C1015.94 187.608 1016.48 187.832 1016.9 188.28C1017.35 188.728 1017.57 189.272 1017.57 189.912V210.648C1017.57 214.648 1016.47 217.64 1014.26 219.624C1012.05 221.608 1009.14 222.6 1005.52 222.6C1004.34 222.6 1003.17 222.488 1002.02 222.264C1000.87 222.04 999.925 221.736 999.189 221.352C998.005 220.808 997.413 220.072 997.413 219.144C997.413 218.984 997.445 218.776 997.509 218.52C997.701 217.976 997.973 217.56 998.325 217.272C998.677 216.984 999.077 216.84 999.525 216.84C999.781 216.84 1000.02 216.888 1000.24 216.984C1001.24 217.432 1002.12 217.784 1002.88 218.04C1003.65 218.296 1004.55 218.424 1005.57 218.424C1010.53 218.424 1013.01 215.88 1013.01 210.792V209.832C1012.15 210.984 1011.03 211.88 1009.65 212.52C1008.31 213.16 1006.76 213.48 1005 213.48C1002.34 213.48 1000.26 212.632 998.757 210.936C997.285 209.24 996.549 207.016 996.549 204.264V189.912C996.549 189.24 996.757 188.696 997.173 188.28C997.589 187.832 998.133 187.608 998.805 187.608C999.477 187.608 1000.02 187.832 1000.44 188.28C1000.88 188.728 1001.11 189.272 1001.11 189.912V203.064C1001.11 205.176 1001.57 206.744 1002.5 207.768C1003.43 208.76 1004.84 209.256 1006.72 209.256C1008.55 209.256 1010.05 208.68 1011.24 207.528C1012.42 206.376 1013.01 204.888 1013.01 203.064V189.912C1013.01 189.24 1013.22 188.696 1013.64 188.28C1014.05 187.832 1014.6 187.608 1015.27 187.608Z" fill="#BEEBE9"/>
</g>
<defs>
<filter id="filter0_d" x="552.52" y="125.2" width="498.436" height="43.6" filterUnits="userSpaceOnUse" color-interpolation-filters="sRGB">
<feFlood flood-opacity="0" result="BackgroundImageFix"/>
<feColorMatrix in="SourceAlpha" type="matrix" values="0 0 0 0 0 0 0 0 0 0 0 0 0 0 0 0 0 0 127 0"/>
<feOffset dy="0.8"/>
<feGaussianBlur stdDeviation="1.5"/>
<feColorMatrix type="matrix" values="0 0 0 0 0 0 0 0 0 0 0 0 0 0 0 0 0 0 0.25 0"/>
<feBlend mode="normal" in2="BackgroundImageFix" result="effect1_dropShadow"/>
<feBlend mode="normal" in="SourceGraphic" in2="effect1_dropShadow" result="shape"/>
</filter>
<filter id="filter1_d" x="605.304" y="175.28" width="439.966" height="51.12" filterUnits="userSpaceOnUse" color-interpolation-filters="sRGB">
<feFlood flood-opacity="0" result="BackgroundImageFix"/>
<feColorMatrix in="SourceAlpha" type="matrix" values="0 0 0 0 0 0 0 0 0 0 0 0 0 0 0 0 0 0 127 0"/>
<feOffset dy="0.8"/>
<feGaussianBlur stdDeviation="1.5"/>
<feColorMatrix type="matrix" values="0 0 0 0 0 0 0 0 0 0 0 0 0 0 0 0 0 0 0.25 0"/>
<feBlend mode="normal" in2="BackgroundImageFix" result="effect1_dropShadow"/>
<feBlend mode="normal" in="SourceGraphic" in2="effect1_dropShadow" result="shape"/>
</filter>
<clipPath id="clip0">
<rect width="532" height="300" fill="white" transform="matrix(-0.999996 0.00264696 0.00264696 0.999996 553.602 27.2964)"/>
</clipPath>
</defs>
</svg>
