<svg width="1214" height="327" viewBox="0 0 1214 327" fill="none" xmlns="http://www.w3.org/2000/svg">
<path d="M0 80C0 35.8172 35.8172 0 80 0H1199C1207.28 0 1214 6.71573 1214 15V237C1214 286.706 1173.71 327 1124 327H15C6.71575 327 0 320.284 0 312V80Z" fill="#08B5FF"/>
<path d="M843.944 247.904C822.344 236.432 776.552 232.784 762.104 232.352C757.496 232.208 752.84 232.16 748.232 232.16C717.512 232.16 689.144 235.328 689.192 241.424C689.192 242.72 691.736 244.208 695.528 244.496C694.616 244.064 694.04 243.68 694.04 243.248C694.232 239.12 718.04 234.416 752.696 234.416C756.584 234.416 760.616 234.464 764.792 234.608C789.416 235.376 825.656 240.128 843.944 247.904Z" fill="#BEEBE9"/>
<g clip-path="url(#clip0)">
<path d="M414.332 83.4454C404.242 82.7 395.535 82.1299 394.973 82.1966C394.434 82.2501 393.586 82.4892 393.1 82.7059C391.408 83.4666 391.54 83.312 384.507 93.2442C382.919 95.4744 377.676 102.889 372.848 109.695L364.073 122.1L362.71 121.762C361.967 121.577 350.219 118.957 336.618 115.934C323.034 112.914 298.927 107.561 283.066 104.032C202.382 86.0997 205.288 86.7281 204.289 86.8173C203.047 86.9023 202.326 87.1545 201.196 87.8485C200.061 88.5601 198.936 89.9116 198.505 91.1169C198.303 91.704 197.592 96.8331 196.525 105.586C195.611 113.045 193.76 127.977 192.427 138.783C188.651 169.322 188.917 166.895 189.162 168.25C189.372 169.445 190.353 171.245 191.234 172.008C192.315 172.951 189.443 171.957 232.287 186.278C240.733 189.108 254.505 193.712 262.902 196.511C271.295 199.328 283.802 203.504 290.703 205.819L303.228 210.001L312.633 222.049C317.787 228.673 322.344 234.68 322.73 235.395C323.573 236.917 324.197 239.472 324.085 241.056C323.891 244.026 322.153 246.032 319.435 246.387L318.29 246.534L301.534 242.52C292.316 240.304 260.839 232.632 231.574 225.434L178.369 212.363L177.242 212.514C175.668 212.723 173.809 213.779 172.803 215.029C172.146 215.859 171.979 216.23 171.68 217.431C171.483 218.301 171.378 219.174 171.455 219.7C171.585 220.838 172.269 222.395 173.04 223.299C174.307 224.777 174.528 224.869 180.536 226.475L186.052 227.939L184.912 228.443C182.509 229.496 180.099 231.709 178.724 234.142C178.314 234.884 177.993 235.798 177.598 237.462C177.102 239.458 177.05 239.97 177.155 241.289C177.612 246.933 181.206 251.52 186.533 253.219C191.377 254.741 196.998 253.213 200.395 249.446C203.51 245.983 204.598 241.078 203.263 236.622C202.849 235.263 201.758 233.229 200.747 231.928L200.18 231.188L215.237 234.929C223.522 236.97 248.253 243.059 270.207 248.459L310.115 258.264L309.191 258.578C304.764 260.14 301.385 264.062 300.54 268.67C299.446 274.585 302.512 280.541 308.004 283.161C310.726 284.456 313.322 284.745 316.557 284.049C318.356 283.69 318.881 283.465 320.537 282.47C322.083 281.542 322.653 281.065 323.685 279.859C325.379 277.88 325.996 276.684 326.588 274.3C327.163 271.987 327.191 270.588 326.701 268.328C326.277 266.405 325.451 264.587 324.321 263.087C323.368 261.857 321.375 260.049 320.463 259.635C319.618 259.257 319.662 259.08 320.67 258.955C321.987 258.795 324.21 258.167 325.8 257.512C329.803 255.844 334.309 251.771 335.758 248.513C336.418 246.989 337.208 243.811 337.329 242.191C337.445 240.289 337.232 237.518 336.821 235.691C335.658 230.621 334.11 228.08 325.485 217.05C321.891 212.464 318.974 208.627 318.996 208.538C319.018 208.45 321.126 205.412 323.692 201.813C326.263 198.196 329.363 193.81 330.607 192.057C331.85 190.304 335.232 185.538 338.125 181.458C341.018 177.377 344.426 172.581 345.701 170.779C348.571 166.712 354.868 157.853 364.451 144.317C365.544 142.789 368.79 138.196 371.682 134.115C377.296 126.192 378.041 125.159 386.146 113.712C391.411 106.284 394.767 101.55 397.492 97.6897C398.303 96.5415 398.987 95.6052 399.013 95.5743C399.057 95.5478 406.566 96.1013 415.715 96.7814C434.137 98.1722 433.536 98.1727 435.483 96.9131C437.117 95.8568 437.898 94.7572 438.35 92.9384C438.771 91.2433 438.636 89.8973 437.912 88.4989C437.051 86.8227 435.298 85.412 433.59 85.0252C433.095 84.9021 424.423 84.1907 414.332 83.4454ZM356.062 131.958C348.257 143.03 342.675 150.904 342.392 151.209L342.052 151.593L336.231 150.147L330.392 148.696L333.201 137.395L336.009 126.094L343.223 127.68C347.195 128.555 351.888 129.627 353.662 130.05L356.873 130.81L356.062 131.958ZM328.645 136.3L325.792 147.552L314.95 144.914L304.095 142.254L306.838 131.218L309.58 120.182L311.672 120.683C312.809 120.947 317.241 121.936 321.496 122.881C325.756 123.808 329.75 124.67 330.369 124.824L331.475 125.061L328.645 136.3ZM302.282 130.124L299.517 141.023L288.688 138.332L277.842 135.636L280.435 124.976L283.041 114.337L283.789 114.504C284.218 114.592 288.048 115.431 292.303 116.376C296.563 117.304 301.176 118.319 302.538 118.657L305.024 119.238L302.282 130.124ZM275.941 124.009L273.308 134.603L262.488 131.877L251.655 129.129L254.16 118.821C255.547 113.166 256.701 108.522 256.719 108.527C256.856 108.505 272.279 111.906 275.256 112.627L278.574 113.414L275.941 124.009ZM249.6 117.744L247.055 127.986L236.217 125.33L225.358 122.688L227.859 112.623L230.36 102.558L232.807 103.147C234.138 103.459 238.765 104.496 243.077 105.437C247.39 106.377 251.198 107.23 251.53 107.331L252.145 107.503L249.6 117.744ZM223.237 111.568L220.758 121.544L212.902 119.592C207.77 118.317 205.01 117.556 204.966 117.432C204.859 117.106 207.307 97.7288 207.462 97.636C207.572 97.5697 218.382 99.8811 223.814 101.156L225.716 101.591L223.237 111.568ZM217.138 136.112L214.614 146.265L208.156 144.66C204.6 143.776 201.707 143.02 201.716 142.984C201.746 142.861 204.159 123.4 204.233 122.725L204.285 122.138L211.982 124.05L219.661 125.959L217.138 136.112ZM243.501 142.663L240.978 152.817L230.096 150.112L219.215 147.408L221.738 137.255L224.261 127.102L235.143 129.806L246.024 132.51L243.501 142.663ZM269.688 149.171L267.165 159.324L256.283 156.62L245.401 153.916L247.925 143.763L250.448 133.61L261.329 136.314L272.211 139.018L269.688 149.171ZM295.941 155.639L293.373 165.743L282.545 163.052L271.699 160.357L274.16 150.226L276.634 140.117L287.551 142.83L298.486 145.547L295.941 155.639ZM322.238 162.23L319.715 172.383L308.833 169.679L297.952 166.975L300.475 156.822L302.998 146.669L313.88 149.373L324.761 152.077L322.238 162.23ZM338.574 156.672C337.67 157.966 327.549 172.23 326.522 173.644C326.31 173.966 326.138 173.979 325.2 173.746L324.139 173.483L326.662 163.329L329.185 153.176L334.228 154.429L339.27 155.683L338.574 156.672ZM211.705 157.972L209.893 165.265L204.743 163.535C201.898 162.584 199.531 161.752 199.496 161.668C199.443 161.58 199.786 158.61 200.235 155.065C200.684 151.521 201.067 148.392 201.084 148.096L201.096 147.593L207.307 149.136L213.517 150.679L211.705 157.972ZM237.819 165.53L235.756 173.829L235.243 173.702C234.978 173.636 230.359 172.113 225.001 170.313C219.644 168.513 215.06 166.999 214.83 166.941L214.388 166.832L216.253 159.327L218.118 151.823L228.999 154.527L239.881 157.231L237.819 165.53ZM263.742 173.097C262.465 178.235 261.363 182.442 261.293 182.425C260.881 182.341 240.464 175.524 240.304 175.409C240.141 175.312 240.548 173.445 242.198 166.806L244.304 158.33L255.186 161.034L266.068 163.739L263.742 173.097ZM289.701 180.748L287.156 191.139L286.121 190.77C285.55 190.572 280.989 189.044 275.972 187.385C270.955 185.726 266.641 184.26 266.349 184.15L265.841 183.93L268.232 174.457C269.567 169.239 270.651 164.952 270.659 164.917C270.664 164.899 275.53 166.109 281.453 167.599L292.233 170.334L289.701 180.748ZM317.082 182.978L315.551 189.14L312.402 193.57C310.687 196.012 309.157 198.163 309.029 198.375C308.866 198.653 308.738 198.715 308.548 198.574C307.852 198.045 306.631 197.591 300.261 195.483C296.496 194.229 292.992 193.058 292.509 192.882L291.598 192.543L294.226 181.966L296.855 171.389L307.736 174.094L318.618 176.798L317.082 182.978ZM323.365 178.108C323.343 178.197 323.21 178.351 323.087 178.471C322.893 178.647 322.862 178.621 322.945 178.285C322.998 178.074 323.13 177.919 323.218 177.941C323.325 177.967 323.382 178.038 323.365 178.108ZM195.419 234.392C197.12 235.789 198.256 238.021 198.326 240.157C198.392 241.936 197.666 244.174 196.572 245.477C195.553 246.705 193.566 247.898 192.068 248.182C186.91 249.131 182.313 245.027 182.696 239.779C182.933 236.482 185.518 233.562 188.833 232.849C191.016 232.379 193.732 233.016 195.419 234.392ZM318.736 265.149C319.981 266.19 321.129 268.144 321.397 269.635C322.671 276.907 314.377 281.708 308.603 277.048C306.048 275.007 305.116 271.12 306.411 268.104C308.519 263.248 314.715 261.75 318.736 265.149Z" fill="#393E46"/>
<path d="M189.658 236.485C188.469 236.733 187.869 237.109 187.128 238.049C184.913 240.836 187.026 244.961 190.589 244.834C192.583 244.748 194.062 243.56 194.531 241.67C195.124 239.362 193.988 237.355 191.692 236.615C190.838 236.347 190.471 236.312 189.658 236.485Z" fill="#393E46"/>
<path d="M313.27 267.034C312.192 267.141 311.339 267.548 310.585 268.317C309.989 268.9 309.835 269.218 309.576 270.26C309.251 271.641 309.328 272.316 310.028 273.428C310.676 274.451 311.42 275.011 312.645 275.297C313.954 275.622 315.019 275.418 316.163 274.596C319.585 272.166 317.47 266.616 313.27 267.034Z" fill="#393E46"/>
</g>
<path d="M990.475 178.959C997.118 134.709 1011.96 130.852 1023.37 108.516C1033.76 88.1997 1042.14 54.9628 1012.82 31.2012C967.271 -5.73834 911.412 32.0602 911.412 32.0602C911.412 32.0602 822.896 82.7447 807.427 85.3219C791.958 87.8991 754.145 113.671 706.88 82.7447C659.614 51.8186 619.223 54.3958 606.332 77.5904C593.442 100.785 622.66 167.792 629.535 181.536C636.41 195.281 626.098 238.234 614.926 255.416C603.754 272.597 568.52 325.858 644.145 324.14C719.77 322.422 946.646 324.999 946.646 324.999C946.646 324.999 1028.09 323.479 1013.68 244.248C1001.65 178.1 987.896 196.14 990.475 178.959Z" fill="#08B5FF"/>
<path d="M961.256 172.946C951.763 172.946 944.068 165.254 944.068 155.765C944.068 146.276 951.763 138.584 961.256 138.584C970.748 138.584 978.443 146.276 978.443 155.765C978.443 165.254 970.748 172.946 961.256 172.946Z" fill="#005FA4"/>
<path d="M990.045 188.409C983.637 188.409 978.443 183.217 978.443 176.812C978.443 170.407 983.637 165.215 990.045 165.215C996.452 165.215 1001.65 170.407 1001.65 176.812C1001.65 183.217 996.452 188.409 990.045 188.409Z" fill="#005FA4"/>
<path d="M988.326 156.625C984.766 156.625 981.881 153.74 981.881 150.182C981.881 146.623 984.766 143.739 988.326 143.739C991.886 143.739 994.771 146.623 994.771 150.182C994.771 153.74 991.886 156.625 988.326 156.625Z" fill="#005FA4"/>
<path d="M607.191 288.92C597.699 288.92 590.004 281.227 590.004 271.738C590.004 262.249 597.699 254.557 607.191 254.557C616.684 254.557 624.379 262.249 624.379 271.738C624.379 281.227 616.684 288.92 607.191 288.92Z" fill="#005FA4"/>
<path d="M1020.12 75.0138C1016.56 75.0138 1013.68 72.1292 1013.68 68.5709C1013.68 65.0125 1016.56 62.1279 1020.12 62.1279C1023.68 62.1279 1026.57 65.0125 1026.57 68.5709C1026.57 72.1292 1023.68 75.0138 1020.12 75.0138Z" fill="#005FA4"/>
<path d="M912.7 300.946C895.851 300.946 882.193 287.293 882.193 270.45C882.193 253.607 895.851 239.953 912.7 239.953C929.55 239.953 943.208 253.607 943.208 270.45C943.208 287.293 929.55 300.946 912.7 300.946Z" fill="#BEEBE9"/>
<path d="M711.176 315.55C699.785 315.55 690.551 306.319 690.551 294.933C690.551 283.546 699.785 274.315 711.176 274.315C722.567 274.315 731.801 283.546 731.801 294.933C731.801 306.319 722.567 315.55 711.176 315.55Z" fill="#BEEBE9"/>
<path d="M715.473 110.235C703.133 110.235 693.129 100.235 693.129 87.8995C693.129 75.5639 703.133 65.564 715.473 65.564C727.813 65.564 737.817 75.5639 737.817 87.8995C737.817 100.235 727.813 110.235 715.473 110.235Z" fill="#BEEBE9"/>
<path d="M920.435 38.9335C914.502 38.9335 909.693 34.1258 909.693 28.1953C909.693 22.2647 914.502 17.457 920.435 17.457C926.368 17.457 931.177 22.2647 931.177 28.1953C931.177 34.1258 926.368 38.9335 920.435 38.9335Z" fill="#BEEBE9"/>
<path d="M954.81 252.839C948.877 252.839 944.068 248.031 944.068 242.101C944.068 236.17 948.877 231.362 954.81 231.362C960.743 231.362 965.552 236.17 965.552 242.101C965.552 248.031 960.743 252.839 954.81 252.839Z" fill="#BEEBE9"/>
<path d="M608.48 128.275C602.548 128.275 597.738 123.468 597.738 117.537C597.738 111.607 602.548 106.799 608.48 106.799C614.413 106.799 619.223 111.607 619.223 117.537C619.223 123.468 614.413 128.275 608.48 128.275Z" fill="#005FA4"/>
<path d="M625.668 311.255C619.261 311.255 614.066 306.063 614.066 299.658C614.066 293.253 619.261 288.061 625.668 288.061C632.075 288.061 637.27 293.253 637.27 299.658C637.27 306.063 632.075 311.255 625.668 311.255Z" fill="#005FA4"/>
<path d="M599.887 312.114C596.327 312.114 593.441 309.229 593.441 305.671C593.441 302.113 596.327 299.228 599.887 299.228C603.446 299.228 606.332 302.113 606.332 305.671C606.332 309.229 603.446 312.114 599.887 312.114Z" fill="#005FA4"/>
<g filter="url(#filter0_d)">
<path d="M412.8 174.4C410.853 174.4 409.133 174.133 407.64 173.6C406.147 173.04 404.72 172.147 403.36 170.92C402.8 170.44 402.52 169.893 402.52 169.28C402.52 168.8 402.707 168.373 403.08 168C403.453 167.6 403.893 167.4 404.4 167.4C404.853 167.4 405.24 167.547 405.56 167.84C406.627 168.827 407.72 169.56 408.84 170.04C409.987 170.493 411.28 170.72 412.72 170.72C414.4 170.72 415.813 170.333 416.96 169.56C418.133 168.787 418.72 167.813 418.72 166.64C418.693 165.253 418.107 164.187 416.96 163.44C415.84 162.667 414.12 162.027 411.8 161.52C409.053 160.96 406.933 160.04 405.44 158.76C403.973 157.48 403.24 155.707 403.24 153.44C403.24 151.867 403.653 150.493 404.48 149.32C405.307 148.12 406.453 147.2 407.92 146.56C409.387 145.92 411.04 145.6 412.88 145.6C414.533 145.6 416.093 145.867 417.56 146.4C419.027 146.933 420.213 147.64 421.12 148.52C421.733 149.053 422.04 149.627 422.04 150.24C422.04 150.72 421.853 151.147 421.48 151.52C421.133 151.893 420.707 152.08 420.2 152.08C419.827 152.08 419.52 151.973 419.28 151.76C418.587 151.067 417.627 150.48 416.4 150C415.173 149.52 414 149.28 412.88 149.28C411.093 149.28 409.667 149.653 408.6 150.4C407.56 151.12 407.04 152.08 407.04 153.28C407.04 154.587 407.56 155.587 408.6 156.28C409.667 156.973 411.24 157.56 413.32 158.04C415.4 158.493 417.093 159.027 418.4 159.64C419.733 160.253 420.76 161.107 421.48 162.2C422.2 163.293 422.56 164.72 422.56 166.48C422.56 168.027 422.12 169.4 421.24 170.6C420.387 171.8 419.213 172.733 417.72 173.4C416.227 174.067 414.587 174.4 412.8 174.4ZM437.561 152.68C442.255 152.68 444.601 155.587 444.601 161.4V172.08C444.601 172.613 444.415 173.067 444.041 173.44C443.695 173.813 443.241 174 442.681 174C442.148 174 441.695 173.813 441.321 173.44C440.975 173.067 440.801 172.613 440.801 172.08V161.4C440.801 157.933 439.335 156.2 436.401 156.2C434.828 156.2 433.521 156.707 432.481 157.72C431.441 158.707 430.921 159.933 430.921 161.4V172.08C430.921 172.613 430.735 173.067 430.361 173.44C430.015 173.813 429.561 174 429.001 174C428.441 174 427.988 173.827 427.641 173.48C427.295 173.107 427.121 172.64 427.121 172.08V146.32C427.121 145.787 427.295 145.333 427.641 144.96C428.015 144.587 428.468 144.4 429.001 144.4C429.561 144.4 430.015 144.587 430.361 144.96C430.735 145.333 430.921 145.787 430.921 146.32V156.44C431.588 155.4 432.521 154.52 433.721 153.8C434.921 153.053 436.201 152.68 437.561 152.68ZM470.125 163.52C470.125 165.6 469.659 167.467 468.725 169.12C467.792 170.773 466.512 172.067 464.885 173C463.285 173.933 461.512 174.4 459.565 174.4C457.619 174.4 455.832 173.933 454.205 173C452.605 172.067 451.339 170.773 450.405 169.12C449.472 167.467 449.005 165.6 449.005 163.52C449.005 161.44 449.472 159.56 450.405 157.88C451.339 156.2 452.605 154.893 454.205 153.96C455.832 153.027 457.619 152.56 459.565 152.56C461.512 152.56 463.285 153.027 464.885 153.96C466.512 154.893 467.792 156.2 468.725 157.88C469.659 159.56 470.125 161.44 470.125 163.52ZM466.325 163.52C466.325 162.08 466.019 160.8 465.405 159.68C464.819 158.533 464.005 157.653 462.965 157.04C461.952 156.4 460.819 156.08 459.565 156.08C458.312 156.08 457.165 156.4 456.125 157.04C455.112 157.653 454.299 158.533 453.685 159.68C453.099 160.8 452.805 162.08 452.805 163.52C452.805 164.933 453.099 166.2 453.685 167.32C454.299 168.44 455.112 169.32 456.125 169.96C457.165 170.573 458.312 170.88 459.565 170.88C460.819 170.88 461.952 170.573 462.965 169.96C464.005 169.32 464.819 168.44 465.405 167.32C466.019 166.2 466.325 164.933 466.325 163.52ZM485.063 152.68C486.876 152.68 488.516 153.147 489.983 154.08C491.45 154.987 492.596 156.267 493.423 157.92C494.276 159.573 494.703 161.44 494.703 163.52C494.703 165.6 494.276 167.467 493.423 169.12C492.596 170.747 491.45 172.027 489.983 172.96C488.516 173.893 486.903 174.36 485.143 174.36C483.756 174.36 482.463 174.053 481.263 173.44C480.063 172.827 479.09 172.08 478.343 171.2V180.08C478.343 180.613 478.156 181.067 477.783 181.44C477.436 181.813 476.983 182 476.423 182C475.89 182 475.436 181.813 475.063 181.44C474.716 181.093 474.543 180.64 474.543 180.08V154.92C474.543 154.36 474.716 153.893 475.063 153.52C475.41 153.147 475.863 152.96 476.423 152.96C476.983 152.96 477.436 153.147 477.783 153.52C478.156 153.893 478.343 154.36 478.343 154.92V156.08C478.983 155.147 479.916 154.347 481.143 153.68C482.37 153.013 483.676 152.68 485.063 152.68ZM484.623 170.84C485.85 170.84 486.956 170.52 487.943 169.88C488.93 169.24 489.69 168.373 490.223 167.28C490.783 166.16 491.063 164.907 491.063 163.52C491.063 162.133 490.783 160.893 490.223 159.8C489.69 158.68 488.93 157.8 487.943 157.16C486.956 156.52 485.85 156.2 484.623 156.2C483.37 156.2 482.25 156.52 481.263 157.16C480.276 157.773 479.503 158.64 478.943 159.76C478.41 160.88 478.143 162.133 478.143 163.52C478.143 164.907 478.41 166.16 478.943 167.28C479.503 168.4 480.276 169.28 481.263 169.92C482.25 170.533 483.37 170.84 484.623 170.84ZM509.633 152.68C511.447 152.68 513.087 153.147 514.553 154.08C516.02 154.987 517.167 156.267 517.993 157.92C518.847 159.573 519.273 161.44 519.273 163.52C519.273 165.6 518.847 167.467 517.993 169.12C517.167 170.747 516.02 172.027 514.553 172.96C513.087 173.893 511.473 174.36 509.713 174.36C508.327 174.36 507.033 174.053 505.833 173.44C504.633 172.827 503.66 172.08 502.913 171.2V180.08C502.913 180.613 502.727 181.067 502.353 181.44C502.007 181.813 501.553 182 500.993 182C500.46 182 500.007 181.813 499.633 181.44C499.287 181.093 499.113 180.64 499.113 180.08V154.92C499.113 154.36 499.287 153.893 499.633 153.52C499.98 153.147 500.433 152.96 500.993 152.96C501.553 152.96 502.007 153.147 502.353 153.52C502.727 153.893 502.913 154.36 502.913 154.92V156.08C503.553 155.147 504.487 154.347 505.713 153.68C506.94 153.013 508.247 152.68 509.633 152.68ZM509.193 170.84C510.42 170.84 511.527 170.52 512.513 169.88C513.5 169.24 514.26 168.373 514.793 167.28C515.353 166.16 515.633 164.907 515.633 163.52C515.633 162.133 515.353 160.893 514.793 159.8C514.26 158.68 513.5 157.8 512.513 157.16C511.527 156.52 510.42 156.2 509.193 156.2C507.94 156.2 506.82 156.52 505.833 157.16C504.847 157.773 504.073 158.64 503.513 159.76C502.98 160.88 502.713 162.133 502.713 163.52C502.713 164.907 502.98 166.16 503.513 167.28C504.073 168.4 504.847 169.28 505.833 169.92C506.82 170.533 507.94 170.84 509.193 170.84ZM527.284 172.08C527.284 172.613 527.097 173.067 526.724 173.44C526.377 173.813 525.924 174 525.364 174C524.83 174 524.377 173.813 524.004 173.44C523.657 173.067 523.484 172.613 523.484 172.08V154.76C523.484 154.227 523.657 153.773 524.004 153.4C524.377 153.027 524.83 152.84 525.364 152.84C525.924 152.84 526.377 153.027 526.724 153.4C527.097 153.773 527.284 154.227 527.284 154.76V172.08ZM525.364 150.2C524.59 150.2 524.03 150.067 523.684 149.8C523.364 149.507 523.204 149.053 523.204 148.44V147.8C523.204 147.16 523.377 146.707 523.724 146.44C524.097 146.173 524.657 146.04 525.404 146.04C526.15 146.04 526.684 146.187 527.004 146.48C527.35 146.747 527.524 147.187 527.524 147.8V148.44C527.524 149.08 527.35 149.533 527.004 149.8C526.657 150.067 526.11 150.2 525.364 150.2ZM543.426 152.56C548.226 152.56 550.626 155.44 550.626 161.2V172.08C550.626 172.613 550.44 173.067 550.066 173.44C549.72 173.813 549.266 174 548.706 174C548.173 174 547.72 173.813 547.346 173.44C547 173.067 546.826 172.613 546.826 172.08V161.24C546.826 159.667 546.466 158.413 545.746 157.48C545.026 156.547 543.853 156.08 542.226 156.08C541.16 156.08 540.186 156.32 539.306 156.8C538.453 157.253 537.773 157.88 537.266 158.68C536.786 159.453 536.546 160.307 536.546 161.24V172.08C536.546 172.613 536.36 173.067 535.986 173.44C535.64 173.813 535.186 174 534.626 174C534.066 174 533.613 173.827 533.266 173.48C532.92 173.107 532.746 172.64 532.746 172.08V154.96C532.746 154.427 532.92 153.973 533.266 153.6C533.64 153.227 534.093 153.04 534.626 153.04C535.186 153.04 535.64 153.227 535.986 153.6C536.36 153.973 536.546 154.427 536.546 154.96V156.36C537.24 155.293 538.2 154.4 539.426 153.68C540.68 152.933 542.013 152.56 543.426 152.56ZM573.821 152.76C574.381 152.76 574.834 152.947 575.181 153.32C575.554 153.667 575.741 154.133 575.741 154.72V172.32C575.741 174.48 575.274 176.28 574.341 177.72C573.434 179.187 572.194 180.267 570.621 180.96C569.048 181.653 567.274 182 565.301 182C564.234 182 562.981 181.813 561.541 181.44C560.128 181.067 559.221 180.68 558.821 180.28C557.994 179.853 557.581 179.32 557.581 178.68C557.581 178.52 557.634 178.307 557.741 178.04C558.034 177.373 558.528 177.04 559.221 177.04C559.568 177.04 559.941 177.12 560.341 177.28C562.474 178.107 564.141 178.52 565.341 178.52C567.474 178.52 569.101 178 570.221 176.96C571.368 175.947 571.941 174.547 571.941 172.76V170.6C571.381 171.64 570.434 172.533 569.101 173.28C567.794 174.027 566.408 174.4 564.941 174.4C563.101 174.4 561.421 173.933 559.901 173C558.381 172.067 557.181 170.773 556.301 169.12C555.448 167.44 555.021 165.56 555.021 163.48C555.021 161.4 555.448 159.533 556.301 157.88C557.181 156.2 558.368 154.893 559.861 153.96C561.381 153.027 563.048 152.56 564.861 152.56C566.328 152.56 567.688 152.893 568.941 153.56C570.221 154.227 571.221 155.04 571.941 156V154.72C571.941 154.16 572.114 153.693 572.461 153.32C572.808 152.947 573.261 152.76 573.821 152.76ZM565.381 170.88C566.688 170.88 567.848 170.573 568.861 169.96C569.874 169.32 570.661 168.44 571.221 167.32C571.808 166.173 572.101 164.893 572.101 163.48C572.101 162.067 571.808 160.8 571.221 159.68C570.661 158.56 569.874 157.68 568.861 157.04C567.848 156.4 566.688 156.08 565.381 156.08C564.101 156.08 562.954 156.4 561.941 157.04C560.928 157.68 560.128 158.573 559.541 159.72C558.981 160.84 558.701 162.093 558.701 163.48C558.701 164.867 558.981 166.133 559.541 167.28C560.128 168.4 560.928 169.28 561.941 169.92C562.954 170.56 564.101 170.88 565.381 170.88ZM616.953 152.84C617.459 152.84 617.886 153.027 618.233 153.4C618.606 153.747 618.793 154.2 618.793 154.76C618.793 154.947 618.739 155.2 618.633 155.52L612.513 172.8C612.353 173.227 612.086 173.547 611.713 173.76C611.339 173.973 610.939 174.053 610.513 174C609.793 173.947 609.246 173.547 608.873 172.8L604.713 161.92L600.873 172.8C600.713 173.173 600.486 173.467 600.193 173.68C599.899 173.867 599.579 173.973 599.233 174C598.833 174.053 598.433 173.973 598.033 173.76C597.659 173.52 597.406 173.2 597.273 172.8L591.073 155.52C590.993 155.28 590.953 155.027 590.953 154.76C590.953 154.227 591.126 153.773 591.473 153.4C591.819 153.027 592.273 152.84 592.833 152.84C593.739 152.84 594.326 153.24 594.593 154.04L599.353 167.52L603.153 157.56C603.473 156.76 604.059 156.36 604.913 156.36C605.713 156.36 606.259 156.76 606.553 157.56L610.433 167.36L615.113 154.04C615.406 153.24 616.019 152.84 616.953 152.84ZM626.503 172.08C626.503 172.613 626.316 173.067 625.942 173.44C625.596 173.813 625.143 174 624.583 174C624.049 174 623.596 173.813 623.223 173.44C622.876 173.067 622.702 172.613 622.702 172.08V154.76C622.702 154.227 622.876 153.773 623.223 153.4C623.596 153.027 624.049 152.84 624.583 152.84C625.143 152.84 625.596 153.027 625.942 153.4C626.316 153.773 626.503 154.227 626.503 154.76V172.08ZM624.583 150.2C623.809 150.2 623.249 150.067 622.903 149.8C622.583 149.507 622.423 149.053 622.423 148.44V147.8C622.423 147.16 622.596 146.707 622.943 146.44C623.316 146.173 623.876 146.04 624.623 146.04C625.369 146.04 625.903 146.187 626.223 146.48C626.569 146.747 626.743 147.187 626.743 147.8V148.44C626.743 149.08 626.569 149.533 626.223 149.8C625.876 150.067 625.329 150.2 624.583 150.2ZM637.645 156.76V168.68C637.645 170.013 638.245 170.68 639.445 170.68C639.632 170.68 639.885 170.64 640.205 170.56C640.525 170.453 640.778 170.4 640.965 170.4C641.312 170.4 641.605 170.547 641.845 170.84C642.085 171.133 642.205 171.507 642.205 171.96C642.205 172.52 641.885 173 641.245 173.4C640.605 173.8 639.885 174 639.085 174C638.205 174 637.392 173.907 636.645 173.72C635.925 173.533 635.272 173.067 634.685 172.32C634.125 171.547 633.845 170.387 633.845 168.84V156.76H631.525C631.018 156.76 630.592 156.6 630.245 156.28C629.925 155.933 629.765 155.507 629.765 155C629.765 154.493 629.925 154.08 630.245 153.76C630.592 153.44 631.018 153.28 631.525 153.28H633.845V149.92C633.845 149.387 634.018 148.933 634.365 148.56C634.738 148.187 635.205 148 635.765 148C636.298 148 636.738 148.187 637.085 148.56C637.458 148.933 637.645 149.387 637.645 149.92V153.28H640.965C641.472 153.28 641.885 153.453 642.205 153.8C642.552 154.12 642.725 154.533 642.725 155.04C642.725 155.547 642.552 155.96 642.205 156.28C641.885 156.6 641.472 156.76 640.965 156.76H637.645ZM657.6 152.68C662.294 152.68 664.64 155.587 664.64 161.4V172.08C664.64 172.613 664.454 173.067 664.08 173.44C663.734 173.813 663.28 174 662.72 174C662.187 174 661.734 173.813 661.36 173.44C661.014 173.067 660.84 172.613 660.84 172.08V161.4C660.84 157.933 659.374 156.2 656.44 156.2C654.867 156.2 653.56 156.707 652.52 157.72C651.48 158.707 650.96 159.933 650.96 161.4V172.08C650.96 172.613 650.774 173.067 650.4 173.44C650.054 173.813 649.6 174 649.04 174C648.48 174 648.027 173.827 647.68 173.48C647.334 173.107 647.16 172.64 647.16 172.08V146.32C647.16 145.787 647.334 145.333 647.68 144.96C648.054 144.587 648.507 144.4 649.04 144.4C649.6 144.4 650.054 144.587 650.4 144.96C650.774 145.333 650.96 145.787 650.96 146.32V156.44C651.627 155.4 652.56 154.52 653.76 153.8C654.96 153.053 656.24 152.68 657.6 152.68ZM692.098 152.56C696.898 152.56 699.298 155.44 699.298 161.2V172.08C699.298 172.613 699.111 173.067 698.738 173.44C698.391 173.813 697.938 174 697.378 174C696.845 174 696.391 173.813 696.018 173.44C695.671 173.067 695.498 172.613 695.498 172.08V161.24C695.498 159.667 695.138 158.413 694.418 157.48C693.698 156.547 692.525 156.08 690.898 156.08C689.831 156.08 688.858 156.32 687.978 156.8C687.125 157.253 686.445 157.88 685.938 158.68C685.458 159.453 685.218 160.307 685.218 161.24V172.08C685.218 172.613 685.031 173.067 684.658 173.44C684.311 173.813 683.858 174 683.298 174C682.738 174 682.285 173.827 681.938 173.48C681.591 173.107 681.418 172.64 681.418 172.08V154.96C681.418 154.427 681.591 153.973 681.938 153.6C682.311 153.227 682.765 153.04 683.298 153.04C683.858 153.04 684.311 153.227 684.658 153.6C685.031 153.973 685.218 154.427 685.218 154.96V156.36C685.911 155.293 686.871 154.4 688.098 153.68C689.351 152.933 690.685 152.56 692.098 152.56ZM724.813 163.52C724.813 165.6 724.346 167.467 723.413 169.12C722.479 170.773 721.199 172.067 719.573 173C717.973 173.933 716.199 174.4 714.253 174.4C712.306 174.4 710.519 173.933 708.893 173C707.293 172.067 706.026 170.773 705.093 169.12C704.159 167.467 703.693 165.6 703.693 163.52C703.693 161.44 704.159 159.56 705.093 157.88C706.026 156.2 707.293 154.893 708.893 153.96C710.519 153.027 712.306 152.56 714.253 152.56C716.199 152.56 717.973 153.027 719.573 153.96C721.199 154.893 722.479 156.2 723.413 157.88C724.346 159.56 724.813 161.44 724.813 163.52ZM721.013 163.52C721.013 162.08 720.706 160.8 720.093 159.68C719.506 158.533 718.693 157.653 717.653 157.04C716.639 156.4 715.506 156.08 714.253 156.08C712.999 156.08 711.853 156.4 710.813 157.04C709.799 157.653 708.986 158.533 708.373 159.68C707.786 160.8 707.493 162.08 707.493 163.52C707.493 164.933 707.786 166.2 708.373 167.32C708.986 168.44 709.799 169.32 710.813 169.96C711.853 170.573 712.999 170.88 714.253 170.88C715.506 170.88 716.639 170.573 717.653 169.96C718.693 169.32 719.506 168.44 720.093 167.32C720.706 166.2 721.013 164.933 721.013 163.52ZM883.156 161.04C883.156 160.48 883.33 160.013 883.676 159.64C884.05 159.267 884.503 159.08 885.036 159.08C886.823 159.027 888.276 158.533 889.396 157.6C890.543 156.64 891.116 155.28 891.116 153.52C891.116 152 890.596 150.747 889.556 149.76C888.516 148.747 887.236 148.24 885.716 148.24C884.863 148.24 884.036 148.427 883.236 148.8C882.463 149.147 881.783 149.627 881.196 150.24C880.663 150.72 880.13 150.96 879.596 150.96C879.223 150.96 878.876 150.84 878.556 150.6C877.97 150.173 877.676 149.68 877.676 149.12C877.676 148.64 877.876 148.2 878.276 147.8C879.183 146.76 880.276 145.947 881.556 145.36C882.863 144.773 884.25 144.48 885.716 144.48C887.423 144.48 888.97 144.867 890.356 145.64C891.77 146.413 892.89 147.493 893.716 148.88C894.543 150.24 894.956 151.787 894.956 153.52C894.956 155.12 894.596 156.547 893.876 157.8C893.183 159.027 892.223 160.027 890.996 160.8C889.77 161.547 888.383 162 886.836 162.16C886.81 162.16 886.796 162.173 886.796 162.2C886.823 162.2 886.863 162.187 886.916 162.16V164.8C886.916 165.333 886.73 165.787 886.356 166.16C886.01 166.533 885.57 166.72 885.036 166.72C884.476 166.72 884.01 166.533 883.636 166.16C883.29 165.787 883.13 165.333 883.156 164.8V161.04ZM884.916 174C884.276 174 883.783 173.827 883.436 173.48C883.09 173.107 882.916 172.6 882.916 171.96V171.2C882.916 170.56 883.09 170.067 883.436 169.72C883.783 169.347 884.276 169.16 884.916 169.16H885.316C885.956 169.16 886.45 169.347 886.796 169.72C887.143 170.067 887.316 170.56 887.316 171.2V171.96C887.316 172.6 887.143 173.107 886.796 173.48C886.45 173.827 885.956 174 885.316 174H884.916Z" fill="#393E46"/>
<path d="M764.804 152.84C765.311 152.84 765.738 153.027 766.084 153.4C766.458 153.747 766.644 154.2 766.644 154.76C766.644 154.947 766.591 155.2 766.484 155.52L760.364 172.8C760.204 173.227 759.938 173.547 759.564 173.76C759.191 173.973 758.791 174.053 758.364 174C757.644 173.947 757.098 173.547 756.724 172.8L752.564 161.92L748.724 172.8C748.564 173.173 748.338 173.467 748.044 173.68C747.751 173.867 747.431 173.973 747.084 174C746.684 174.053 746.284 173.973 745.884 173.76C745.511 173.52 745.258 173.2 745.124 172.8L738.924 155.52C738.844 155.28 738.804 155.027 738.804 154.76C738.804 154.227 738.978 153.773 739.324 153.4C739.671 153.027 740.124 152.84 740.684 152.84C741.591 152.84 742.178 153.24 742.444 154.04L747.204 167.52L751.004 157.56C751.324 156.76 751.911 156.36 752.764 156.36C753.564 156.36 754.111 156.76 754.404 157.56L758.284 167.36L762.964 154.04C763.258 153.24 763.871 152.84 764.804 152.84ZM790.594 163.52C790.594 165.6 790.127 167.467 789.194 169.12C788.261 170.773 786.981 172.067 785.354 173C783.754 173.933 781.981 174.4 780.034 174.4C778.087 174.4 776.301 173.933 774.674 173C773.074 172.067 771.807 170.773 770.874 169.12C769.941 167.467 769.474 165.6 769.474 163.52C769.474 161.44 769.941 159.56 770.874 157.88C771.807 156.2 773.074 154.893 774.674 153.96C776.301 153.027 778.087 152.56 780.034 152.56C781.981 152.56 783.754 153.027 785.354 153.96C786.981 154.893 788.261 156.2 789.194 157.88C790.127 159.56 790.594 161.44 790.594 163.52ZM786.794 163.52C786.794 162.08 786.487 160.8 785.874 159.68C785.287 158.533 784.474 157.653 783.434 157.04C782.421 156.4 781.287 156.08 780.034 156.08C778.781 156.08 777.634 156.4 776.594 157.04C775.581 157.653 774.767 158.533 774.154 159.68C773.567 160.8 773.274 162.08 773.274 163.52C773.274 164.933 773.567 166.2 774.154 167.32C774.767 168.44 775.581 169.32 776.594 169.96C777.634 170.573 778.781 170.88 780.034 170.88C781.287 170.88 782.421 170.573 783.434 169.96C784.474 169.32 785.287 168.44 785.874 167.32C786.487 166.2 786.794 164.933 786.794 163.52ZM805.452 152.56C806.145 152.56 806.745 152.747 807.252 153.12C807.759 153.467 808.012 153.907 808.012 154.44C808.012 155.08 807.839 155.573 807.492 155.92C807.172 156.24 806.772 156.4 806.292 156.4C806.052 156.4 805.692 156.32 805.212 156.16C804.652 155.973 804.212 155.88 803.892 155.88C803.065 155.88 802.252 156.173 801.452 156.76C800.679 157.32 800.039 158.107 799.532 159.12C799.052 160.107 798.812 161.213 798.812 162.44V172.08C798.812 172.613 798.625 173.067 798.252 173.44C797.905 173.813 797.452 174 796.892 174C796.332 174 795.879 173.827 795.532 173.48C795.185 173.107 795.012 172.64 795.012 172.08V154.96C795.012 154.427 795.185 153.973 795.532 153.6C795.905 153.227 796.359 153.04 796.892 153.04C797.452 153.04 797.905 153.227 798.252 153.6C798.625 153.973 798.812 154.427 798.812 154.96V157C799.399 155.693 800.279 154.64 801.452 153.84C802.625 153.013 803.959 152.587 805.452 152.56ZM821.975 152.56C822.669 152.56 823.269 152.747 823.775 153.12C824.282 153.467 824.535 153.907 824.535 154.44C824.535 155.08 824.362 155.573 824.015 155.92C823.695 156.24 823.295 156.4 822.815 156.4C822.575 156.4 822.215 156.32 821.735 156.16C821.175 155.973 820.735 155.88 820.415 155.88C819.589 155.88 818.775 156.173 817.975 156.76C817.202 157.32 816.562 158.107 816.055 159.12C815.575 160.107 815.335 161.213 815.335 162.44V172.08C815.335 172.613 815.149 173.067 814.775 173.44C814.429 173.813 813.975 174 813.415 174C812.855 174 812.402 173.827 812.055 173.48C811.709 173.107 811.535 172.64 811.535 172.08V154.96C811.535 154.427 811.709 153.973 812.055 153.6C812.429 153.227 812.882 153.04 813.415 153.04C813.975 153.04 814.429 153.227 814.775 153.6C815.149 153.973 815.335 154.427 815.335 154.96V157C815.922 155.693 816.802 154.64 817.975 153.84C819.149 153.013 820.482 152.587 821.975 152.56ZM831.659 172.08C831.659 172.613 831.472 173.067 831.099 173.44C830.752 173.813 830.299 174 829.739 174C829.205 174 828.752 173.813 828.379 173.44C828.032 173.067 827.859 172.613 827.859 172.08V154.76C827.859 154.227 828.032 153.773 828.379 153.4C828.752 153.027 829.205 152.84 829.739 152.84C830.299 152.84 830.752 153.027 831.099 153.4C831.472 153.773 831.659 154.227 831.659 154.76V172.08ZM829.739 150.2C828.965 150.2 828.405 150.067 828.059 149.8C827.739 149.507 827.579 149.053 827.579 148.44V147.8C827.579 147.16 827.752 146.707 828.099 146.44C828.472 146.173 829.032 146.04 829.779 146.04C830.525 146.04 831.059 146.187 831.379 146.48C831.725 146.747 831.899 147.187 831.899 147.8V148.44C831.899 149.08 831.725 149.533 831.379 149.8C831.032 150.067 830.485 150.2 829.739 150.2ZM855.521 162.72C855.495 163.2 855.295 163.613 854.921 163.96C854.548 164.28 854.108 164.44 853.601 164.44H839.521C839.708 166.387 840.441 167.947 841.721 169.12C843.028 170.293 844.615 170.88 846.481 170.88C847.761 170.88 848.801 170.693 849.601 170.32C850.401 169.947 851.108 169.467 851.721 168.88C852.121 168.64 852.508 168.52 852.881 168.52C853.335 168.52 853.708 168.68 854.001 169C854.321 169.32 854.481 169.693 854.481 170.12C854.481 170.68 854.215 171.187 853.681 171.64C852.908 172.413 851.881 173.067 850.601 173.6C849.321 174.133 848.015 174.4 846.681 174.4C844.521 174.4 842.615 173.947 840.961 173.04C839.335 172.133 838.068 170.867 837.161 169.24C836.281 167.613 835.841 165.773 835.841 163.72C835.841 161.48 836.295 159.52 837.201 157.84C838.135 156.133 839.348 154.827 840.841 153.92C842.361 153.013 843.988 152.56 845.721 152.56C847.428 152.56 849.028 153 850.521 153.88C852.015 154.76 853.215 155.973 854.121 157.52C855.028 159.067 855.495 160.8 855.521 162.72ZM845.721 156.08C844.228 156.08 842.935 156.507 841.841 157.36C840.748 158.187 840.028 159.48 839.681 161.24H851.481V160.92C851.348 159.507 850.708 158.347 849.561 157.44C848.441 156.533 847.161 156.08 845.721 156.08ZM858.734 170.72C858.494 170.347 858.374 169.987 858.374 169.64C858.374 169.107 858.654 168.653 859.214 168.28C859.48 168.093 859.787 168 860.134 168C860.614 168 861.054 168.2 861.454 168.6C862.254 169.507 863.107 170.187 864.014 170.64C864.947 171.093 866.054 171.32 867.334 171.32C868.347 171.293 869.24 171.067 870.014 170.64C870.787 170.187 871.174 169.467 871.174 168.48C871.174 167.573 870.774 166.88 869.974 166.4C869.2 165.92 868.054 165.48 866.534 165.08C865.04 164.68 863.8 164.267 862.814 163.84C861.827 163.387 860.987 162.747 860.294 161.92C859.627 161.067 859.294 159.96 859.294 158.6C859.294 157.4 859.627 156.347 860.294 155.44C860.987 154.533 861.894 153.827 863.014 153.32C864.16 152.813 865.4 152.56 866.734 152.56C868.014 152.56 869.28 152.8 870.534 153.28C871.814 153.76 872.854 154.493 873.654 155.48C873.974 155.853 874.134 156.24 874.134 156.64C874.134 157.067 873.92 157.48 873.494 157.88C873.227 158.12 872.894 158.24 872.494 158.24C872.014 158.24 871.627 158.08 871.334 157.76C870.774 157.12 870.08 156.627 869.254 156.28C868.454 155.933 867.56 155.76 866.574 155.76C865.56 155.76 864.694 155.973 863.974 156.4C863.28 156.8 862.934 157.493 862.934 158.48C862.96 159.413 863.36 160.107 864.134 160.56C864.934 161.013 866.147 161.453 867.774 161.88C869.187 162.253 870.36 162.653 871.294 163.08C872.227 163.507 873.014 164.147 873.654 165C874.294 165.827 874.614 166.92 874.614 168.28C874.614 169.533 874.254 170.627 873.534 171.56C872.814 172.467 871.867 173.173 870.694 173.68C869.547 174.16 868.32 174.4 867.014 174.4C865.334 174.4 863.774 174.107 862.334 173.52C860.92 172.933 859.72 172 858.734 170.72Z" fill="#F76B6B"/>
</g>
<g filter="url(#filter1_d)">
<path d="M487.464 213.2C487.464 216.496 486.776 219.456 485.4 222.08C484.024 224.704 482.12 226.768 479.688 228.272C477.256 229.744 474.488 230.48 471.384 230.48C468.28 230.48 465.512 229.744 463.08 228.272C460.648 226.768 458.744 224.704 457.368 222.08C455.992 219.456 455.304 216.496 455.304 213.2C455.304 209.872 455.992 206.896 457.368 204.272C458.744 201.648 460.648 199.6 463.08 198.128C465.512 196.656 468.28 195.92 471.384 195.92C474.488 195.92 477.256 196.656 479.688 198.128C482.12 199.6 484.024 201.648 485.4 204.272C486.776 206.896 487.464 209.872 487.464 213.2ZM484.392 213.2C484.392 210.416 483.832 207.936 482.712 205.76C481.624 203.552 480.088 201.84 478.104 200.624C476.152 199.408 473.912 198.8 471.384 198.8C468.856 198.8 466.6 199.408 464.616 200.624C462.664 201.84 461.128 203.552 460.008 205.76C458.92 207.936 458.376 210.416 458.376 213.2C458.376 215.984 458.92 218.48 460.008 220.688C461.128 222.864 462.664 224.56 464.616 225.776C466.6 226.992 468.856 227.6 471.384 227.6C473.912 227.6 476.152 226.992 478.104 225.776C480.088 224.56 481.624 222.864 482.712 220.688C483.832 218.48 484.392 215.984 484.392 213.2ZM505.11 204.896C508.086 204.896 510.262 205.776 511.638 207.536C513.046 209.264 513.75 211.568 513.75 214.448V228.56C513.75 228.976 513.606 229.328 513.318 229.616C513.03 229.872 512.694 230 512.31 230C511.894 230 511.542 229.872 511.254 229.616C510.998 229.328 510.87 228.976 510.87 228.56V214.592C510.87 212.512 510.342 210.832 509.286 209.552C508.262 208.24 506.662 207.584 504.486 207.584C503.11 207.584 501.798 207.904 500.55 208.544C499.334 209.184 498.342 210.048 497.574 211.136C496.806 212.192 496.422 213.344 496.422 214.592V228.56C496.422 228.976 496.278 229.328 495.99 229.616C495.734 229.872 495.398 230 494.982 230C494.566 230 494.214 229.872 493.926 229.616C493.67 229.328 493.542 228.976 493.542 228.56V207.056C493.542 206.64 493.67 206.304 493.926 206.048C494.214 205.76 494.566 205.616 494.982 205.616C495.398 205.616 495.734 205.76 495.99 206.048C496.278 206.304 496.422 206.64 496.422 207.056V209.696C497.286 208.32 498.518 207.184 500.118 206.288C501.75 205.36 503.414 204.896 505.11 204.896ZM524.46 228.56C524.46 228.976 524.316 229.328 524.028 229.616C523.772 229.872 523.436 230 523.02 230C522.604 230 522.252 229.872 521.964 229.616C521.708 229.328 521.58 228.976 521.58 228.56V195.92C521.58 195.504 521.708 195.168 521.964 194.912C522.252 194.624 522.604 194.48 523.02 194.48C523.436 194.48 523.772 194.624 524.028 194.912C524.316 195.168 524.46 195.504 524.46 195.92V228.56ZM549.939 205.04C550.355 205.04 550.691 205.184 550.947 205.472C551.235 205.728 551.379 206.064 551.379 206.48V227.648C551.379 230.176 550.883 232.336 549.891 234.128C548.899 235.92 547.523 237.28 545.763 238.208C544.003 239.136 542.019 239.6 539.811 239.6C538.467 239.6 537.203 239.456 536.019 239.168C534.867 238.88 533.907 238.496 533.139 238.016C532.467 237.6 532.131 237.136 532.131 236.624C532.131 236.56 532.163 236.4 532.227 236.144C532.323 235.824 532.483 235.584 532.707 235.424C532.931 235.264 533.171 235.184 533.427 235.184C533.619 235.184 533.811 235.232 534.003 235.328C536.051 236.448 538.003 237.008 539.859 237.008C542.515 237.008 544.611 236.176 546.147 234.512C547.715 232.848 548.499 230.576 548.499 227.696V226.016C547.699 227.36 546.547 228.448 545.043 229.28C543.539 230.08 541.907 230.48 540.147 230.48C537.363 230.48 535.251 229.648 533.811 227.984C532.371 226.32 531.651 224.064 531.651 221.216V206.48C531.651 206.064 531.779 205.728 532.035 205.472C532.323 205.184 532.675 205.04 533.091 205.04C533.507 205.04 533.843 205.184 534.099 205.472C534.387 205.728 534.531 206.064 534.531 206.48V220.784C534.531 223.088 535.027 224.832 536.019 226.016C537.043 227.2 538.627 227.792 540.771 227.792C542.083 227.792 543.331 227.472 544.515 226.832C545.731 226.16 546.691 225.296 547.395 224.24C548.131 223.152 548.499 222 548.499 220.784V206.48C548.499 206.064 548.627 205.728 548.883 205.472C549.171 205.184 549.523 205.04 549.939 205.04ZM594.714 217.712C594.714 220.112 594.186 222.288 593.13 224.24C592.074 226.192 590.618 227.728 588.762 228.848C586.906 229.936 584.842 230.48 582.57 230.48C580.298 230.48 578.234 229.936 576.378 228.848C574.522 227.728 573.066 226.192 572.01 224.24C570.954 222.288 570.426 220.112 570.426 217.712C570.426 215.312 570.954 213.136 572.01 211.184C573.066 209.232 574.522 207.696 576.378 206.576C578.234 205.456 580.298 204.896 582.57 204.896C584.842 204.896 586.906 205.456 588.762 206.576C590.618 207.696 592.074 209.232 593.13 211.184C594.186 213.136 594.714 215.312 594.714 217.712ZM591.834 217.712C591.834 215.792 591.434 214.064 590.634 212.528C589.834 210.992 588.714 209.792 587.274 208.928C585.866 208.032 584.298 207.584 582.57 207.584C580.842 207.584 579.274 208.032 577.866 208.928C576.458 209.792 575.338 210.992 574.506 212.528C573.706 214.064 573.306 215.792 573.306 217.712C573.306 219.6 573.706 221.312 574.506 222.848C575.338 224.384 576.458 225.6 577.866 226.496C579.274 227.36 580.842 227.792 582.57 227.792C584.298 227.792 585.866 227.36 587.274 226.496C588.714 225.632 589.834 224.432 590.634 222.896C591.434 221.36 591.834 219.632 591.834 217.712ZM612.173 204.896C615.149 204.896 617.325 205.776 618.701 207.536C620.109 209.264 620.812 211.568 620.812 214.448V228.56C620.812 228.976 620.669 229.328 620.381 229.616C620.093 229.872 619.757 230 619.373 230C618.957 230 618.605 229.872 618.317 229.616C618.061 229.328 617.933 228.976 617.933 228.56V214.592C617.933 212.512 617.405 210.832 616.349 209.552C615.325 208.24 613.725 207.584 611.549 207.584C610.173 207.584 608.861 207.904 607.613 208.544C606.397 209.184 605.405 210.048 604.637 211.136C603.869 212.192 603.485 213.344 603.485 214.592V228.56C603.485 228.976 603.341 229.328 603.053 229.616C602.797 229.872 602.461 230 602.045 230C601.629 230 601.277 229.872 600.989 229.616C600.733 229.328 600.605 228.976 600.605 228.56V207.056C600.605 206.64 600.733 206.304 600.989 206.048C601.277 205.76 601.629 205.616 602.045 205.616C602.461 205.616 602.797 205.76 603.053 206.048C603.341 206.304 603.485 206.64 603.485 207.056V209.696C604.349 208.32 605.581 207.184 607.181 206.288C608.813 205.36 610.477 204.896 612.173 204.896Z" fill="#393E46"/>
<path d="M886.679 219.92C885.783 219.92 885.303 219.408 885.239 218.384L884.183 199.28C884.119 198.448 884.311 197.76 884.759 197.216C885.239 196.672 885.863 196.4 886.631 196.4C887.431 196.4 888.055 196.672 888.503 197.216C888.951 197.76 889.143 198.448 889.079 199.28L888.071 218.384C888.039 218.896 887.895 219.28 887.639 219.536C887.415 219.792 887.095 219.92 886.679 219.92ZM886.391 230C885.623 230 885.031 229.792 884.615 229.376C884.231 228.928 884.039 228.32 884.039 227.552V226.64C884.039 225.872 884.231 225.28 884.615 224.864C885.031 224.416 885.623 224.192 886.391 224.192H886.919C887.687 224.192 888.263 224.416 888.647 224.864C889.063 225.28 889.271 225.872 889.271 226.64V227.552C889.271 228.32 889.063 228.928 888.647 229.376C888.263 229.792 887.687 230 886.919 230H886.391Z" fill="black"/>
<path d="M651.848 230.48C649.512 230.48 647.448 230.16 645.656 229.52C643.864 228.848 642.152 227.776 640.52 226.304C639.848 225.728 639.512 225.072 639.512 224.336C639.512 223.76 639.736 223.248 640.184 222.8C640.632 222.32 641.16 222.08 641.768 222.08C642.312 222.08 642.776 222.256 643.16 222.608C644.44 223.792 645.752 224.672 647.096 225.248C648.472 225.792 650.024 226.064 651.752 226.064C653.768 226.064 655.464 225.6 656.84 224.672C658.248 223.744 658.952 222.576 658.952 221.168C658.92 219.504 658.216 218.224 656.84 217.328C655.496 216.4 653.432 215.632 650.648 215.024C647.352 214.352 644.808 213.248 643.016 211.712C641.256 210.176 640.376 208.048 640.376 205.328C640.376 203.44 640.872 201.792 641.864 200.384C642.856 198.944 644.232 197.84 645.992 197.072C647.752 196.304 649.736 195.92 651.944 195.92C653.928 195.92 655.8 196.24 657.56 196.88C659.32 197.52 660.744 198.368 661.832 199.424C662.568 200.064 662.936 200.752 662.936 201.488C662.936 202.064 662.712 202.576 662.264 203.024C661.848 203.472 661.336 203.696 660.728 203.696C660.28 203.696 659.912 203.568 659.624 203.312C658.792 202.48 657.64 201.776 656.168 201.2C654.696 200.624 653.288 200.336 651.944 200.336C649.8 200.336 648.088 200.784 646.808 201.68C645.56 202.544 644.936 203.696 644.936 205.136C644.936 206.704 645.56 207.904 646.808 208.736C648.088 209.568 649.976 210.272 652.472 210.848C654.968 211.392 657 212.032 658.568 212.768C660.168 213.504 661.4 214.528 662.264 215.84C663.128 217.152 663.56 218.864 663.56 220.976C663.56 222.832 663.032 224.48 661.976 225.92C660.952 227.36 659.544 228.48 657.752 229.28C655.96 230.08 653.992 230.48 651.848 230.48ZM681.561 204.416C687.193 204.416 690.009 207.904 690.009 214.88V227.696C690.009 228.336 689.785 228.88 689.337 229.328C688.921 229.776 688.377 230 687.705 230C687.065 230 686.521 229.776 686.073 229.328C685.657 228.88 685.449 228.336 685.449 227.696V214.88C685.449 210.72 683.689 208.64 680.169 208.64C678.281 208.64 676.713 209.248 675.465 210.464C674.217 211.648 673.593 213.12 673.593 214.88V227.696C673.593 228.336 673.369 228.88 672.921 229.328C672.505 229.776 671.961 230 671.289 230C670.617 230 670.073 229.792 669.657 229.376C669.241 228.928 669.033 228.368 669.033 227.696V196.784C669.033 196.144 669.241 195.6 669.657 195.152C670.105 194.704 670.649 194.48 671.289 194.48C671.961 194.48 672.505 194.704 672.921 195.152C673.369 195.6 673.593 196.144 673.593 196.784V208.928C674.393 207.68 675.513 206.624 676.953 205.76C678.393 204.864 679.929 204.416 681.561 204.416ZM720.638 217.424C720.638 219.92 720.078 222.16 718.958 224.144C717.838 226.128 716.302 227.68 714.35 228.8C712.43 229.92 710.302 230.48 707.966 230.48C705.63 230.48 703.486 229.92 701.534 228.8C699.614 227.68 698.094 226.128 696.974 224.144C695.854 222.16 695.294 219.92 695.294 217.424C695.294 214.928 695.854 212.672 696.974 210.656C698.094 208.64 699.614 207.072 701.534 205.952C703.486 204.832 705.63 204.272 707.966 204.272C710.302 204.272 712.43 204.832 714.35 205.952C716.302 207.072 717.838 208.64 718.958 210.656C720.078 212.672 720.638 214.928 720.638 217.424ZM716.078 217.424C716.078 215.696 715.71 214.16 714.974 212.816C714.27 211.44 713.294 210.384 712.046 209.648C710.83 208.88 709.47 208.496 707.966 208.496C706.462 208.496 705.086 208.88 703.838 209.648C702.622 210.384 701.646 211.44 700.91 212.816C700.206 214.16 699.854 215.696 699.854 217.424C699.854 219.12 700.206 220.64 700.91 221.984C701.646 223.328 702.622 224.384 703.838 225.152C705.086 225.888 706.462 226.256 707.966 226.256C709.47 226.256 710.83 225.888 712.046 225.152C713.294 224.384 714.27 223.328 714.974 221.984C715.71 220.64 716.078 219.12 716.078 217.424ZM738.563 204.416C740.739 204.416 742.707 204.976 744.467 206.096C746.227 207.184 747.603 208.72 748.595 210.704C749.619 212.688 750.131 214.928 750.131 217.424C750.131 219.92 749.619 222.16 748.595 224.144C747.603 226.096 746.227 227.632 744.467 228.752C742.707 229.872 740.771 230.432 738.659 230.432C736.995 230.432 735.443 230.064 734.003 229.328C732.563 228.592 731.395 227.696 730.499 226.64V237.296C730.499 237.936 730.275 238.48 729.827 238.928C729.411 239.376 728.867 239.6 728.195 239.6C727.555 239.6 727.011 239.376 726.563 238.928C726.147 238.512 725.939 237.968 725.939 237.296V207.104C725.939 206.432 726.147 205.872 726.563 205.424C726.979 204.976 727.523 204.752 728.195 204.752C728.867 204.752 729.411 204.976 729.827 205.424C730.275 205.872 730.499 206.432 730.499 207.104V208.496C731.267 207.376 732.387 206.416 733.859 205.616C735.331 204.816 736.899 204.416 738.563 204.416ZM738.035 226.208C739.507 226.208 740.835 225.824 742.019 225.056C743.203 224.288 744.115 223.248 744.755 221.936C745.427 220.592 745.763 219.088 745.763 217.424C745.763 215.76 745.427 214.272 744.755 212.96C744.115 211.616 743.203 210.56 742.019 209.792C740.835 209.024 739.507 208.64 738.035 208.64C736.531 208.64 735.187 209.024 734.003 209.792C732.819 210.528 731.891 211.568 731.219 212.912C730.579 214.256 730.259 215.76 730.259 217.424C730.259 219.088 730.579 220.592 731.219 221.936C731.891 223.28 732.819 224.336 734.003 225.104C735.187 225.84 736.531 226.208 738.035 226.208ZM768.048 204.416C770.224 204.416 772.192 204.976 773.952 206.096C775.712 207.184 777.088 208.72 778.08 210.704C779.104 212.688 779.616 214.928 779.616 217.424C779.616 219.92 779.104 222.16 778.08 224.144C777.088 226.096 775.712 227.632 773.952 228.752C772.192 229.872 770.256 230.432 768.144 230.432C766.48 230.432 764.928 230.064 763.488 229.328C762.048 228.592 760.88 227.696 759.984 226.64V237.296C759.984 237.936 759.76 238.48 759.312 238.928C758.896 239.376 758.352 239.6 757.68 239.6C757.04 239.6 756.496 239.376 756.048 238.928C755.632 238.512 755.424 237.968 755.424 237.296V207.104C755.424 206.432 755.632 205.872 756.048 205.424C756.464 204.976 757.008 204.752 757.68 204.752C758.352 204.752 758.896 204.976 759.312 205.424C759.76 205.872 759.984 206.432 759.984 207.104V208.496C760.752 207.376 761.872 206.416 763.344 205.616C764.816 204.816 766.384 204.416 768.048 204.416ZM767.52 226.208C768.992 226.208 770.32 225.824 771.504 225.056C772.688 224.288 773.6 223.248 774.24 221.936C774.912 220.592 775.248 219.088 775.248 217.424C775.248 215.76 774.912 214.272 774.24 212.96C773.6 211.616 772.688 210.56 771.504 209.792C770.32 209.024 768.992 208.64 767.52 208.64C766.016 208.64 764.672 209.024 763.488 209.792C762.304 210.528 761.376 211.568 760.704 212.912C760.064 214.256 759.744 215.76 759.744 217.424C759.744 219.088 760.064 220.592 760.704 221.936C761.376 223.28 762.304 224.336 763.488 225.104C764.672 225.84 766.016 226.208 767.52 226.208ZM806.988 216.464C806.956 217.04 806.716 217.536 806.268 217.952C805.82 218.336 805.292 218.528 804.684 218.528H787.788C788.012 220.864 788.892 222.736 790.428 224.144C791.996 225.552 793.9 226.256 796.14 226.256C797.676 226.256 798.924 226.032 799.884 225.584C800.844 225.136 801.692 224.56 802.428 223.856C802.908 223.568 803.372 223.424 803.82 223.424C804.364 223.424 804.812 223.616 805.164 224C805.548 224.384 805.74 224.832 805.74 225.344C805.74 226.016 805.42 226.624 804.78 227.168C803.852 228.096 802.62 228.88 801.084 229.52C799.548 230.16 797.98 230.48 796.38 230.48C793.788 230.48 791.5 229.936 789.516 228.848C787.564 227.76 786.044 226.24 784.956 224.288C783.9 222.336 783.372 220.128 783.372 217.664C783.372 214.976 783.916 212.624 785.004 210.608C786.124 208.56 787.58 206.992 789.372 205.904C791.196 204.816 793.148 204.272 795.228 204.272C797.276 204.272 799.196 204.8 800.988 205.856C802.78 206.912 804.22 208.368 805.308 210.224C806.396 212.08 806.956 214.16 806.988 216.464ZM795.228 208.496C793.436 208.496 791.884 209.008 790.572 210.032C789.26 211.024 788.396 212.576 787.98 214.688H802.14V214.304C801.98 212.608 801.212 211.216 799.836 210.128C798.492 209.04 796.956 208.496 795.228 208.496ZM824.811 204.272C825.643 204.272 826.363 204.496 826.971 204.944C827.579 205.36 827.883 205.888 827.883 206.528C827.883 207.296 827.675 207.888 827.259 208.304C826.875 208.688 826.395 208.88 825.819 208.88C825.531 208.88 825.099 208.784 824.523 208.592C823.851 208.368 823.323 208.256 822.939 208.256C821.947 208.256 820.971 208.608 820.011 209.312C819.083 209.984 818.315 210.928 817.707 212.144C817.131 213.328 816.843 214.656 816.843 216.128V227.696C816.843 228.336 816.619 228.88 816.171 229.328C815.755 229.776 815.211 230 814.539 230C813.867 230 813.323 229.792 812.907 229.376C812.491 228.928 812.283 228.368 812.283 227.696V207.152C812.283 206.512 812.491 205.968 812.907 205.52C813.355 205.072 813.899 204.848 814.539 204.848C815.211 204.848 815.755 205.072 816.171 205.52C816.619 205.968 816.843 206.512 816.843 207.152V209.6C817.547 208.032 818.603 206.768 820.011 205.808C821.419 204.816 823.019 204.304 824.811 204.272ZM837.055 227.696C837.055 228.336 836.831 228.88 836.383 229.328C835.935 229.776 835.391 230 834.751 230C834.111 230 833.567 229.776 833.119 229.328C832.703 228.88 832.495 228.336 832.495 227.696V196.784C832.495 196.144 832.719 195.6 833.167 195.152C833.615 194.704 834.159 194.48 834.799 194.48C835.439 194.48 835.967 194.704 836.383 195.152C836.831 195.6 837.055 196.144 837.055 196.784V227.696ZM862.269 204.608C862.941 204.608 863.485 204.832 863.901 205.28C864.349 205.728 864.573 206.272 864.573 206.912V227.648C864.573 231.648 863.469 234.64 861.261 236.624C859.053 238.608 856.141 239.6 852.525 239.6C851.341 239.6 850.173 239.488 849.021 239.264C847.869 239.04 846.925 238.736 846.189 238.352C845.005 237.808 844.413 237.072 844.413 236.144C844.413 235.984 844.445 235.776 844.509 235.52C844.701 234.976 844.973 234.56 845.325 234.272C845.677 233.984 846.077 233.84 846.525 233.84C846.781 233.84 847.021 233.888 847.245 233.984C848.237 234.432 849.117 234.784 849.885 235.04C850.653 235.296 851.549 235.424 852.573 235.424C857.533 235.424 860.013 232.88 860.013 227.792V226.832C859.149 227.984 858.029 228.88 856.653 229.52C855.309 230.16 853.757 230.48 851.997 230.48C849.341 230.48 847.261 229.632 845.757 227.936C844.285 226.24 843.549 224.016 843.549 221.264V206.912C843.549 206.24 843.757 205.696 844.173 205.28C844.589 204.832 845.133 204.608 845.805 204.608C846.477 204.608 847.021 204.832 847.437 205.28C847.885 205.728 848.109 206.272 848.109 206.912V220.064C848.109 222.176 848.573 223.744 849.501 224.768C850.429 225.76 851.837 226.256 853.725 226.256C855.549 226.256 857.053 225.68 858.237 224.528C859.421 223.376 860.013 221.888 860.013 220.064V206.912C860.013 206.24 860.221 205.696 860.637 205.28C861.053 204.832 861.597 204.608 862.269 204.608Z" fill="#BEEBE9"/>
</g>
<defs>
<filter id="filter0_d" x="399.52" y="142.2" width="498.436" height="43.6" filterUnits="userSpaceOnUse" color-interpolation-filters="sRGB">
<feFlood flood-opacity="0" result="BackgroundImageFix"/>
<feColorMatrix in="SourceAlpha" type="matrix" values="0 0 0 0 0 0 0 0 0 0 0 0 0 0 0 0 0 0 127 0"/>
<feOffset dy="0.8"/>
<feGaussianBlur stdDeviation="1.5"/>
<feColorMatrix type="matrix" values="0 0 0 0 0 0 0 0 0 0 0 0 0 0 0 0 0 0 0.25 0"/>
<feBlend mode="normal" in2="BackgroundImageFix" result="effect1_dropShadow"/>
<feBlend mode="normal" in="SourceGraphic" in2="effect1_dropShadow" result="shape"/>
</filter>
<filter id="filter1_d" x="452.304" y="192.28" width="439.966" height="51.12" filterUnits="userSpaceOnUse" color-interpolation-filters="sRGB">
<feFlood flood-opacity="0" result="BackgroundImageFix"/>
<feColorMatrix in="SourceAlpha" type="matrix" values="0 0 0 0 0 0 0 0 0 0 0 0 0 0 0 0 0 0 127 0"/>
<feOffset dy="0.8"/>
<feGaussianBlur stdDeviation="1.5"/>
<feColorMatrix type="matrix" values="0 0 0 0 0 0 0 0 0 0 0 0 0 0 0 0 0 0 0.25 0"/>
<feBlend mode="normal" in2="BackgroundImageFix" result="effect1_dropShadow"/>
<feBlend mode="normal" in="SourceGraphic" in2="effect1_dropShadow" result="shape"/>
</filter>
<clipPath id="clip0">
<path d="M194.262 107.965C204.918 65.0862 248.316 38.9643 291.194 49.6199L440.035 86.6081L386.282 302.914L159.802 246.632L194.262 107.965Z" fill="white"/>
</clipPath>
</defs>
</svg>
